%TF.GenerationSoftware,KiCad,Pcbnew,7.0.1*%
%TF.CreationDate,2024-01-29T14:24:05+02:00*%
%TF.ProjectId,Temp_meter_1.1,54656d70-5f6d-4657-9465-725f312e312e,rev?*%
%TF.SameCoordinates,Original*%
%TF.FileFunction,Copper,L1,Top*%
%TF.FilePolarity,Positive*%
%FSLAX46Y46*%
G04 Gerber Fmt 4.6, Leading zero omitted, Abs format (unit mm)*
G04 Created by KiCad (PCBNEW 7.0.1) date 2024-01-29 14:24:06*
%MOMM*%
%LPD*%
G01*
G04 APERTURE LIST*
G04 Aperture macros list*
%AMRoundRect*
0 Rectangle with rounded corners*
0 $1 Rounding radius*
0 $2 $3 $4 $5 $6 $7 $8 $9 X,Y pos of 4 corners*
0 Add a 4 corners polygon primitive as box body*
4,1,4,$2,$3,$4,$5,$6,$7,$8,$9,$2,$3,0*
0 Add four circle primitives for the rounded corners*
1,1,$1+$1,$2,$3*
1,1,$1+$1,$4,$5*
1,1,$1+$1,$6,$7*
1,1,$1+$1,$8,$9*
0 Add four rect primitives between the rounded corners*
20,1,$1+$1,$2,$3,$4,$5,0*
20,1,$1+$1,$4,$5,$6,$7,0*
20,1,$1+$1,$6,$7,$8,$9,0*
20,1,$1+$1,$8,$9,$2,$3,0*%
G04 Aperture macros list end*
%TA.AperFunction,ComponentPad*%
%ADD10C,3.800000*%
%TD*%
%TA.AperFunction,SMDPad,CuDef*%
%ADD11RoundRect,0.225000X-0.225000X-0.250000X0.225000X-0.250000X0.225000X0.250000X-0.225000X0.250000X0*%
%TD*%
%TA.AperFunction,SMDPad,CuDef*%
%ADD12RoundRect,0.100000X0.100000X-0.130000X0.100000X0.130000X-0.100000X0.130000X-0.100000X-0.130000X0*%
%TD*%
%TA.AperFunction,SMDPad,CuDef*%
%ADD13RoundRect,0.200000X-0.275000X0.200000X-0.275000X-0.200000X0.275000X-0.200000X0.275000X0.200000X0*%
%TD*%
%TA.AperFunction,SMDPad,CuDef*%
%ADD14RoundRect,0.135000X0.185000X-0.135000X0.185000X0.135000X-0.185000X0.135000X-0.185000X-0.135000X0*%
%TD*%
%TA.AperFunction,ComponentPad*%
%ADD15R,0.850000X0.850000*%
%TD*%
%TA.AperFunction,ComponentPad*%
%ADD16O,0.850000X0.850000*%
%TD*%
%TA.AperFunction,SMDPad,CuDef*%
%ADD17RoundRect,0.100000X0.130000X0.100000X-0.130000X0.100000X-0.130000X-0.100000X0.130000X-0.100000X0*%
%TD*%
%TA.AperFunction,SMDPad,CuDef*%
%ADD18RoundRect,0.200000X0.200000X0.275000X-0.200000X0.275000X-0.200000X-0.275000X0.200000X-0.275000X0*%
%TD*%
%TA.AperFunction,SMDPad,CuDef*%
%ADD19RoundRect,0.200000X-0.200000X-0.275000X0.200000X-0.275000X0.200000X0.275000X-0.200000X0.275000X0*%
%TD*%
%TA.AperFunction,SMDPad,CuDef*%
%ADD20RoundRect,0.135000X0.135000X0.185000X-0.135000X0.185000X-0.135000X-0.185000X0.135000X-0.185000X0*%
%TD*%
%TA.AperFunction,SMDPad,CuDef*%
%ADD21RoundRect,0.225000X-0.250000X0.225000X-0.250000X-0.225000X0.250000X-0.225000X0.250000X0.225000X0*%
%TD*%
%TA.AperFunction,SMDPad,CuDef*%
%ADD22RoundRect,0.100000X-0.100000X0.130000X-0.100000X-0.130000X0.100000X-0.130000X0.100000X0.130000X0*%
%TD*%
%TA.AperFunction,ComponentPad*%
%ADD23RoundRect,0.250000X-0.550000X0.550000X-0.550000X-0.550000X0.550000X-0.550000X0.550000X0.550000X0*%
%TD*%
%TA.AperFunction,ComponentPad*%
%ADD24C,1.600000*%
%TD*%
%TA.AperFunction,SMDPad,CuDef*%
%ADD25RoundRect,0.075000X0.337500X0.075000X-0.337500X0.075000X-0.337500X-0.075000X0.337500X-0.075000X0*%
%TD*%
%TA.AperFunction,SMDPad,CuDef*%
%ADD26RoundRect,0.075000X0.075000X0.337500X-0.075000X0.337500X-0.075000X-0.337500X0.075000X-0.337500X0*%
%TD*%
%TA.AperFunction,SMDPad,CuDef*%
%ADD27R,3.250000X3.250000*%
%TD*%
%TA.AperFunction,SMDPad,CuDef*%
%ADD28RoundRect,0.135000X-0.185000X0.135000X-0.185000X-0.135000X0.185000X-0.135000X0.185000X0.135000X0*%
%TD*%
%TA.AperFunction,SMDPad,CuDef*%
%ADD29R,0.960000X0.440000*%
%TD*%
%TA.AperFunction,SMDPad,CuDef*%
%ADD30R,3.400000X4.300000*%
%TD*%
%TA.AperFunction,SMDPad,CuDef*%
%ADD31RoundRect,0.225000X0.250000X-0.225000X0.250000X0.225000X-0.250000X0.225000X-0.250000X-0.225000X0*%
%TD*%
%TA.AperFunction,SMDPad,CuDef*%
%ADD32RoundRect,0.250000X0.450000X-0.262500X0.450000X0.262500X-0.450000X0.262500X-0.450000X-0.262500X0*%
%TD*%
%TA.AperFunction,SMDPad,CuDef*%
%ADD33RoundRect,0.100000X-0.130000X-0.100000X0.130000X-0.100000X0.130000X0.100000X-0.130000X0.100000X0*%
%TD*%
%TA.AperFunction,SMDPad,CuDef*%
%ADD34R,0.300000X0.700000*%
%TD*%
%TA.AperFunction,ComponentPad*%
%ADD35C,1.400000*%
%TD*%
%TA.AperFunction,SMDPad,CuDef*%
%ADD36R,1.400000X1.200000*%
%TD*%
%TA.AperFunction,SMDPad,CuDef*%
%ADD37R,0.690000X0.320000*%
%TD*%
%TA.AperFunction,SMDPad,CuDef*%
%ADD38R,1.000000X1.600000*%
%TD*%
%TA.AperFunction,SMDPad,CuDef*%
%ADD39RoundRect,0.140000X0.170000X-0.140000X0.170000X0.140000X-0.170000X0.140000X-0.170000X-0.140000X0*%
%TD*%
%TA.AperFunction,SMDPad,CuDef*%
%ADD40R,1.200000X1.200000*%
%TD*%
%TA.AperFunction,SMDPad,CuDef*%
%ADD41R,1.600000X1.500000*%
%TD*%
%TA.AperFunction,SMDPad,CuDef*%
%ADD42RoundRect,0.050000X-0.387500X-0.050000X0.387500X-0.050000X0.387500X0.050000X-0.387500X0.050000X0*%
%TD*%
%TA.AperFunction,SMDPad,CuDef*%
%ADD43RoundRect,0.050000X-0.050000X-0.387500X0.050000X-0.387500X0.050000X0.387500X-0.050000X0.387500X0*%
%TD*%
%TA.AperFunction,SMDPad,CuDef*%
%ADD44R,3.200000X3.200000*%
%TD*%
%TA.AperFunction,ViaPad*%
%ADD45C,0.800000*%
%TD*%
%TA.AperFunction,ViaPad*%
%ADD46C,0.600000*%
%TD*%
%TA.AperFunction,Conductor*%
%ADD47C,0.300000*%
%TD*%
%TA.AperFunction,Conductor*%
%ADD48C,0.200000*%
%TD*%
G04 APERTURE END LIST*
D10*
%TO.P,H4,1*%
%TO.N,N/C*%
X117900000Y-76000000D03*
%TD*%
D11*
%TO.P,C3,1*%
%TO.N,+3.3V*%
X106050000Y-52900000D03*
%TO.P,C3,2*%
%TO.N,GND*%
X107600000Y-52900000D03*
%TD*%
D12*
%TO.P,C7,1*%
%TO.N,+1V1*%
X100400000Y-59375000D03*
%TO.P,C7,2*%
%TO.N,GND*%
X100400000Y-58735000D03*
%TD*%
D13*
%TO.P,R5,1*%
%TO.N,USB_DP*%
X101700000Y-55200000D03*
%TO.P,R5,2*%
%TO.N,Net-(U1-USB_DP)*%
X101700000Y-56850000D03*
%TD*%
D14*
%TO.P,R9,1*%
%TO.N,Net-(C18-Pad2)*%
X101592500Y-71120000D03*
%TO.P,R9,2*%
%TO.N,XOUT*%
X101592500Y-70100000D03*
%TD*%
D15*
%TO.P,J2,1,Pin_1*%
%TO.N,GND*%
X113800000Y-73800000D03*
D16*
%TO.P,J2,2,Pin_2*%
%TO.N,+3.3V*%
X113800000Y-74800000D03*
%TO.P,J2,3,Pin_3*%
%TO.N,Switch*%
X113800000Y-75800000D03*
%TO.P,J2,4,Pin_4*%
%TO.N,Out_B*%
X113800000Y-76800000D03*
%TO.P,J2,5,Pin_5*%
%TO.N,Out_A*%
X113800000Y-77800000D03*
%TD*%
D12*
%TO.P,C5,1*%
%TO.N,+1V1*%
X104400000Y-59665000D03*
%TO.P,C5,2*%
%TO.N,GND*%
X104400000Y-59025000D03*
%TD*%
D11*
%TO.P,C2,1*%
%TO.N,+5V*%
X111650000Y-52800000D03*
%TO.P,C2,2*%
%TO.N,GND*%
X113200000Y-52800000D03*
%TD*%
D17*
%TO.P,C8,1*%
%TO.N,+3.3V*%
X96875000Y-66200000D03*
%TO.P,C8,2*%
%TO.N,GND*%
X96235000Y-66200000D03*
%TD*%
D12*
%TO.P,C15,1*%
%TO.N,+3.3V*%
X105200000Y-59665000D03*
%TO.P,C15,2*%
%TO.N,GND*%
X105200000Y-59025000D03*
%TD*%
D18*
%TO.P,R11,1*%
%TO.N,LED2*%
X90300000Y-61400000D03*
%TO.P,R11,2*%
%TO.N,Net-(D2-A)*%
X88650000Y-61400000D03*
%TD*%
D15*
%TO.P,D1,1,K*%
%TO.N,GND*%
X89700000Y-57600000D03*
D16*
%TO.P,D1,2,A*%
%TO.N,Net-(D1-A)*%
X88700000Y-57600000D03*
%TD*%
D19*
%TO.P,R14,1*%
%TO.N,GND*%
X93550000Y-48200000D03*
%TO.P,R14,2*%
%TO.N,Net-(P1-CC2)*%
X95200000Y-48200000D03*
%TD*%
D20*
%TO.P,R7,1*%
%TO.N,+3.3V*%
X93820000Y-52600000D03*
%TO.P,R7,2*%
%TO.N,QSPI_SS*%
X92800000Y-52600000D03*
%TD*%
D13*
%TO.P,R15,1*%
%TO.N,GND*%
X108300000Y-48750000D03*
%TO.P,R15,2*%
%TO.N,Net-(P1-CC1)*%
X108300000Y-50400000D03*
%TD*%
D21*
%TO.P,C1,1*%
%TO.N,Net-(J1-Pin_2)*%
X116300000Y-54100000D03*
%TO.P,C1,2*%
%TO.N,GND*%
X116300000Y-55650000D03*
%TD*%
D22*
%TO.P,C17,1*%
%TO.N,GND*%
X97700000Y-73980000D03*
%TO.P,C17,2*%
%TO.N,XIN*%
X97700000Y-74620000D03*
%TD*%
D23*
%TO.P,J1,1,Pin_1*%
%TO.N,GND*%
X119000000Y-50200000D03*
D24*
%TO.P,J1,2,Pin_2*%
%TO.N,Net-(J1-Pin_2)*%
X119000000Y-53800000D03*
%TD*%
D25*
%TO.P,U5,1,BIAS*%
%TO.N,Net-(U5-BIAS)*%
X114647500Y-66700000D03*
%TO.P,U5,2,REFIN+*%
X114647500Y-66050000D03*
%TO.P,U5,3,REFIN-*%
%TO.N,Net-(U5-ISENSOR)*%
X114647500Y-65400000D03*
%TO.P,U5,4,ISENSOR*%
X114647500Y-64750000D03*
%TO.P,U5,5,FORCE+*%
%TO.N,RTD+*%
X114647500Y-64100000D03*
D26*
%TO.P,U5,6,FORCE2*%
%TO.N,GND*%
X113510000Y-62962500D03*
%TO.P,U5,7,RTDIN+*%
%TO.N,RTD+*%
X112860000Y-62962500D03*
%TO.P,U5,8,RTDIN-*%
%TO.N,RTD-*%
X112210000Y-62962500D03*
%TO.P,U5,9,FORCE-*%
X111560000Y-62962500D03*
%TO.P,U5,10,GND*%
%TO.N,GND*%
X110910000Y-62962500D03*
D25*
%TO.P,U5,11,SDI*%
%TO.N,SDI*%
X109772500Y-64100000D03*
%TO.P,U5,12,SCLK*%
%TO.N,SCLK*%
X109772500Y-64750000D03*
%TO.P,U5,13,~{CS}*%
%TO.N,CS*%
X109772500Y-65400000D03*
%TO.P,U5,14,SDO*%
%TO.N,SD0*%
X109772500Y-66050000D03*
%TO.P,U5,15,DGND*%
%TO.N,GND*%
X109772500Y-66700000D03*
D26*
%TO.P,U5,16,GND*%
X110910000Y-67837500D03*
%TO.P,U5,17,NC*%
%TO.N,unconnected-(U5-NC-Pad17)*%
X111560000Y-67837500D03*
%TO.P,U5,18,~{DRDY}*%
%TO.N,DRDY*%
X112210000Y-67837500D03*
%TO.P,U5,19,DVDD*%
%TO.N,+3.3V*%
X112860000Y-67837500D03*
%TO.P,U5,20,VDD*%
X113510000Y-67837500D03*
D27*
%TO.P,U5,21,GND*%
%TO.N,GND*%
X112210000Y-65400000D03*
%TD*%
D22*
%TO.P,C20,1*%
%TO.N,+3.3V*%
X112800000Y-69125000D03*
%TO.P,C20,2*%
%TO.N,GND*%
X112800000Y-69765000D03*
%TD*%
D23*
%TO.P,J3,1,Pin_1*%
%TO.N,RTD-*%
X118775000Y-58400000D03*
D24*
%TO.P,J3,2,Pin_2*%
%TO.N,RTD+*%
X118775000Y-62000000D03*
%TD*%
D12*
%TO.P,C13,1*%
%TO.N,+3.3V*%
X102300000Y-59620000D03*
%TO.P,C13,2*%
%TO.N,GND*%
X102300000Y-58980000D03*
%TD*%
%TO.P,C22,1*%
%TO.N,+3.3V*%
X101500000Y-59375000D03*
%TO.P,C22,2*%
%TO.N,GND*%
X101500000Y-58735000D03*
%TD*%
D28*
%TO.P,R1,1*%
%TO.N,+5V*%
X109850000Y-55540000D03*
%TO.P,R1,2*%
%TO.N,Net-(U2-EN)*%
X109850000Y-56560000D03*
%TD*%
D29*
%TO.P,U4,1,~{CS}*%
%TO.N,QSPI_SS*%
X92900000Y-54190000D03*
%TO.P,U4,2,DO(IO1)*%
%TO.N,QSPI_SD1*%
X92900000Y-55460000D03*
%TO.P,U4,3,IO2*%
%TO.N,QSPI_SD2*%
X92900000Y-56730000D03*
%TO.P,U4,4,GND*%
%TO.N,GND*%
X92900000Y-58000000D03*
%TO.P,U4,5,DI(IO0)*%
%TO.N,QSPI_SD0*%
X98500000Y-58000000D03*
%TO.P,U4,6,CLK*%
%TO.N,QSPI_SCLK*%
X98500000Y-56730000D03*
%TO.P,U4,7,IO3*%
%TO.N,QSPI_SD3*%
X98500000Y-55460000D03*
%TO.P,U4,8,VCC*%
%TO.N,+3.3V*%
X98500000Y-54190000D03*
D30*
%TO.P,U4,9*%
%TO.N,N/C*%
X95700000Y-56095000D03*
%TD*%
D31*
%TO.P,C4,1*%
%TO.N,+5V*%
X109800000Y-54300000D03*
%TO.P,C4,2*%
%TO.N,GND*%
X109800000Y-52750000D03*
%TD*%
D15*
%TO.P,LCD1,1,Vss*%
%TO.N,GND*%
X93400000Y-62700000D03*
D16*
%TO.P,LCD1,2,Vdd*%
%TO.N,+5V*%
X93400000Y-63700000D03*
%TO.P,LCD1,3,V0*%
%TO.N,Net-(LCD1-V0)*%
X93400000Y-64700000D03*
%TO.P,LCD1,4,RS*%
%TO.N,RS*%
X93400000Y-65700000D03*
%TO.P,LCD1,5,R/W*%
%TO.N,R{slash}W*%
X93400000Y-66700000D03*
%TO.P,LCD1,6,E*%
%TO.N,E*%
X93400000Y-67700000D03*
%TO.P,LCD1,7,DB0*%
%TO.N,DB0*%
X93400000Y-68700000D03*
%TO.P,LCD1,8,DB1*%
%TO.N,DB1*%
X93400000Y-69700000D03*
%TO.P,LCD1,9,DB2*%
%TO.N,DB2*%
X93400000Y-70700000D03*
%TO.P,LCD1,10,DB3*%
%TO.N,DB3*%
X93400000Y-71700000D03*
%TO.P,LCD1,11,DB4*%
%TO.N,DB4*%
X93400000Y-72700000D03*
%TO.P,LCD1,12,DB5*%
%TO.N,DB5*%
X93400000Y-73700000D03*
%TO.P,LCD1,13,DB6*%
%TO.N,DB6*%
X93400000Y-74700000D03*
%TO.P,LCD1,14,DB7*%
%TO.N,DB7*%
X93400000Y-75700000D03*
%TO.P,LCD1,15,LED+*%
%TO.N,+5V*%
X93400000Y-76700000D03*
%TO.P,LCD1,16,LED-*%
%TO.N,GND*%
X93400000Y-77700000D03*
%TD*%
D12*
%TO.P,C11,1*%
%TO.N,+3.3V*%
X106000000Y-59665000D03*
%TO.P,C11,2*%
%TO.N,GND*%
X106000000Y-59025000D03*
%TD*%
D32*
%TO.P,R12,1*%
%TO.N,Net-(U5-BIAS)*%
X116800000Y-66600000D03*
%TO.P,R12,2*%
%TO.N,Net-(U5-ISENSOR)*%
X116800000Y-64775000D03*
%TD*%
D33*
%TO.P,C10,1*%
%TO.N,+3.3V*%
X106780000Y-66500000D03*
%TO.P,C10,2*%
%TO.N,GND*%
X107420000Y-66500000D03*
%TD*%
D34*
%TO.P,P1,A1,GND*%
%TO.N,GND*%
X104560000Y-51060000D03*
%TO.P,P1,A2*%
%TO.N,N/C*%
X104060000Y-51060000D03*
%TO.P,P1,A3*%
X103560000Y-51060000D03*
%TO.P,P1,A4,VBUS*%
%TO.N,+5V*%
X103060000Y-51060000D03*
%TO.P,P1,A5,CC1*%
%TO.N,Net-(P1-CC1)*%
X102560000Y-51060000D03*
%TO.P,P1,A6,D+*%
%TO.N,USB_DP*%
X102060000Y-51060000D03*
%TO.P,P1,A7,D-*%
%TO.N,USB_DM*%
X101560000Y-51060000D03*
%TO.P,P1,A8*%
%TO.N,N/C*%
X101060000Y-51060000D03*
%TO.P,P1,A9,VBUS*%
%TO.N,+5V*%
X100560000Y-51060000D03*
%TO.P,P1,A10*%
%TO.N,N/C*%
X100060000Y-51060000D03*
%TO.P,P1,A11*%
X99560000Y-51060000D03*
%TO.P,P1,A12,GND*%
%TO.N,GND*%
X99060000Y-51060000D03*
%TO.P,P1,B1,GND*%
X99310000Y-49360000D03*
%TO.P,P1,B2*%
%TO.N,N/C*%
X99810000Y-49360000D03*
%TO.P,P1,B3*%
X100310000Y-49360000D03*
%TO.P,P1,B4,VBUS*%
%TO.N,+5V*%
X100810000Y-49360000D03*
%TO.P,P1,B5,CC2*%
%TO.N,Net-(P1-CC2)*%
X101310000Y-49360000D03*
%TO.P,P1,B6*%
%TO.N,N/C*%
X101810000Y-49360000D03*
%TO.P,P1,B7*%
X102310000Y-49360000D03*
%TO.P,P1,B8*%
X102810000Y-49360000D03*
%TO.P,P1,B9,VBUS*%
%TO.N,+5V*%
X103310000Y-49360000D03*
%TO.P,P1,B10*%
%TO.N,N/C*%
X103810000Y-49360000D03*
%TO.P,P1,B11*%
X104310000Y-49360000D03*
%TO.P,P1,B12,GND*%
%TO.N,GND*%
X104810000Y-49360000D03*
D35*
%TO.P,P1,S1,SHIELD*%
X106300000Y-43200000D03*
X105940000Y-49150000D03*
X97680000Y-49150000D03*
X97320000Y-43200000D03*
%TD*%
D36*
%TO.P,Y2,1,1*%
%TO.N,XIN*%
X99400000Y-74600000D03*
%TO.P,Y2,2,2*%
%TO.N,GND*%
X101600000Y-74600000D03*
%TO.P,Y2,3,3*%
%TO.N,Net-(C18-Pad2)*%
X101600000Y-72900000D03*
%TO.P,Y2,4,4*%
%TO.N,GND*%
X99400000Y-72900000D03*
%TD*%
D15*
%TO.P,SW1,1*%
%TO.N,GND*%
X88900000Y-51600000D03*
D16*
%TO.P,SW1,2*%
%TO.N,Net-(R8-Pad2)*%
X88900000Y-52600000D03*
%TD*%
D33*
%TO.P,C16,1*%
%TO.N,+3.3V*%
X94000000Y-51000000D03*
%TO.P,C16,2*%
%TO.N,GND*%
X94640000Y-51000000D03*
%TD*%
%TO.P,C14,1*%
%TO.N,+3.3V*%
X106725000Y-62620000D03*
%TO.P,C14,2*%
%TO.N,GND*%
X107365000Y-62620000D03*
%TD*%
D10*
%TO.P,H1,1*%
%TO.N,N/C*%
X117900000Y-44000000D03*
%TD*%
D37*
%TO.P,U2,1,OUT*%
%TO.N,+3.3V*%
X106060000Y-54500000D03*
%TO.P,U2,2*%
%TO.N,N/C*%
X106060000Y-55150000D03*
%TO.P,U2,3,PG*%
%TO.N,Net-(U2-PG)*%
X106060000Y-55800000D03*
%TO.P,U2,4,EN*%
%TO.N,Net-(U2-EN)*%
X108100000Y-55800000D03*
%TO.P,U2,5,GND*%
%TO.N,GND*%
X108100000Y-55150000D03*
%TO.P,U2,6,IN*%
%TO.N,+5V*%
X108100000Y-54500000D03*
D38*
%TO.P,U2,7*%
%TO.N,N/C*%
X107080000Y-55150000D03*
%TD*%
D12*
%TO.P,C18,1*%
%TO.N,GND*%
X103200000Y-73565000D03*
%TO.P,C18,2*%
%TO.N,Net-(C18-Pad2)*%
X103200000Y-72925000D03*
%TD*%
D13*
%TO.P,R6,1*%
%TO.N,USB_DM*%
X103300000Y-55200000D03*
%TO.P,R6,2*%
%TO.N,Net-(U1-USB_DM)*%
X103300000Y-56850000D03*
%TD*%
D10*
%TO.P,H2,1*%
%TO.N,N/C*%
X90000000Y-76000000D03*
%TD*%
D20*
%TO.P,R8,1*%
%TO.N,QSPI_SS*%
X91820000Y-52600000D03*
%TO.P,R8,2*%
%TO.N,Net-(R8-Pad2)*%
X90800000Y-52600000D03*
%TD*%
D22*
%TO.P,C6,1*%
%TO.N,+1V1*%
X104000000Y-71480000D03*
%TO.P,C6,2*%
%TO.N,GND*%
X104000000Y-72120000D03*
%TD*%
D15*
%TO.P,J4,1,Pin_1*%
%TO.N,Net-(J4-Pin_1)*%
X107800000Y-77500000D03*
D16*
%TO.P,J4,2,Pin_2*%
%TO.N,GND*%
X108800000Y-77500000D03*
%TO.P,J4,3,Pin_3*%
%TO.N,Net-(J4-Pin_3)*%
X109800000Y-77500000D03*
%TD*%
D37*
%TO.P,U3,1,OUT*%
%TO.N,+5V*%
X111450000Y-54450000D03*
%TO.P,U3,2*%
%TO.N,N/C*%
X111450000Y-55100000D03*
%TO.P,U3,3,PG*%
%TO.N,Net-(U2-EN)*%
X111450000Y-55750000D03*
%TO.P,U3,4,EN*%
%TO.N,Net-(J1-Pin_2)*%
X113490000Y-55750000D03*
%TO.P,U3,5,GND*%
%TO.N,GND*%
X113490000Y-55100000D03*
%TO.P,U3,6,IN*%
%TO.N,Net-(J1-Pin_2)*%
X113490000Y-54450000D03*
D38*
%TO.P,U3,7*%
%TO.N,N/C*%
X112470000Y-55100000D03*
%TD*%
D10*
%TO.P,H3,1*%
%TO.N,N/C*%
X90000000Y-44000000D03*
%TD*%
D22*
%TO.P,C9,1*%
%TO.N,+3.3V*%
X102700000Y-70580000D03*
%TO.P,C9,2*%
%TO.N,GND*%
X102700000Y-71220000D03*
%TD*%
D39*
%TO.P,C21,1*%
%TO.N,RTD+*%
X116000000Y-61600000D03*
%TO.P,C21,2*%
%TO.N,RTD-*%
X116000000Y-60640000D03*
%TD*%
D40*
%TO.P,RV1,1,1*%
%TO.N,GND*%
X88600000Y-70150000D03*
D41*
%TO.P,RV1,2,2*%
%TO.N,Net-(LCD1-V0)*%
X89600000Y-66900000D03*
D40*
%TO.P,RV1,3,3*%
%TO.N,+5V*%
X90600000Y-70150000D03*
%TD*%
D15*
%TO.P,D2,1,K*%
%TO.N,GND*%
X89700000Y-63700000D03*
D16*
%TO.P,D2,2,A*%
%TO.N,Net-(D2-A)*%
X88700000Y-63700000D03*
%TD*%
D18*
%TO.P,R10,1*%
%TO.N,LED1*%
X90300000Y-59800000D03*
%TO.P,R10,2*%
%TO.N,Net-(D1-A)*%
X88650000Y-59800000D03*
%TD*%
D28*
%TO.P,R2,1*%
%TO.N,+3.3V*%
X104700000Y-55300000D03*
%TO.P,R2,2*%
%TO.N,Net-(U2-PG)*%
X104700000Y-56320000D03*
%TD*%
D22*
%TO.P,C19,1*%
%TO.N,+3.3V*%
X113600000Y-69125000D03*
%TO.P,C19,2*%
%TO.N,GND*%
X113600000Y-69765000D03*
%TD*%
D42*
%TO.P,U1,1,IOVDD*%
%TO.N,+3.3V*%
X98362500Y-62600000D03*
%TO.P,U1,2,GPIO0*%
%TO.N,LED1*%
X98362500Y-63000000D03*
%TO.P,U1,3,GPIO1*%
%TO.N,LED2*%
X98362500Y-63400000D03*
%TO.P,U1,4,GPIO2*%
%TO.N,RS*%
X98362500Y-63800000D03*
%TO.P,U1,5,GPIO3*%
%TO.N,R{slash}W*%
X98362500Y-64200000D03*
%TO.P,U1,6,GPIO4*%
%TO.N,E*%
X98362500Y-64600000D03*
%TO.P,U1,7,GPIO5*%
%TO.N,DB0*%
X98362500Y-65000000D03*
%TO.P,U1,8,GPIO6*%
%TO.N,DB1*%
X98362500Y-65400000D03*
%TO.P,U1,9,GPIO7*%
%TO.N,DB2*%
X98362500Y-65800000D03*
%TO.P,U1,10,IOVDD*%
%TO.N,+3.3V*%
X98362500Y-66200000D03*
%TO.P,U1,11,GPIO8*%
%TO.N,DB3*%
X98362500Y-66600000D03*
%TO.P,U1,12,GPIO9*%
%TO.N,DB4*%
X98362500Y-67000000D03*
%TO.P,U1,13,GPIO10*%
%TO.N,DB5*%
X98362500Y-67400000D03*
%TO.P,U1,14,GPIO11*%
%TO.N,DB6*%
X98362500Y-67800000D03*
D43*
%TO.P,U1,15,GPIO12*%
%TO.N,DB7*%
X99200000Y-68637500D03*
%TO.P,U1,16,GPIO13*%
%TO.N,unconnected-(U1-GPIO13-Pad16)*%
X99600000Y-68637500D03*
%TO.P,U1,17,GPIO14*%
%TO.N,unconnected-(U1-GPIO14-Pad17)*%
X100000000Y-68637500D03*
%TO.P,U1,18,GPIO15*%
%TO.N,unconnected-(U1-GPIO15-Pad18)*%
X100400000Y-68637500D03*
%TO.P,U1,19,TESTEN*%
%TO.N,GND*%
X100800000Y-68637500D03*
%TO.P,U1,20,XIN*%
%TO.N,XIN*%
X101200000Y-68637500D03*
%TO.P,U1,21,XOUT*%
%TO.N,XOUT*%
X101600000Y-68637500D03*
%TO.P,U1,22,IOVDD*%
%TO.N,+3.3V*%
X102000000Y-68637500D03*
%TO.P,U1,23,DVDD*%
%TO.N,+1V1*%
X102400000Y-68637500D03*
%TO.P,U1,24,SWCLK*%
%TO.N,Net-(J4-Pin_1)*%
X102800000Y-68637500D03*
%TO.P,U1,25,SWD*%
%TO.N,Net-(J4-Pin_3)*%
X103200000Y-68637500D03*
%TO.P,U1,26,RUN*%
%TO.N,unconnected-(U1-RUN-Pad26)*%
X103600000Y-68637500D03*
%TO.P,U1,27,GPIO16*%
%TO.N,unconnected-(U1-GPIO16-Pad27)*%
X104000000Y-68637500D03*
%TO.P,U1,28,GPIO17*%
%TO.N,unconnected-(U1-GPIO17-Pad28)*%
X104400000Y-68637500D03*
D42*
%TO.P,U1,29,GPIO18*%
%TO.N,Out_A*%
X105237500Y-67800000D03*
%TO.P,U1,30,GPIO19*%
%TO.N,Out_B*%
X105237500Y-67400000D03*
%TO.P,U1,31,GPIO20*%
%TO.N,Switch*%
X105237500Y-67000000D03*
%TO.P,U1,32,GPIO21*%
%TO.N,DRDY*%
X105237500Y-66600000D03*
%TO.P,U1,33,IOVDD*%
%TO.N,+3.3V*%
X105237500Y-66200000D03*
%TO.P,U1,34,GPIO22*%
%TO.N,unconnected-(U1-GPIO22-Pad34)*%
X105237500Y-65800000D03*
%TO.P,U1,35,GPIO23*%
%TO.N,unconnected-(U1-GPIO23-Pad35)*%
X105237500Y-65400000D03*
%TO.P,U1,36,GPIO24*%
%TO.N,SD0*%
X105237500Y-65000000D03*
%TO.P,U1,37,GPIO25*%
%TO.N,CS*%
X105237500Y-64600000D03*
%TO.P,U1,38,GPIO26_ADC0*%
%TO.N,SCLK*%
X105237500Y-64200000D03*
%TO.P,U1,39,GPIO27_ADC1*%
%TO.N,SDI*%
X105237500Y-63800000D03*
%TO.P,U1,40,GPIO28_ADC2*%
%TO.N,unconnected-(U1-GPIO28_ADC2-Pad40)*%
X105237500Y-63400000D03*
%TO.P,U1,41,GPIO29_ADC3*%
%TO.N,unconnected-(U1-GPIO29_ADC3-Pad41)*%
X105237500Y-63000000D03*
%TO.P,U1,42,IOVDD*%
%TO.N,+3.3V*%
X105237500Y-62600000D03*
D43*
%TO.P,U1,43,ADC_AVDD*%
X104400000Y-61762500D03*
%TO.P,U1,44,VREG_IN*%
X104000000Y-61762500D03*
%TO.P,U1,45,VREG_VOUT*%
%TO.N,+1V1*%
X103600000Y-61762500D03*
%TO.P,U1,46,USB_DM*%
%TO.N,Net-(U1-USB_DM)*%
X103200000Y-61762500D03*
%TO.P,U1,47,USB_DP*%
%TO.N,Net-(U1-USB_DP)*%
X102800000Y-61762500D03*
%TO.P,U1,48,USB_VDD*%
%TO.N,+3.3V*%
X102400000Y-61762500D03*
%TO.P,U1,49,IOVDD*%
X102000000Y-61762500D03*
%TO.P,U1,50,DVDD*%
%TO.N,+1V1*%
X101600000Y-61762500D03*
%TO.P,U1,51,QSPI_SD3*%
%TO.N,QSPI_SD3*%
X101200000Y-61762500D03*
%TO.P,U1,52,QSPI_SCLK*%
%TO.N,QSPI_SCLK*%
X100800000Y-61762500D03*
%TO.P,U1,53,QSPI_SD0*%
%TO.N,QSPI_SD0*%
X100400000Y-61762500D03*
%TO.P,U1,54,QSPI_SD2*%
%TO.N,QSPI_SD2*%
X100000000Y-61762500D03*
%TO.P,U1,55,QSPI_SD1*%
%TO.N,QSPI_SD1*%
X99600000Y-61762500D03*
%TO.P,U1,56,QSPI_SS*%
%TO.N,QSPI_SS*%
X99200000Y-61762500D03*
D44*
%TO.P,U1,57,GND*%
%TO.N,GND*%
X101800000Y-65200000D03*
%TD*%
D17*
%TO.P,C12,1*%
%TO.N,+3.3V*%
X96875000Y-62600000D03*
%TO.P,C12,2*%
%TO.N,GND*%
X96235000Y-62600000D03*
%TD*%
D45*
%TO.N,GND*%
X99100000Y-48400000D03*
X102000000Y-58000000D03*
X103100000Y-72100000D03*
X97600000Y-72800000D03*
X110800000Y-51700000D03*
X108400000Y-62000000D03*
X104800000Y-72900000D03*
X103600000Y-74600000D03*
X113300000Y-66500000D03*
X99700000Y-70200000D03*
X101000000Y-58000000D03*
X100700000Y-66300000D03*
X95500000Y-51900000D03*
X109300000Y-47700000D03*
X89000000Y-71500000D03*
X105600000Y-58200000D03*
X111100000Y-64300000D03*
X100400079Y-56879976D03*
X102900000Y-64100000D03*
X92600000Y-47300000D03*
X113900000Y-70600000D03*
X110500000Y-61900000D03*
X114600000Y-55100000D03*
X93600000Y-58800000D03*
X96226500Y-61500000D03*
X108600000Y-51900000D03*
X102650000Y-76050000D03*
X106300000Y-51173500D03*
X97000000Y-50600000D03*
X115300000Y-56600000D03*
X108000000Y-67500000D03*
X111100000Y-66500000D03*
X114600000Y-52100000D03*
X112210000Y-65400000D03*
X112400000Y-70600000D03*
X101800000Y-65200000D03*
X98700000Y-71500000D03*
X100700000Y-64100000D03*
X102900000Y-66300000D03*
X104700000Y-48200000D03*
X109100000Y-67500000D03*
X96073500Y-67400000D03*
X114400000Y-62226500D03*
X109300000Y-68800000D03*
X106600000Y-58200000D03*
X113300000Y-64300000D03*
X109005046Y-55720202D03*
X104600000Y-58200000D03*
D46*
%TO.N,+1V1*%
X103500000Y-70500000D03*
X101377708Y-60222292D03*
X101700000Y-67300000D03*
X102500000Y-62804132D03*
%TD*%
D47*
%TO.N,Net-(J1-Pin_2)*%
X115300000Y-55357423D02*
X115300000Y-54100000D01*
X116300000Y-54100000D02*
X115300000Y-54100000D01*
X113517000Y-55777000D02*
X114880423Y-55777000D01*
X114880423Y-55777000D02*
X115300000Y-55357423D01*
X115300000Y-54100000D02*
X113840000Y-54100000D01*
X119000000Y-53800000D02*
X116600000Y-53800000D01*
X116600000Y-53800000D02*
X116300000Y-54100000D01*
X113840000Y-54100000D02*
X113490000Y-54450000D01*
D48*
%TO.N,+3.3V*%
X99200000Y-67100000D02*
X99200000Y-66200000D01*
X96900000Y-60727000D02*
X91989448Y-60727000D01*
X104000000Y-67100000D02*
X103900000Y-67200000D01*
X99500000Y-62600000D02*
X101591737Y-62600000D01*
X102400000Y-59720000D02*
X102300000Y-59620000D01*
X98362500Y-66200000D02*
X98894975Y-66200000D01*
X104400000Y-61265000D02*
X104400000Y-61762500D01*
D47*
X114100000Y-67837500D02*
X113510000Y-67837500D01*
X106718000Y-59665000D02*
X106000000Y-59665000D01*
X93820000Y-52600000D02*
X93820000Y-51800000D01*
D48*
X102000000Y-68105025D02*
X102000000Y-68637500D01*
X104000000Y-62900000D02*
X104000000Y-61762500D01*
X104400000Y-62500000D02*
X104000000Y-62900000D01*
D47*
X106060000Y-54500000D02*
X105415000Y-54500000D01*
D48*
X102700000Y-70375555D02*
X102700000Y-70580000D01*
D47*
X114401040Y-74800000D02*
X117262500Y-71938540D01*
X105500000Y-54500000D02*
X106060000Y-54500000D01*
X115700000Y-67837500D02*
X114100000Y-67837500D01*
D48*
X96875000Y-62547552D02*
X96900000Y-62522552D01*
D47*
X105415000Y-54500000D02*
X104103000Y-55812000D01*
X104103000Y-56703000D02*
X104900000Y-57500000D01*
D48*
X96900000Y-62522552D02*
X96900000Y-60727000D01*
X102252513Y-67852513D02*
X99952513Y-67852513D01*
D47*
X106050000Y-52900000D02*
X106050000Y-54490000D01*
X108223000Y-57277000D02*
X108000000Y-57500000D01*
D48*
X105237500Y-62600000D02*
X104500000Y-62600000D01*
D47*
X117262500Y-67837500D02*
X119902000Y-65198000D01*
D48*
X91019000Y-53663055D02*
X91323000Y-53359055D01*
X96875000Y-66200000D02*
X98362500Y-66200000D01*
D47*
X106050000Y-54490000D02*
X106060000Y-54500000D01*
X113800000Y-74800000D02*
X114401040Y-74800000D01*
D48*
X103900000Y-67200000D02*
X102905025Y-67200000D01*
X104000000Y-61762500D02*
X104000000Y-60865000D01*
X106780000Y-66500000D02*
X106600000Y-66500000D01*
D47*
X97300000Y-52600000D02*
X93820000Y-52600000D01*
X94000000Y-51620000D02*
X93820000Y-51800000D01*
D48*
X106725000Y-62620000D02*
X105257500Y-62620000D01*
X113510000Y-69035000D02*
X113600000Y-69125000D01*
X102252513Y-67852513D02*
X102000000Y-68105025D01*
X98894975Y-66200000D02*
X99200000Y-66200000D01*
D47*
X119902000Y-57277000D02*
X108223000Y-57277000D01*
X94000000Y-51000000D02*
X94000000Y-51620000D01*
D48*
X102000000Y-59875000D02*
X102000000Y-61762500D01*
D47*
X119902000Y-65198000D02*
X119902000Y-57277000D01*
D48*
X102000000Y-62191737D02*
X102000000Y-61762500D01*
X106600000Y-66500000D02*
X106300000Y-66200000D01*
X104000000Y-66200000D02*
X104000000Y-67100000D01*
X99200000Y-62900000D02*
X99500000Y-62600000D01*
X91323000Y-53359055D02*
X91323000Y-52265055D01*
D47*
X108000000Y-58383000D02*
X106891500Y-59491500D01*
D48*
X99200000Y-66200000D02*
X99200000Y-62900000D01*
D47*
X108000000Y-58383000D02*
X108000000Y-57500000D01*
D48*
X91989448Y-60727000D02*
X91019000Y-59756552D01*
X106000000Y-59665000D02*
X104400000Y-61265000D01*
X91019000Y-59756552D02*
X91019000Y-53663055D01*
D47*
X106891500Y-59491500D02*
X106718000Y-59665000D01*
X106725000Y-59658000D02*
X106725000Y-62620000D01*
D48*
X101500000Y-59375000D02*
X102000000Y-59875000D01*
D47*
X106891500Y-59491500D02*
X106725000Y-59658000D01*
X117262500Y-71938540D02*
X117262500Y-67837500D01*
D48*
X104000000Y-60865000D02*
X105200000Y-59665000D01*
X104000000Y-65494975D02*
X104000000Y-66200000D01*
D47*
X114100000Y-67837500D02*
X112860000Y-67837500D01*
D48*
X105257500Y-62620000D02*
X105237500Y-62600000D01*
X102400000Y-61762500D02*
X102400000Y-61791737D01*
X105237500Y-66200000D02*
X104000000Y-66200000D01*
D47*
X117262500Y-67837500D02*
X115700000Y-67837500D01*
D48*
X102400000Y-61791737D02*
X102000000Y-62191737D01*
X112860000Y-69065000D02*
X112800000Y-69125000D01*
X102400000Y-61762500D02*
X102400000Y-59720000D01*
X104000000Y-62900000D02*
X104000000Y-65494975D01*
X104500000Y-62600000D02*
X104400000Y-62500000D01*
X101591737Y-62600000D02*
X102000000Y-62191737D01*
X92588055Y-51000000D02*
X94000000Y-51000000D01*
D47*
X104700000Y-55300000D02*
X105500000Y-54500000D01*
X98500000Y-54190000D02*
X98500000Y-53800000D01*
D48*
X102000000Y-69675555D02*
X102700000Y-70375555D01*
X104400000Y-61762500D02*
X104400000Y-62500000D01*
X113510000Y-67837500D02*
X113510000Y-69035000D01*
X102000000Y-68637500D02*
X102000000Y-69675555D01*
X99952513Y-67852513D02*
X99200000Y-67100000D01*
X96875000Y-62600000D02*
X96875000Y-62547552D01*
X91323000Y-52265055D02*
X92588055Y-51000000D01*
X98362500Y-62600000D02*
X99500000Y-62600000D01*
X102905025Y-67200000D02*
X102252513Y-67852513D01*
X112860000Y-67837500D02*
X112860000Y-69065000D01*
X106300000Y-66200000D02*
X105237500Y-66200000D01*
X96875000Y-62600000D02*
X98362500Y-62600000D01*
D47*
X98500000Y-53800000D02*
X97300000Y-52600000D01*
X104103000Y-55812000D02*
X104103000Y-56703000D01*
X104900000Y-57500000D02*
X108000000Y-57500000D01*
%TO.N,+5V*%
X109557423Y-49500000D02*
X107800000Y-49500000D01*
X93700000Y-63700000D02*
X93400000Y-63700000D01*
X88423000Y-65500000D02*
X91600000Y-65500000D01*
X105823000Y-47523000D02*
X104377000Y-47523000D01*
X103060000Y-51060000D02*
X103060000Y-50164000D01*
X111650000Y-52800000D02*
X111650000Y-51592577D01*
X111450000Y-54450000D02*
X111450000Y-53000000D01*
X111650000Y-51592577D02*
X109557423Y-49500000D01*
X100560000Y-50360000D02*
X100810000Y-50110000D01*
X111450000Y-53000000D02*
X111650000Y-52800000D01*
X100560000Y-51614000D02*
X100560000Y-51060000D01*
X93400000Y-76700000D02*
X92700000Y-76700000D01*
X109950000Y-54450000D02*
X109800000Y-54300000D01*
X108100000Y-54500000D02*
X109600000Y-54500000D01*
X109600000Y-54500000D02*
X109800000Y-54300000D01*
X100810000Y-50110000D02*
X100810000Y-49360000D01*
X87700000Y-50600000D02*
X88477000Y-49823000D01*
X94102000Y-61998000D02*
X94102000Y-63298000D01*
X103006000Y-50110000D02*
X103060000Y-50164000D01*
X87700000Y-59999580D02*
X87700000Y-50600000D01*
X93902000Y-61998000D02*
X94102000Y-61998000D01*
X109850000Y-54350000D02*
X109800000Y-54300000D01*
X89327000Y-60831420D02*
X89047580Y-60552000D01*
X107800000Y-49500000D02*
X105823000Y-47523000D01*
X88423000Y-68073000D02*
X88423000Y-65500000D01*
X100560000Y-51060000D02*
X100560000Y-50360000D01*
X103060000Y-50164000D02*
X103310000Y-49914000D01*
X88252420Y-60552000D02*
X87700000Y-59999580D01*
X93902000Y-61998000D02*
X93681000Y-61777000D01*
X103310000Y-49914000D02*
X103310000Y-49360000D01*
X89902420Y-62152000D02*
X89327000Y-61576580D01*
X109850000Y-55540000D02*
X109850000Y-54350000D01*
X92498000Y-72148000D02*
X88423000Y-68073000D01*
X93681000Y-61777000D02*
X91072580Y-61777000D01*
X88477000Y-49823000D02*
X94623000Y-49823000D01*
X92700000Y-76700000D02*
X92498000Y-76498000D01*
X89047580Y-60552000D02*
X88252420Y-60552000D01*
X90697580Y-62152000D02*
X89902420Y-62152000D01*
X94102000Y-63298000D02*
X93700000Y-63700000D01*
X91072580Y-61777000D02*
X90697580Y-62152000D01*
X91600000Y-65500000D02*
X93400000Y-63700000D01*
X94623000Y-49823000D02*
X96500000Y-51700000D01*
X103310000Y-48590000D02*
X103310000Y-49360000D01*
X100474000Y-51700000D02*
X100560000Y-51614000D01*
X89327000Y-61576580D02*
X89327000Y-60831420D01*
X100810000Y-50110000D02*
X103006000Y-50110000D01*
X104377000Y-47523000D02*
X103310000Y-48590000D01*
X111450000Y-54450000D02*
X109950000Y-54450000D01*
X92498000Y-76498000D02*
X92498000Y-72148000D01*
X96500000Y-51700000D02*
X100474000Y-51700000D01*
D48*
%TO.N,GND*%
X99060000Y-51060000D02*
X98797000Y-51323000D01*
X97700000Y-72900000D02*
X97700000Y-73980000D01*
X88600000Y-70250000D02*
X88500000Y-70150000D01*
X97600000Y-72800000D02*
X97700000Y-72900000D01*
X113664000Y-62962500D02*
X114400000Y-62226500D01*
X109947500Y-68800000D02*
X110910000Y-67837500D01*
X96235000Y-61508500D02*
X96226500Y-61500000D01*
X107420000Y-66920000D02*
X108000000Y-67500000D01*
X96235000Y-62600000D02*
X96235000Y-61508500D01*
X98797000Y-51323000D02*
X97723000Y-51323000D01*
X112800000Y-70200000D02*
X112400000Y-70600000D01*
X112800000Y-69765000D02*
X112800000Y-70200000D01*
D47*
X106000000Y-59025000D02*
X106000000Y-58800000D01*
D48*
X100800000Y-69107527D02*
X99707527Y-70200000D01*
X88600000Y-71100000D02*
X88600000Y-70250000D01*
X104810000Y-49360000D02*
X104810000Y-48310000D01*
X102700000Y-71700000D02*
X103100000Y-72100000D01*
D47*
X99400000Y-72200000D02*
X98700000Y-71500000D01*
D48*
X109200000Y-67200000D02*
X109100000Y-67300000D01*
X97723000Y-51323000D02*
X97000000Y-50600000D01*
X108300000Y-48750000D02*
X108300000Y-48700000D01*
X96235000Y-67238500D02*
X96235000Y-66200000D01*
X103200000Y-74200000D02*
X103600000Y-74600000D01*
X104020000Y-72120000D02*
X104800000Y-72900000D01*
X93600000Y-58800000D02*
X93600000Y-58700000D01*
X108300000Y-48700000D02*
X109300000Y-47700000D01*
X99310000Y-48610000D02*
X99100000Y-48400000D01*
X93500000Y-48200000D02*
X92600000Y-47300000D01*
X107600000Y-52900000D02*
X108600000Y-51900000D01*
X113200000Y-52800000D02*
X113900000Y-52800000D01*
X109300000Y-68800000D02*
X109947500Y-68800000D01*
X102700000Y-71220000D02*
X102700000Y-71700000D01*
X89000000Y-71500000D02*
X88600000Y-71100000D01*
X102300000Y-58980000D02*
X102300000Y-58300000D01*
X99707527Y-70200000D02*
X99700000Y-70200000D01*
X100400000Y-56880055D02*
X100400079Y-56879976D01*
X110910000Y-62962500D02*
X110910000Y-62310000D01*
X104810000Y-48310000D02*
X104700000Y-48200000D01*
D47*
X104400000Y-59025000D02*
X104400000Y-58400000D01*
D48*
X104000000Y-72120000D02*
X104020000Y-72120000D01*
X100800000Y-68637500D02*
X100800000Y-69107527D01*
D47*
X102650000Y-76050000D02*
X101600000Y-75000000D01*
D48*
X100400000Y-58735000D02*
X100400000Y-56880055D01*
X113600000Y-70300000D02*
X113600000Y-69765000D01*
X110910000Y-62310000D02*
X110500000Y-61900000D01*
D47*
X101600000Y-75000000D02*
X101600000Y-74600000D01*
X105200000Y-58600000D02*
X105600000Y-58200000D01*
X104400000Y-58400000D02*
X104600000Y-58200000D01*
D48*
X94640000Y-51000000D02*
X94640000Y-51040000D01*
X108434844Y-55150000D02*
X109005046Y-55720202D01*
X116250000Y-55650000D02*
X115300000Y-56600000D01*
D47*
X99400000Y-72900000D02*
X99400000Y-72200000D01*
D48*
X94640000Y-51040000D02*
X95500000Y-51900000D01*
D47*
X105200000Y-59025000D02*
X105200000Y-58600000D01*
D48*
X93600000Y-58700000D02*
X92900000Y-58000000D01*
X102300000Y-58300000D02*
X102000000Y-58000000D01*
X104560000Y-51060000D02*
X104673500Y-51173500D01*
X99310000Y-49360000D02*
X99310000Y-48610000D01*
X116300000Y-55650000D02*
X116250000Y-55650000D01*
X96073500Y-67400000D02*
X96235000Y-67238500D01*
X101500000Y-58735000D02*
X101500000Y-58500000D01*
X113900000Y-70600000D02*
X113600000Y-70300000D01*
X109800000Y-52750000D02*
X109800000Y-52700000D01*
X109772500Y-66700000D02*
X109700000Y-66700000D01*
X103200000Y-73565000D02*
X103200000Y-74200000D01*
X93550000Y-48200000D02*
X93500000Y-48200000D01*
X107780000Y-62620000D02*
X107365000Y-62620000D01*
X109700000Y-66700000D02*
X109200000Y-67200000D01*
X107420000Y-66500000D02*
X107420000Y-66920000D01*
X113900000Y-52800000D02*
X114600000Y-52100000D01*
D47*
X106000000Y-58800000D02*
X106600000Y-58200000D01*
D48*
X113490000Y-55100000D02*
X114600000Y-55100000D01*
X104673500Y-51173500D02*
X106300000Y-51173500D01*
X109800000Y-52700000D02*
X110800000Y-51700000D01*
X101500000Y-58500000D02*
X101000000Y-58000000D01*
X108400000Y-62000000D02*
X107780000Y-62620000D01*
X108100000Y-55150000D02*
X108434844Y-55150000D01*
X109100000Y-67300000D02*
X109100000Y-67500000D01*
%TO.N,Net-(D1-A)*%
X88700000Y-59750000D02*
X88700000Y-57600000D01*
X88650000Y-59800000D02*
X88700000Y-59750000D01*
%TO.N,Net-(D2-A)*%
X88650000Y-61400000D02*
X88700000Y-61450000D01*
X88700000Y-61450000D02*
X88700000Y-63700000D01*
D47*
%TO.N,Net-(U2-EN)*%
X108100000Y-55800000D02*
X108900000Y-56600000D01*
X110660000Y-55750000D02*
X109850000Y-56560000D01*
X109810000Y-56600000D02*
X109850000Y-56560000D01*
X108900000Y-56600000D02*
X109810000Y-56600000D01*
X111450000Y-55750000D02*
X110660000Y-55750000D01*
D48*
%TO.N,+1V1*%
X99973000Y-63373000D02*
X99800000Y-63546000D01*
X103500000Y-70980000D02*
X104000000Y-71480000D01*
X99800000Y-66900000D02*
X100200000Y-67300000D01*
X104400000Y-59665000D02*
X103600000Y-60465000D01*
X100400000Y-59500000D02*
X100400000Y-59375000D01*
X102500000Y-62804132D02*
X101931132Y-63373000D01*
X100200000Y-67300000D02*
X101700000Y-67300000D01*
X103500000Y-70500000D02*
X103500000Y-70980000D01*
X102500000Y-62804132D02*
X102987605Y-62804132D01*
X103600000Y-60465000D02*
X103600000Y-61762500D01*
X101931132Y-63373000D02*
X99973000Y-63373000D01*
X102400000Y-68637500D02*
X102400000Y-69400000D01*
X101600000Y-60444584D02*
X101600000Y-61762500D01*
X101377708Y-60222292D02*
X101600000Y-60444584D01*
X103600000Y-62191737D02*
X103600000Y-61762500D01*
X102987605Y-62804132D02*
X103600000Y-62191737D01*
X99800000Y-63546000D02*
X99800000Y-66900000D01*
X101377708Y-60222292D02*
X101122292Y-60222292D01*
X101122292Y-60222292D02*
X100400000Y-59500000D01*
X102400000Y-69400000D02*
X103500000Y-70500000D01*
%TO.N,QSPI_SS*%
X99200000Y-61400000D02*
X99200000Y-61762500D01*
X98200000Y-60400000D02*
X99200000Y-61400000D01*
X92800000Y-52600000D02*
X91820000Y-52600000D01*
X92800000Y-54090000D02*
X92900000Y-54190000D01*
X92134196Y-60400000D02*
X98200000Y-60400000D01*
X92800000Y-52600000D02*
X92800000Y-54090000D01*
X92900000Y-54190000D02*
X91346000Y-55744000D01*
X91346000Y-59611804D02*
X92134196Y-60400000D01*
X91346000Y-55744000D02*
X91346000Y-59611804D01*
%TO.N,Net-(R8-Pad2)*%
X88900000Y-52600000D02*
X90800000Y-52600000D01*
%TO.N,Net-(C18-Pad2)*%
X101625000Y-72925000D02*
X101600000Y-72900000D01*
X101592500Y-72892500D02*
X101600000Y-72900000D01*
X101592500Y-71120000D02*
X101592500Y-72892500D01*
X103200000Y-72925000D02*
X101625000Y-72925000D01*
%TO.N,XOUT*%
X101600000Y-68637500D02*
X101600000Y-70092500D01*
X101600000Y-70092500D02*
X101592500Y-70100000D01*
%TO.N,LED1*%
X95969552Y-63027000D02*
X98335500Y-63027000D01*
X90600000Y-59800000D02*
X91854000Y-61054000D01*
X95600000Y-61054000D02*
X95600000Y-62657448D01*
X98335500Y-63027000D02*
X98362500Y-63000000D01*
X91854000Y-61054000D02*
X95600000Y-61054000D01*
X90300000Y-59800000D02*
X90600000Y-59800000D01*
X95600000Y-62657448D02*
X95969552Y-63027000D01*
%TO.N,LED2*%
X95200000Y-61400000D02*
X95200000Y-62719896D01*
X95880104Y-63400000D02*
X98362500Y-63400000D01*
X90300000Y-61400000D02*
X95200000Y-61400000D01*
X95200000Y-62719896D02*
X95880104Y-63400000D01*
D47*
%TO.N,Net-(U5-BIAS)*%
X116700000Y-66700000D02*
X116800000Y-66600000D01*
X114647500Y-66700000D02*
X116700000Y-66700000D01*
X114647500Y-66050000D02*
X114647500Y-66700000D01*
%TO.N,Net-(U5-ISENSOR)*%
X114647500Y-65400000D02*
X114647500Y-64750000D01*
X116775000Y-64750000D02*
X116800000Y-64775000D01*
X114647500Y-64750000D02*
X116775000Y-64750000D01*
D48*
%TO.N,Switch*%
X106037552Y-67000000D02*
X111937552Y-72900000D01*
X111937552Y-72900000D02*
X112000000Y-72900000D01*
X112000000Y-72900000D02*
X112000000Y-74000000D01*
X105237500Y-67000000D02*
X106037552Y-67000000D01*
X112000000Y-74000000D02*
X113800000Y-75800000D01*
%TO.N,Out_B*%
X111673000Y-73406263D02*
X111673000Y-74673000D01*
X105666737Y-67400000D02*
X111673000Y-73406263D01*
X105237500Y-67400000D02*
X105666737Y-67400000D01*
X111673000Y-74673000D02*
X113800000Y-76800000D01*
%TO.N,Out_A*%
X113800000Y-77800000D02*
X105237500Y-69237500D01*
X105237500Y-69237500D02*
X105237500Y-67800000D01*
D47*
%TO.N,USB_DP*%
X101660000Y-53200000D02*
X101760000Y-53200000D01*
X101610000Y-52450000D02*
X101610000Y-52300000D01*
X102060000Y-54840000D02*
X102060000Y-54700000D01*
X101760000Y-53800000D02*
X101660000Y-53800000D01*
X102760000Y-53800000D02*
X101760000Y-53800000D01*
X102060000Y-51850000D02*
X102060000Y-51700000D01*
X102360000Y-54400000D02*
X102760000Y-54400000D01*
X102060000Y-51700000D02*
X102060000Y-51060000D01*
X101700000Y-55200000D02*
X102060000Y-54840000D01*
X102760000Y-54400000D02*
G75*
G03*
X103060000Y-54100000I0J300000D01*
G01*
X102360000Y-54400000D02*
G75*
G03*
X102060000Y-54700000I0J-300000D01*
G01*
X101360000Y-53500000D02*
G75*
G03*
X101660000Y-53800000I300000J0D01*
G01*
X101760000Y-53200000D02*
G75*
G03*
X102060000Y-52900000I0J300000D01*
G01*
X101835000Y-52075000D02*
G75*
G03*
X101610000Y-52300000I0J-225000D01*
G01*
X101610000Y-52450000D02*
G75*
G03*
X101835000Y-52675000I225000J0D01*
G01*
X102060000Y-52900000D02*
G75*
G03*
X101835000Y-52675000I-225000J0D01*
G01*
X101835000Y-52075000D02*
G75*
G03*
X102060000Y-51850000I0J225000D01*
G01*
X101660000Y-53200000D02*
G75*
G03*
X101360000Y-53500000I0J-300000D01*
G01*
X103060000Y-54100000D02*
G75*
G03*
X102760000Y-53800000I-300000J0D01*
G01*
%TO.N,USB_DM*%
X101227420Y-55877000D02*
X102623000Y-55877000D01*
X101560000Y-51060000D02*
X101560000Y-51614000D01*
X100900000Y-55549580D02*
X101227420Y-55877000D01*
X101560000Y-51614000D02*
X100900000Y-52274000D01*
X100900000Y-52274000D02*
X100900000Y-55549580D01*
X102623000Y-55877000D02*
X103300000Y-55200000D01*
D48*
%TO.N,Net-(J4-Pin_1)*%
X103829000Y-69629000D02*
X107800000Y-73600000D01*
X107800000Y-73600000D02*
X107800000Y-77500000D01*
X102800000Y-69262448D02*
X103166552Y-69629000D01*
X103166552Y-69629000D02*
X103829000Y-69629000D01*
X102800000Y-68637500D02*
X102800000Y-69262448D01*
%TO.N,Net-(J4-Pin_3)*%
X103200000Y-69200000D02*
X103200000Y-68637500D01*
X109800000Y-77500000D02*
X109800000Y-75081486D01*
X104020514Y-69302000D02*
X103302000Y-69302000D01*
X103302000Y-69302000D02*
X103200000Y-69200000D01*
X109800000Y-75081486D02*
X104020514Y-69302000D01*
%TO.N,Net-(LCD1-V0)*%
X89600000Y-66800000D02*
X91300000Y-66800000D01*
X91300000Y-66800000D02*
X93400000Y-64700000D01*
%TO.N,RS*%
X93400000Y-65622068D02*
X93400000Y-65700000D01*
X98362500Y-63800000D02*
X95200000Y-63800000D01*
X95200000Y-63800000D02*
X95200000Y-63822068D01*
X95200000Y-63822068D02*
X93400000Y-65622068D01*
%TO.N,R{slash}W*%
X94052000Y-66048000D02*
X93400000Y-66700000D01*
X95300000Y-64200000D02*
X94052000Y-65448000D01*
X98362500Y-64200000D02*
X95300000Y-64200000D01*
X94052000Y-65448000D02*
X94052000Y-66048000D01*
%TO.N,E*%
X95362448Y-64600000D02*
X94400000Y-65562448D01*
X94400000Y-65562448D02*
X94400000Y-66700000D01*
X94400000Y-66700000D02*
X93400000Y-67700000D01*
X98362500Y-64600000D02*
X95362448Y-64600000D01*
%TO.N,DB0*%
X94746000Y-67354000D02*
X93400000Y-68700000D01*
X98362500Y-65000000D02*
X95424896Y-65000000D01*
X95424896Y-65000000D02*
X94746000Y-65678896D01*
X94746000Y-65678896D02*
X94746000Y-67354000D01*
%TO.N,DB1*%
X95073000Y-68027000D02*
X93400000Y-69700000D01*
X95073000Y-65814344D02*
X95073000Y-68027000D01*
X98362500Y-65400000D02*
X95487344Y-65400000D01*
X95487344Y-65400000D02*
X95073000Y-65814344D01*
%TO.N,DB2*%
X98362500Y-65800000D02*
X98335500Y-65773000D01*
X95400000Y-66000000D02*
X95400000Y-68700000D01*
X95400000Y-68700000D02*
X93400000Y-70700000D01*
X98335500Y-65773000D02*
X95627000Y-65773000D01*
X95627000Y-65773000D02*
X95400000Y-66000000D01*
%TO.N,DB3*%
X98335500Y-66627000D02*
X96973000Y-66627000D01*
X96700000Y-68400000D02*
X93400000Y-71700000D01*
X96700000Y-66900000D02*
X96700000Y-68400000D01*
X98362500Y-66600000D02*
X98335500Y-66627000D01*
X96973000Y-66627000D02*
X96700000Y-66900000D01*
%TO.N,XIN*%
X99500000Y-74600000D02*
X100600000Y-73500000D01*
X99400000Y-74600000D02*
X99500000Y-74600000D01*
X100600000Y-69769975D02*
X101200000Y-69169975D01*
X97700000Y-74620000D02*
X99380000Y-74620000D01*
X101200000Y-69169975D02*
X101200000Y-68637500D01*
X100600000Y-73500000D02*
X100600000Y-69769975D01*
X99380000Y-74620000D02*
X99400000Y-74600000D01*
%TO.N,DB4*%
X97031224Y-67031224D02*
X97031224Y-69068776D01*
X97062448Y-67000000D02*
X97031224Y-67031224D01*
X98362500Y-67000000D02*
X97062448Y-67000000D01*
X97031224Y-69068776D02*
X93400000Y-72700000D01*
%TO.N,DB5*%
X97900000Y-67400000D02*
X97358224Y-67941776D01*
X97358224Y-69741776D02*
X93400000Y-73700000D01*
X98362500Y-67400000D02*
X97900000Y-67400000D01*
X97358224Y-67941776D02*
X97358224Y-69741776D01*
%TO.N,DB6*%
X98362500Y-69737500D02*
X93400000Y-74700000D01*
X98362500Y-67800000D02*
X98362500Y-69737500D01*
%TO.N,DB7*%
X93400000Y-75622068D02*
X93400000Y-75700000D01*
X99200000Y-68637500D02*
X99200000Y-69822068D01*
X99200000Y-69822068D02*
X93400000Y-75622068D01*
%TO.N,Net-(P1-CC2)*%
X101310000Y-48710000D02*
X100373000Y-47773000D01*
X100373000Y-47773000D02*
X95627000Y-47773000D01*
X95627000Y-47773000D02*
X95200000Y-48200000D01*
X101310000Y-48710000D02*
X101310000Y-49360000D01*
%TO.N,Net-(P1-CC1)*%
X102560000Y-51060000D02*
X102560000Y-51610000D01*
X102560000Y-51610000D02*
X102750500Y-51800500D01*
X102750500Y-51800500D02*
X106899500Y-51800500D01*
X106899500Y-51800500D02*
X108300000Y-50400000D01*
%TO.N,Net-(U1-USB_DM)*%
X103200000Y-56950000D02*
X103300000Y-56850000D01*
X103200000Y-61762500D02*
X103200000Y-56950000D01*
%TO.N,Net-(U1-USB_DP)*%
X101700000Y-56850000D02*
X101736712Y-56850000D01*
X102800000Y-57913288D02*
X102800000Y-61762500D01*
X101736712Y-56850000D02*
X102800000Y-57913288D01*
%TO.N,QSPI_SD3*%
X99773079Y-56733079D02*
X98500000Y-55460000D01*
X101200000Y-61762500D02*
X101200000Y-60902448D01*
X99900000Y-59602448D02*
X99900000Y-57266609D01*
X99773079Y-57139688D02*
X99773079Y-56733079D01*
X99900000Y-57266609D02*
X99773079Y-57139688D01*
X101200000Y-60902448D02*
X99900000Y-59602448D01*
%TO.N,QSPI_SCLK*%
X100800000Y-60964896D02*
X100800000Y-61762500D01*
X99473000Y-59637896D02*
X100800000Y-60964896D01*
X99473000Y-57703000D02*
X99473000Y-59637896D01*
X98500000Y-56730000D02*
X99473000Y-57703000D01*
%TO.N,QSPI_SD0*%
X98500000Y-58000000D02*
X98500000Y-59127344D01*
X98500000Y-59127344D02*
X100400000Y-61027344D01*
X100400000Y-61027344D02*
X100400000Y-61762500D01*
%TO.N,QSPI_SD2*%
X92000000Y-59168356D02*
X92456884Y-59625240D01*
X92000000Y-57630000D02*
X92000000Y-59168356D01*
X100000000Y-61089792D02*
X100000000Y-61762500D01*
X98535448Y-59625240D02*
X100000000Y-61089792D01*
X92456884Y-59625240D02*
X98535448Y-59625240D01*
X92900000Y-56730000D02*
X92000000Y-57630000D01*
%TO.N,QSPI_SD1*%
X92148884Y-59952240D02*
X91673000Y-59476356D01*
X91673000Y-56687000D02*
X92900000Y-55460000D01*
X91673000Y-59476356D02*
X91673000Y-56687000D01*
X98400000Y-59952240D02*
X92148884Y-59952240D01*
X99600000Y-61762500D02*
X99600000Y-61152240D01*
X99600000Y-61152240D02*
X98400000Y-59952240D01*
D47*
%TO.N,RTD+*%
X114647500Y-62952500D02*
X116000000Y-61600000D01*
X114062197Y-61500000D02*
X115900000Y-61500000D01*
X112860000Y-62962500D02*
X112860000Y-62702197D01*
X114647500Y-64100000D02*
X114647500Y-62952500D01*
X112860000Y-62702197D02*
X114062197Y-61500000D01*
X118375000Y-61600000D02*
X118775000Y-62000000D01*
X116000000Y-61600000D02*
X118375000Y-61600000D01*
X115900000Y-61500000D02*
X116000000Y-61600000D01*
%TO.N,RTD-*%
X115640000Y-61000000D02*
X116000000Y-60640000D01*
X115800000Y-60200000D02*
X116000000Y-60400000D01*
X113900000Y-61000000D02*
X115640000Y-61000000D01*
X116000000Y-60640000D02*
X116535000Y-60640000D01*
X113800000Y-60200000D02*
X115800000Y-60200000D01*
X116535000Y-60640000D02*
X118775000Y-58400000D01*
X112210000Y-62962500D02*
X112210000Y-62690000D01*
X111560000Y-62440000D02*
X113800000Y-60200000D01*
X111560000Y-62962500D02*
X111560000Y-62440000D01*
X112210000Y-62690000D02*
X113900000Y-61000000D01*
X116000000Y-60400000D02*
X116000000Y-60640000D01*
%TO.N,Net-(U2-PG)*%
X104700000Y-56320000D02*
X105540000Y-56320000D01*
X105540000Y-56320000D02*
X106060000Y-55800000D01*
D48*
%TO.N,DRDY*%
X105237500Y-66600000D02*
X106100000Y-66600000D01*
X109400000Y-69900000D02*
X111700000Y-69900000D01*
X111700000Y-69900000D02*
X112210000Y-69390000D01*
X106100000Y-66600000D02*
X109400000Y-69900000D01*
X112210000Y-69390000D02*
X112210000Y-67837500D01*
%TO.N,SDI*%
X109772500Y-64100000D02*
X107400000Y-64100000D01*
X107100000Y-63800000D02*
X105237500Y-63800000D01*
X107400000Y-64100000D02*
X107100000Y-63800000D01*
%TO.N,SCLK*%
X106600000Y-64200000D02*
X105237500Y-64200000D01*
X109772500Y-64750000D02*
X107150000Y-64750000D01*
X107150000Y-64750000D02*
X106600000Y-64200000D01*
%TO.N,CS*%
X106200000Y-64600000D02*
X107000000Y-65400000D01*
X107000000Y-65400000D02*
X109772500Y-65400000D01*
X105237500Y-64600000D02*
X106200000Y-64600000D01*
%TO.N,SD0*%
X109772500Y-66050000D02*
X107022448Y-66050000D01*
X107022448Y-66050000D02*
X105972448Y-65000000D01*
X105972448Y-65000000D02*
X105237500Y-65000000D01*
%TD*%
M02*
