%TF.GenerationSoftware,KiCad,Pcbnew,7.0.1*%
%TF.CreationDate,2024-01-29T14:24:06+02:00*%
%TF.ProjectId,Temp_meter_1.1,54656d70-5f6d-4657-9465-725f312e312e,rev?*%
%TF.SameCoordinates,Original*%
%TF.FileFunction,Legend,Top*%
%TF.FilePolarity,Positive*%
%FSLAX46Y46*%
G04 Gerber Fmt 4.6, Leading zero omitted, Abs format (unit mm)*
G04 Created by KiCad (PCBNEW 7.0.1) date 2024-01-29 14:24:06*
%MOMM*%
%LPD*%
G01*
G04 APERTURE LIST*
%ADD10C,0.150000*%
%ADD11C,0.120000*%
%ADD12C,0.127000*%
%ADD13C,0.250000*%
%ADD14C,0.200000*%
G04 APERTURE END LIST*
D10*
X118385714Y-52577619D02*
X118576190Y-52577619D01*
X118576190Y-52577619D02*
X118671428Y-52530000D01*
X118671428Y-52530000D02*
X118719047Y-52482380D01*
X118719047Y-52482380D02*
X118814285Y-52339523D01*
X118814285Y-52339523D02*
X118861904Y-52149047D01*
X118861904Y-52149047D02*
X118861904Y-51768095D01*
X118861904Y-51768095D02*
X118814285Y-51672857D01*
X118814285Y-51672857D02*
X118766666Y-51625238D01*
X118766666Y-51625238D02*
X118671428Y-51577619D01*
X118671428Y-51577619D02*
X118480952Y-51577619D01*
X118480952Y-51577619D02*
X118385714Y-51625238D01*
X118385714Y-51625238D02*
X118338095Y-51672857D01*
X118338095Y-51672857D02*
X118290476Y-51768095D01*
X118290476Y-51768095D02*
X118290476Y-52006190D01*
X118290476Y-52006190D02*
X118338095Y-52101428D01*
X118338095Y-52101428D02*
X118385714Y-52149047D01*
X118385714Y-52149047D02*
X118480952Y-52196666D01*
X118480952Y-52196666D02*
X118671428Y-52196666D01*
X118671428Y-52196666D02*
X118766666Y-52149047D01*
X118766666Y-52149047D02*
X118814285Y-52101428D01*
X118814285Y-52101428D02*
X118861904Y-52006190D01*
X119147619Y-51577619D02*
X119480952Y-52577619D01*
X119480952Y-52577619D02*
X119814285Y-51577619D01*
X118309523Y-60677619D02*
X117976190Y-60201428D01*
X117738095Y-60677619D02*
X117738095Y-59677619D01*
X117738095Y-59677619D02*
X118119047Y-59677619D01*
X118119047Y-59677619D02*
X118214285Y-59725238D01*
X118214285Y-59725238D02*
X118261904Y-59772857D01*
X118261904Y-59772857D02*
X118309523Y-59868095D01*
X118309523Y-59868095D02*
X118309523Y-60010952D01*
X118309523Y-60010952D02*
X118261904Y-60106190D01*
X118261904Y-60106190D02*
X118214285Y-60153809D01*
X118214285Y-60153809D02*
X118119047Y-60201428D01*
X118119047Y-60201428D02*
X117738095Y-60201428D01*
X118595238Y-59677619D02*
X119166666Y-59677619D01*
X118880952Y-60677619D02*
X118880952Y-59677619D01*
X119500000Y-60677619D02*
X119500000Y-59677619D01*
X119500000Y-59677619D02*
X119738095Y-59677619D01*
X119738095Y-59677619D02*
X119880952Y-59725238D01*
X119880952Y-59725238D02*
X119976190Y-59820476D01*
X119976190Y-59820476D02*
X120023809Y-59915714D01*
X120023809Y-59915714D02*
X120071428Y-60106190D01*
X120071428Y-60106190D02*
X120071428Y-60249047D01*
X120071428Y-60249047D02*
X120023809Y-60439523D01*
X120023809Y-60439523D02*
X119976190Y-60534761D01*
X119976190Y-60534761D02*
X119880952Y-60630000D01*
X119880952Y-60630000D02*
X119738095Y-60677619D01*
X119738095Y-60677619D02*
X119500000Y-60677619D01*
%TO.C,C3*%
X104593333Y-53135123D02*
X104562857Y-53165600D01*
X104562857Y-53165600D02*
X104471428Y-53196076D01*
X104471428Y-53196076D02*
X104410476Y-53196076D01*
X104410476Y-53196076D02*
X104319047Y-53165600D01*
X104319047Y-53165600D02*
X104258095Y-53104647D01*
X104258095Y-53104647D02*
X104227618Y-53043695D01*
X104227618Y-53043695D02*
X104197142Y-52921790D01*
X104197142Y-52921790D02*
X104197142Y-52830361D01*
X104197142Y-52830361D02*
X104227618Y-52708457D01*
X104227618Y-52708457D02*
X104258095Y-52647504D01*
X104258095Y-52647504D02*
X104319047Y-52586552D01*
X104319047Y-52586552D02*
X104410476Y-52556076D01*
X104410476Y-52556076D02*
X104471428Y-52556076D01*
X104471428Y-52556076D02*
X104562857Y-52586552D01*
X104562857Y-52586552D02*
X104593333Y-52617028D01*
X104806666Y-52556076D02*
X105202857Y-52556076D01*
X105202857Y-52556076D02*
X104989523Y-52799885D01*
X104989523Y-52799885D02*
X105080952Y-52799885D01*
X105080952Y-52799885D02*
X105141904Y-52830361D01*
X105141904Y-52830361D02*
X105172380Y-52860838D01*
X105172380Y-52860838D02*
X105202857Y-52921790D01*
X105202857Y-52921790D02*
X105202857Y-53074171D01*
X105202857Y-53074171D02*
X105172380Y-53135123D01*
X105172380Y-53135123D02*
X105141904Y-53165600D01*
X105141904Y-53165600D02*
X105080952Y-53196076D01*
X105080952Y-53196076D02*
X104898095Y-53196076D01*
X104898095Y-53196076D02*
X104837142Y-53165600D01*
X104837142Y-53165600D02*
X104806666Y-53135123D01*
%TO.C,C7*%
X99293333Y-59235123D02*
X99262857Y-59265600D01*
X99262857Y-59265600D02*
X99171428Y-59296076D01*
X99171428Y-59296076D02*
X99110476Y-59296076D01*
X99110476Y-59296076D02*
X99019047Y-59265600D01*
X99019047Y-59265600D02*
X98958095Y-59204647D01*
X98958095Y-59204647D02*
X98927618Y-59143695D01*
X98927618Y-59143695D02*
X98897142Y-59021790D01*
X98897142Y-59021790D02*
X98897142Y-58930361D01*
X98897142Y-58930361D02*
X98927618Y-58808457D01*
X98927618Y-58808457D02*
X98958095Y-58747504D01*
X98958095Y-58747504D02*
X99019047Y-58686552D01*
X99019047Y-58686552D02*
X99110476Y-58656076D01*
X99110476Y-58656076D02*
X99171428Y-58656076D01*
X99171428Y-58656076D02*
X99262857Y-58686552D01*
X99262857Y-58686552D02*
X99293333Y-58717028D01*
X99506666Y-58656076D02*
X99933333Y-58656076D01*
X99933333Y-58656076D02*
X99659047Y-59296076D01*
%TO.C,R5*%
X101593333Y-54396076D02*
X101379999Y-54091314D01*
X101227618Y-54396076D02*
X101227618Y-53756076D01*
X101227618Y-53756076D02*
X101471428Y-53756076D01*
X101471428Y-53756076D02*
X101532380Y-53786552D01*
X101532380Y-53786552D02*
X101562857Y-53817028D01*
X101562857Y-53817028D02*
X101593333Y-53877980D01*
X101593333Y-53877980D02*
X101593333Y-53969409D01*
X101593333Y-53969409D02*
X101562857Y-54030361D01*
X101562857Y-54030361D02*
X101532380Y-54060838D01*
X101532380Y-54060838D02*
X101471428Y-54091314D01*
X101471428Y-54091314D02*
X101227618Y-54091314D01*
X102172380Y-53756076D02*
X101867618Y-53756076D01*
X101867618Y-53756076D02*
X101837142Y-54060838D01*
X101837142Y-54060838D02*
X101867618Y-54030361D01*
X101867618Y-54030361D02*
X101928571Y-53999885D01*
X101928571Y-53999885D02*
X102080952Y-53999885D01*
X102080952Y-53999885D02*
X102141904Y-54030361D01*
X102141904Y-54030361D02*
X102172380Y-54060838D01*
X102172380Y-54060838D02*
X102202857Y-54121790D01*
X102202857Y-54121790D02*
X102202857Y-54274171D01*
X102202857Y-54274171D02*
X102172380Y-54335123D01*
X102172380Y-54335123D02*
X102141904Y-54365600D01*
X102141904Y-54365600D02*
X102080952Y-54396076D01*
X102080952Y-54396076D02*
X101928571Y-54396076D01*
X101928571Y-54396076D02*
X101867618Y-54365600D01*
X101867618Y-54365600D02*
X101837142Y-54335123D01*
%TO.C,R9*%
X99933333Y-71562619D02*
X99600000Y-71086428D01*
X99361905Y-71562619D02*
X99361905Y-70562619D01*
X99361905Y-70562619D02*
X99742857Y-70562619D01*
X99742857Y-70562619D02*
X99838095Y-70610238D01*
X99838095Y-70610238D02*
X99885714Y-70657857D01*
X99885714Y-70657857D02*
X99933333Y-70753095D01*
X99933333Y-70753095D02*
X99933333Y-70895952D01*
X99933333Y-70895952D02*
X99885714Y-70991190D01*
X99885714Y-70991190D02*
X99838095Y-71038809D01*
X99838095Y-71038809D02*
X99742857Y-71086428D01*
X99742857Y-71086428D02*
X99361905Y-71086428D01*
X100409524Y-71562619D02*
X100600000Y-71562619D01*
X100600000Y-71562619D02*
X100695238Y-71515000D01*
X100695238Y-71515000D02*
X100742857Y-71467380D01*
X100742857Y-71467380D02*
X100838095Y-71324523D01*
X100838095Y-71324523D02*
X100885714Y-71134047D01*
X100885714Y-71134047D02*
X100885714Y-70753095D01*
X100885714Y-70753095D02*
X100838095Y-70657857D01*
X100838095Y-70657857D02*
X100790476Y-70610238D01*
X100790476Y-70610238D02*
X100695238Y-70562619D01*
X100695238Y-70562619D02*
X100504762Y-70562619D01*
X100504762Y-70562619D02*
X100409524Y-70610238D01*
X100409524Y-70610238D02*
X100361905Y-70657857D01*
X100361905Y-70657857D02*
X100314286Y-70753095D01*
X100314286Y-70753095D02*
X100314286Y-70991190D01*
X100314286Y-70991190D02*
X100361905Y-71086428D01*
X100361905Y-71086428D02*
X100409524Y-71134047D01*
X100409524Y-71134047D02*
X100504762Y-71181666D01*
X100504762Y-71181666D02*
X100695238Y-71181666D01*
X100695238Y-71181666D02*
X100790476Y-71134047D01*
X100790476Y-71134047D02*
X100838095Y-71086428D01*
X100838095Y-71086428D02*
X100885714Y-70991190D01*
%TO.C,J2*%
X113466666Y-71562619D02*
X113466666Y-72276904D01*
X113466666Y-72276904D02*
X113419047Y-72419761D01*
X113419047Y-72419761D02*
X113323809Y-72515000D01*
X113323809Y-72515000D02*
X113180952Y-72562619D01*
X113180952Y-72562619D02*
X113085714Y-72562619D01*
X113895238Y-71657857D02*
X113942857Y-71610238D01*
X113942857Y-71610238D02*
X114038095Y-71562619D01*
X114038095Y-71562619D02*
X114276190Y-71562619D01*
X114276190Y-71562619D02*
X114371428Y-71610238D01*
X114371428Y-71610238D02*
X114419047Y-71657857D01*
X114419047Y-71657857D02*
X114466666Y-71753095D01*
X114466666Y-71753095D02*
X114466666Y-71848333D01*
X114466666Y-71848333D02*
X114419047Y-71991190D01*
X114419047Y-71991190D02*
X113847619Y-72562619D01*
X113847619Y-72562619D02*
X114466666Y-72562619D01*
%TO.C,C5*%
X104093333Y-60835123D02*
X104062857Y-60865600D01*
X104062857Y-60865600D02*
X103971428Y-60896076D01*
X103971428Y-60896076D02*
X103910476Y-60896076D01*
X103910476Y-60896076D02*
X103819047Y-60865600D01*
X103819047Y-60865600D02*
X103758095Y-60804647D01*
X103758095Y-60804647D02*
X103727618Y-60743695D01*
X103727618Y-60743695D02*
X103697142Y-60621790D01*
X103697142Y-60621790D02*
X103697142Y-60530361D01*
X103697142Y-60530361D02*
X103727618Y-60408457D01*
X103727618Y-60408457D02*
X103758095Y-60347504D01*
X103758095Y-60347504D02*
X103819047Y-60286552D01*
X103819047Y-60286552D02*
X103910476Y-60256076D01*
X103910476Y-60256076D02*
X103971428Y-60256076D01*
X103971428Y-60256076D02*
X104062857Y-60286552D01*
X104062857Y-60286552D02*
X104093333Y-60317028D01*
X104672380Y-60256076D02*
X104367618Y-60256076D01*
X104367618Y-60256076D02*
X104337142Y-60560838D01*
X104337142Y-60560838D02*
X104367618Y-60530361D01*
X104367618Y-60530361D02*
X104428571Y-60499885D01*
X104428571Y-60499885D02*
X104580952Y-60499885D01*
X104580952Y-60499885D02*
X104641904Y-60530361D01*
X104641904Y-60530361D02*
X104672380Y-60560838D01*
X104672380Y-60560838D02*
X104702857Y-60621790D01*
X104702857Y-60621790D02*
X104702857Y-60774171D01*
X104702857Y-60774171D02*
X104672380Y-60835123D01*
X104672380Y-60835123D02*
X104641904Y-60865600D01*
X104641904Y-60865600D02*
X104580952Y-60896076D01*
X104580952Y-60896076D02*
X104428571Y-60896076D01*
X104428571Y-60896076D02*
X104367618Y-60865600D01*
X104367618Y-60865600D02*
X104337142Y-60835123D01*
%TO.C,C2*%
X112258333Y-51737380D02*
X112210714Y-51785000D01*
X112210714Y-51785000D02*
X112067857Y-51832619D01*
X112067857Y-51832619D02*
X111972619Y-51832619D01*
X111972619Y-51832619D02*
X111829762Y-51785000D01*
X111829762Y-51785000D02*
X111734524Y-51689761D01*
X111734524Y-51689761D02*
X111686905Y-51594523D01*
X111686905Y-51594523D02*
X111639286Y-51404047D01*
X111639286Y-51404047D02*
X111639286Y-51261190D01*
X111639286Y-51261190D02*
X111686905Y-51070714D01*
X111686905Y-51070714D02*
X111734524Y-50975476D01*
X111734524Y-50975476D02*
X111829762Y-50880238D01*
X111829762Y-50880238D02*
X111972619Y-50832619D01*
X111972619Y-50832619D02*
X112067857Y-50832619D01*
X112067857Y-50832619D02*
X112210714Y-50880238D01*
X112210714Y-50880238D02*
X112258333Y-50927857D01*
X112639286Y-50927857D02*
X112686905Y-50880238D01*
X112686905Y-50880238D02*
X112782143Y-50832619D01*
X112782143Y-50832619D02*
X113020238Y-50832619D01*
X113020238Y-50832619D02*
X113115476Y-50880238D01*
X113115476Y-50880238D02*
X113163095Y-50927857D01*
X113163095Y-50927857D02*
X113210714Y-51023095D01*
X113210714Y-51023095D02*
X113210714Y-51118333D01*
X113210714Y-51118333D02*
X113163095Y-51261190D01*
X113163095Y-51261190D02*
X112591667Y-51832619D01*
X112591667Y-51832619D02*
X113210714Y-51832619D01*
%TO.C,C8*%
X96433333Y-65667380D02*
X96385714Y-65715000D01*
X96385714Y-65715000D02*
X96242857Y-65762619D01*
X96242857Y-65762619D02*
X96147619Y-65762619D01*
X96147619Y-65762619D02*
X96004762Y-65715000D01*
X96004762Y-65715000D02*
X95909524Y-65619761D01*
X95909524Y-65619761D02*
X95861905Y-65524523D01*
X95861905Y-65524523D02*
X95814286Y-65334047D01*
X95814286Y-65334047D02*
X95814286Y-65191190D01*
X95814286Y-65191190D02*
X95861905Y-65000714D01*
X95861905Y-65000714D02*
X95909524Y-64905476D01*
X95909524Y-64905476D02*
X96004762Y-64810238D01*
X96004762Y-64810238D02*
X96147619Y-64762619D01*
X96147619Y-64762619D02*
X96242857Y-64762619D01*
X96242857Y-64762619D02*
X96385714Y-64810238D01*
X96385714Y-64810238D02*
X96433333Y-64857857D01*
X97004762Y-65191190D02*
X96909524Y-65143571D01*
X96909524Y-65143571D02*
X96861905Y-65095952D01*
X96861905Y-65095952D02*
X96814286Y-65000714D01*
X96814286Y-65000714D02*
X96814286Y-64953095D01*
X96814286Y-64953095D02*
X96861905Y-64857857D01*
X96861905Y-64857857D02*
X96909524Y-64810238D01*
X96909524Y-64810238D02*
X97004762Y-64762619D01*
X97004762Y-64762619D02*
X97195238Y-64762619D01*
X97195238Y-64762619D02*
X97290476Y-64810238D01*
X97290476Y-64810238D02*
X97338095Y-64857857D01*
X97338095Y-64857857D02*
X97385714Y-64953095D01*
X97385714Y-64953095D02*
X97385714Y-65000714D01*
X97385714Y-65000714D02*
X97338095Y-65095952D01*
X97338095Y-65095952D02*
X97290476Y-65143571D01*
X97290476Y-65143571D02*
X97195238Y-65191190D01*
X97195238Y-65191190D02*
X97004762Y-65191190D01*
X97004762Y-65191190D02*
X96909524Y-65238809D01*
X96909524Y-65238809D02*
X96861905Y-65286428D01*
X96861905Y-65286428D02*
X96814286Y-65381666D01*
X96814286Y-65381666D02*
X96814286Y-65572142D01*
X96814286Y-65572142D02*
X96861905Y-65667380D01*
X96861905Y-65667380D02*
X96909524Y-65715000D01*
X96909524Y-65715000D02*
X97004762Y-65762619D01*
X97004762Y-65762619D02*
X97195238Y-65762619D01*
X97195238Y-65762619D02*
X97290476Y-65715000D01*
X97290476Y-65715000D02*
X97338095Y-65667380D01*
X97338095Y-65667380D02*
X97385714Y-65572142D01*
X97385714Y-65572142D02*
X97385714Y-65381666D01*
X97385714Y-65381666D02*
X97338095Y-65286428D01*
X97338095Y-65286428D02*
X97290476Y-65238809D01*
X97290476Y-65238809D02*
X97195238Y-65191190D01*
%TO.C,C15*%
X104788571Y-57735123D02*
X104758095Y-57765600D01*
X104758095Y-57765600D02*
X104666666Y-57796076D01*
X104666666Y-57796076D02*
X104605714Y-57796076D01*
X104605714Y-57796076D02*
X104514285Y-57765600D01*
X104514285Y-57765600D02*
X104453333Y-57704647D01*
X104453333Y-57704647D02*
X104422856Y-57643695D01*
X104422856Y-57643695D02*
X104392380Y-57521790D01*
X104392380Y-57521790D02*
X104392380Y-57430361D01*
X104392380Y-57430361D02*
X104422856Y-57308457D01*
X104422856Y-57308457D02*
X104453333Y-57247504D01*
X104453333Y-57247504D02*
X104514285Y-57186552D01*
X104514285Y-57186552D02*
X104605714Y-57156076D01*
X104605714Y-57156076D02*
X104666666Y-57156076D01*
X104666666Y-57156076D02*
X104758095Y-57186552D01*
X104758095Y-57186552D02*
X104788571Y-57217028D01*
X105398095Y-57796076D02*
X105032380Y-57796076D01*
X105215237Y-57796076D02*
X105215237Y-57156076D01*
X105215237Y-57156076D02*
X105154285Y-57247504D01*
X105154285Y-57247504D02*
X105093333Y-57308457D01*
X105093333Y-57308457D02*
X105032380Y-57338933D01*
X105977142Y-57156076D02*
X105672380Y-57156076D01*
X105672380Y-57156076D02*
X105641904Y-57460838D01*
X105641904Y-57460838D02*
X105672380Y-57430361D01*
X105672380Y-57430361D02*
X105733333Y-57399885D01*
X105733333Y-57399885D02*
X105885714Y-57399885D01*
X105885714Y-57399885D02*
X105946666Y-57430361D01*
X105946666Y-57430361D02*
X105977142Y-57460838D01*
X105977142Y-57460838D02*
X106007619Y-57521790D01*
X106007619Y-57521790D02*
X106007619Y-57674171D01*
X106007619Y-57674171D02*
X105977142Y-57735123D01*
X105977142Y-57735123D02*
X105946666Y-57765600D01*
X105946666Y-57765600D02*
X105885714Y-57796076D01*
X105885714Y-57796076D02*
X105733333Y-57796076D01*
X105733333Y-57796076D02*
X105672380Y-57765600D01*
X105672380Y-57765600D02*
X105641904Y-57735123D01*
%TO.C,R11*%
X91757142Y-61762619D02*
X91423809Y-61286428D01*
X91185714Y-61762619D02*
X91185714Y-60762619D01*
X91185714Y-60762619D02*
X91566666Y-60762619D01*
X91566666Y-60762619D02*
X91661904Y-60810238D01*
X91661904Y-60810238D02*
X91709523Y-60857857D01*
X91709523Y-60857857D02*
X91757142Y-60953095D01*
X91757142Y-60953095D02*
X91757142Y-61095952D01*
X91757142Y-61095952D02*
X91709523Y-61191190D01*
X91709523Y-61191190D02*
X91661904Y-61238809D01*
X91661904Y-61238809D02*
X91566666Y-61286428D01*
X91566666Y-61286428D02*
X91185714Y-61286428D01*
X92709523Y-61762619D02*
X92138095Y-61762619D01*
X92423809Y-61762619D02*
X92423809Y-60762619D01*
X92423809Y-60762619D02*
X92328571Y-60905476D01*
X92328571Y-60905476D02*
X92233333Y-61000714D01*
X92233333Y-61000714D02*
X92138095Y-61048333D01*
X93661904Y-61762619D02*
X93090476Y-61762619D01*
X93376190Y-61762619D02*
X93376190Y-60762619D01*
X93376190Y-60762619D02*
X93280952Y-60905476D01*
X93280952Y-60905476D02*
X93185714Y-61000714D01*
X93185714Y-61000714D02*
X93090476Y-61048333D01*
%TO.C,D1*%
X88961905Y-56362619D02*
X88961905Y-55362619D01*
X88961905Y-55362619D02*
X89200000Y-55362619D01*
X89200000Y-55362619D02*
X89342857Y-55410238D01*
X89342857Y-55410238D02*
X89438095Y-55505476D01*
X89438095Y-55505476D02*
X89485714Y-55600714D01*
X89485714Y-55600714D02*
X89533333Y-55791190D01*
X89533333Y-55791190D02*
X89533333Y-55934047D01*
X89533333Y-55934047D02*
X89485714Y-56124523D01*
X89485714Y-56124523D02*
X89438095Y-56219761D01*
X89438095Y-56219761D02*
X89342857Y-56315000D01*
X89342857Y-56315000D02*
X89200000Y-56362619D01*
X89200000Y-56362619D02*
X88961905Y-56362619D01*
X90485714Y-56362619D02*
X89914286Y-56362619D01*
X90200000Y-56362619D02*
X90200000Y-55362619D01*
X90200000Y-55362619D02*
X90104762Y-55505476D01*
X90104762Y-55505476D02*
X90009524Y-55600714D01*
X90009524Y-55600714D02*
X89914286Y-55648333D01*
%TO.C,R14*%
X93732142Y-47232619D02*
X93398809Y-46756428D01*
X93160714Y-47232619D02*
X93160714Y-46232619D01*
X93160714Y-46232619D02*
X93541666Y-46232619D01*
X93541666Y-46232619D02*
X93636904Y-46280238D01*
X93636904Y-46280238D02*
X93684523Y-46327857D01*
X93684523Y-46327857D02*
X93732142Y-46423095D01*
X93732142Y-46423095D02*
X93732142Y-46565952D01*
X93732142Y-46565952D02*
X93684523Y-46661190D01*
X93684523Y-46661190D02*
X93636904Y-46708809D01*
X93636904Y-46708809D02*
X93541666Y-46756428D01*
X93541666Y-46756428D02*
X93160714Y-46756428D01*
X94684523Y-47232619D02*
X94113095Y-47232619D01*
X94398809Y-47232619D02*
X94398809Y-46232619D01*
X94398809Y-46232619D02*
X94303571Y-46375476D01*
X94303571Y-46375476D02*
X94208333Y-46470714D01*
X94208333Y-46470714D02*
X94113095Y-46518333D01*
X95541666Y-46565952D02*
X95541666Y-47232619D01*
X95303571Y-46185000D02*
X95065476Y-46899285D01*
X95065476Y-46899285D02*
X95684523Y-46899285D01*
%TO.C,R7*%
X96566667Y-52870095D02*
X96300000Y-52489142D01*
X96109524Y-52870095D02*
X96109524Y-52070095D01*
X96109524Y-52070095D02*
X96414286Y-52070095D01*
X96414286Y-52070095D02*
X96490476Y-52108190D01*
X96490476Y-52108190D02*
X96528571Y-52146285D01*
X96528571Y-52146285D02*
X96566667Y-52222476D01*
X96566667Y-52222476D02*
X96566667Y-52336761D01*
X96566667Y-52336761D02*
X96528571Y-52412952D01*
X96528571Y-52412952D02*
X96490476Y-52451047D01*
X96490476Y-52451047D02*
X96414286Y-52489142D01*
X96414286Y-52489142D02*
X96109524Y-52489142D01*
X96833333Y-52070095D02*
X97366667Y-52070095D01*
X97366667Y-52070095D02*
X97023809Y-52870095D01*
%TO.C,R15*%
X108257142Y-47162619D02*
X107923809Y-46686428D01*
X107685714Y-47162619D02*
X107685714Y-46162619D01*
X107685714Y-46162619D02*
X108066666Y-46162619D01*
X108066666Y-46162619D02*
X108161904Y-46210238D01*
X108161904Y-46210238D02*
X108209523Y-46257857D01*
X108209523Y-46257857D02*
X108257142Y-46353095D01*
X108257142Y-46353095D02*
X108257142Y-46495952D01*
X108257142Y-46495952D02*
X108209523Y-46591190D01*
X108209523Y-46591190D02*
X108161904Y-46638809D01*
X108161904Y-46638809D02*
X108066666Y-46686428D01*
X108066666Y-46686428D02*
X107685714Y-46686428D01*
X109209523Y-47162619D02*
X108638095Y-47162619D01*
X108923809Y-47162619D02*
X108923809Y-46162619D01*
X108923809Y-46162619D02*
X108828571Y-46305476D01*
X108828571Y-46305476D02*
X108733333Y-46400714D01*
X108733333Y-46400714D02*
X108638095Y-46448333D01*
X110114285Y-46162619D02*
X109638095Y-46162619D01*
X109638095Y-46162619D02*
X109590476Y-46638809D01*
X109590476Y-46638809D02*
X109638095Y-46591190D01*
X109638095Y-46591190D02*
X109733333Y-46543571D01*
X109733333Y-46543571D02*
X109971428Y-46543571D01*
X109971428Y-46543571D02*
X110066666Y-46591190D01*
X110066666Y-46591190D02*
X110114285Y-46638809D01*
X110114285Y-46638809D02*
X110161904Y-46734047D01*
X110161904Y-46734047D02*
X110161904Y-46972142D01*
X110161904Y-46972142D02*
X110114285Y-47067380D01*
X110114285Y-47067380D02*
X110066666Y-47115000D01*
X110066666Y-47115000D02*
X109971428Y-47162619D01*
X109971428Y-47162619D02*
X109733333Y-47162619D01*
X109733333Y-47162619D02*
X109638095Y-47115000D01*
X109638095Y-47115000D02*
X109590476Y-47067380D01*
%TO.C,C1*%
X116133333Y-53167380D02*
X116085714Y-53215000D01*
X116085714Y-53215000D02*
X115942857Y-53262619D01*
X115942857Y-53262619D02*
X115847619Y-53262619D01*
X115847619Y-53262619D02*
X115704762Y-53215000D01*
X115704762Y-53215000D02*
X115609524Y-53119761D01*
X115609524Y-53119761D02*
X115561905Y-53024523D01*
X115561905Y-53024523D02*
X115514286Y-52834047D01*
X115514286Y-52834047D02*
X115514286Y-52691190D01*
X115514286Y-52691190D02*
X115561905Y-52500714D01*
X115561905Y-52500714D02*
X115609524Y-52405476D01*
X115609524Y-52405476D02*
X115704762Y-52310238D01*
X115704762Y-52310238D02*
X115847619Y-52262619D01*
X115847619Y-52262619D02*
X115942857Y-52262619D01*
X115942857Y-52262619D02*
X116085714Y-52310238D01*
X116085714Y-52310238D02*
X116133333Y-52357857D01*
X117085714Y-53262619D02*
X116514286Y-53262619D01*
X116800000Y-53262619D02*
X116800000Y-52262619D01*
X116800000Y-52262619D02*
X116704762Y-52405476D01*
X116704762Y-52405476D02*
X116609524Y-52500714D01*
X116609524Y-52500714D02*
X116514286Y-52548333D01*
%TO.C,C17*%
X95257142Y-74667380D02*
X95209523Y-74715000D01*
X95209523Y-74715000D02*
X95066666Y-74762619D01*
X95066666Y-74762619D02*
X94971428Y-74762619D01*
X94971428Y-74762619D02*
X94828571Y-74715000D01*
X94828571Y-74715000D02*
X94733333Y-74619761D01*
X94733333Y-74619761D02*
X94685714Y-74524523D01*
X94685714Y-74524523D02*
X94638095Y-74334047D01*
X94638095Y-74334047D02*
X94638095Y-74191190D01*
X94638095Y-74191190D02*
X94685714Y-74000714D01*
X94685714Y-74000714D02*
X94733333Y-73905476D01*
X94733333Y-73905476D02*
X94828571Y-73810238D01*
X94828571Y-73810238D02*
X94971428Y-73762619D01*
X94971428Y-73762619D02*
X95066666Y-73762619D01*
X95066666Y-73762619D02*
X95209523Y-73810238D01*
X95209523Y-73810238D02*
X95257142Y-73857857D01*
X96209523Y-74762619D02*
X95638095Y-74762619D01*
X95923809Y-74762619D02*
X95923809Y-73762619D01*
X95923809Y-73762619D02*
X95828571Y-73905476D01*
X95828571Y-73905476D02*
X95733333Y-74000714D01*
X95733333Y-74000714D02*
X95638095Y-74048333D01*
X96542857Y-73762619D02*
X97209523Y-73762619D01*
X97209523Y-73762619D02*
X96780952Y-74762619D01*
%TO.C,U5*%
X111410595Y-60962619D02*
X111410595Y-61772142D01*
X111410595Y-61772142D02*
X111458214Y-61867380D01*
X111458214Y-61867380D02*
X111505833Y-61915000D01*
X111505833Y-61915000D02*
X111601071Y-61962619D01*
X111601071Y-61962619D02*
X111791547Y-61962619D01*
X111791547Y-61962619D02*
X111886785Y-61915000D01*
X111886785Y-61915000D02*
X111934404Y-61867380D01*
X111934404Y-61867380D02*
X111982023Y-61772142D01*
X111982023Y-61772142D02*
X111982023Y-60962619D01*
X112934404Y-60962619D02*
X112458214Y-60962619D01*
X112458214Y-60962619D02*
X112410595Y-61438809D01*
X112410595Y-61438809D02*
X112458214Y-61391190D01*
X112458214Y-61391190D02*
X112553452Y-61343571D01*
X112553452Y-61343571D02*
X112791547Y-61343571D01*
X112791547Y-61343571D02*
X112886785Y-61391190D01*
X112886785Y-61391190D02*
X112934404Y-61438809D01*
X112934404Y-61438809D02*
X112982023Y-61534047D01*
X112982023Y-61534047D02*
X112982023Y-61772142D01*
X112982023Y-61772142D02*
X112934404Y-61867380D01*
X112934404Y-61867380D02*
X112886785Y-61915000D01*
X112886785Y-61915000D02*
X112791547Y-61962619D01*
X112791547Y-61962619D02*
X112553452Y-61962619D01*
X112553452Y-61962619D02*
X112458214Y-61915000D01*
X112458214Y-61915000D02*
X112410595Y-61867380D01*
%TO.C,C20*%
X110357142Y-69867380D02*
X110309523Y-69915000D01*
X110309523Y-69915000D02*
X110166666Y-69962619D01*
X110166666Y-69962619D02*
X110071428Y-69962619D01*
X110071428Y-69962619D02*
X109928571Y-69915000D01*
X109928571Y-69915000D02*
X109833333Y-69819761D01*
X109833333Y-69819761D02*
X109785714Y-69724523D01*
X109785714Y-69724523D02*
X109738095Y-69534047D01*
X109738095Y-69534047D02*
X109738095Y-69391190D01*
X109738095Y-69391190D02*
X109785714Y-69200714D01*
X109785714Y-69200714D02*
X109833333Y-69105476D01*
X109833333Y-69105476D02*
X109928571Y-69010238D01*
X109928571Y-69010238D02*
X110071428Y-68962619D01*
X110071428Y-68962619D02*
X110166666Y-68962619D01*
X110166666Y-68962619D02*
X110309523Y-69010238D01*
X110309523Y-69010238D02*
X110357142Y-69057857D01*
X110738095Y-69057857D02*
X110785714Y-69010238D01*
X110785714Y-69010238D02*
X110880952Y-68962619D01*
X110880952Y-68962619D02*
X111119047Y-68962619D01*
X111119047Y-68962619D02*
X111214285Y-69010238D01*
X111214285Y-69010238D02*
X111261904Y-69057857D01*
X111261904Y-69057857D02*
X111309523Y-69153095D01*
X111309523Y-69153095D02*
X111309523Y-69248333D01*
X111309523Y-69248333D02*
X111261904Y-69391190D01*
X111261904Y-69391190D02*
X110690476Y-69962619D01*
X110690476Y-69962619D02*
X111309523Y-69962619D01*
X111928571Y-68962619D02*
X112023809Y-68962619D01*
X112023809Y-68962619D02*
X112119047Y-69010238D01*
X112119047Y-69010238D02*
X112166666Y-69057857D01*
X112166666Y-69057857D02*
X112214285Y-69153095D01*
X112214285Y-69153095D02*
X112261904Y-69343571D01*
X112261904Y-69343571D02*
X112261904Y-69581666D01*
X112261904Y-69581666D02*
X112214285Y-69772142D01*
X112214285Y-69772142D02*
X112166666Y-69867380D01*
X112166666Y-69867380D02*
X112119047Y-69915000D01*
X112119047Y-69915000D02*
X112023809Y-69962619D01*
X112023809Y-69962619D02*
X111928571Y-69962619D01*
X111928571Y-69962619D02*
X111833333Y-69915000D01*
X111833333Y-69915000D02*
X111785714Y-69867380D01*
X111785714Y-69867380D02*
X111738095Y-69772142D01*
X111738095Y-69772142D02*
X111690476Y-69581666D01*
X111690476Y-69581666D02*
X111690476Y-69343571D01*
X111690476Y-69343571D02*
X111738095Y-69153095D01*
X111738095Y-69153095D02*
X111785714Y-69057857D01*
X111785714Y-69057857D02*
X111833333Y-69010238D01*
X111833333Y-69010238D02*
X111928571Y-68962619D01*
%TO.C,C13*%
X102188571Y-60835123D02*
X102158095Y-60865600D01*
X102158095Y-60865600D02*
X102066666Y-60896076D01*
X102066666Y-60896076D02*
X102005714Y-60896076D01*
X102005714Y-60896076D02*
X101914285Y-60865600D01*
X101914285Y-60865600D02*
X101853333Y-60804647D01*
X101853333Y-60804647D02*
X101822856Y-60743695D01*
X101822856Y-60743695D02*
X101792380Y-60621790D01*
X101792380Y-60621790D02*
X101792380Y-60530361D01*
X101792380Y-60530361D02*
X101822856Y-60408457D01*
X101822856Y-60408457D02*
X101853333Y-60347504D01*
X101853333Y-60347504D02*
X101914285Y-60286552D01*
X101914285Y-60286552D02*
X102005714Y-60256076D01*
X102005714Y-60256076D02*
X102066666Y-60256076D01*
X102066666Y-60256076D02*
X102158095Y-60286552D01*
X102158095Y-60286552D02*
X102188571Y-60317028D01*
X102798095Y-60896076D02*
X102432380Y-60896076D01*
X102615237Y-60896076D02*
X102615237Y-60256076D01*
X102615237Y-60256076D02*
X102554285Y-60347504D01*
X102554285Y-60347504D02*
X102493333Y-60408457D01*
X102493333Y-60408457D02*
X102432380Y-60438933D01*
X103011428Y-60256076D02*
X103407619Y-60256076D01*
X103407619Y-60256076D02*
X103194285Y-60499885D01*
X103194285Y-60499885D02*
X103285714Y-60499885D01*
X103285714Y-60499885D02*
X103346666Y-60530361D01*
X103346666Y-60530361D02*
X103377142Y-60560838D01*
X103377142Y-60560838D02*
X103407619Y-60621790D01*
X103407619Y-60621790D02*
X103407619Y-60774171D01*
X103407619Y-60774171D02*
X103377142Y-60835123D01*
X103377142Y-60835123D02*
X103346666Y-60865600D01*
X103346666Y-60865600D02*
X103285714Y-60896076D01*
X103285714Y-60896076D02*
X103102857Y-60896076D01*
X103102857Y-60896076D02*
X103041904Y-60865600D01*
X103041904Y-60865600D02*
X103011428Y-60835123D01*
%TO.C,C22*%
X99788571Y-60735123D02*
X99758095Y-60765600D01*
X99758095Y-60765600D02*
X99666666Y-60796076D01*
X99666666Y-60796076D02*
X99605714Y-60796076D01*
X99605714Y-60796076D02*
X99514285Y-60765600D01*
X99514285Y-60765600D02*
X99453333Y-60704647D01*
X99453333Y-60704647D02*
X99422856Y-60643695D01*
X99422856Y-60643695D02*
X99392380Y-60521790D01*
X99392380Y-60521790D02*
X99392380Y-60430361D01*
X99392380Y-60430361D02*
X99422856Y-60308457D01*
X99422856Y-60308457D02*
X99453333Y-60247504D01*
X99453333Y-60247504D02*
X99514285Y-60186552D01*
X99514285Y-60186552D02*
X99605714Y-60156076D01*
X99605714Y-60156076D02*
X99666666Y-60156076D01*
X99666666Y-60156076D02*
X99758095Y-60186552D01*
X99758095Y-60186552D02*
X99788571Y-60217028D01*
X100032380Y-60217028D02*
X100062856Y-60186552D01*
X100062856Y-60186552D02*
X100123809Y-60156076D01*
X100123809Y-60156076D02*
X100276190Y-60156076D01*
X100276190Y-60156076D02*
X100337142Y-60186552D01*
X100337142Y-60186552D02*
X100367618Y-60217028D01*
X100367618Y-60217028D02*
X100398095Y-60277980D01*
X100398095Y-60277980D02*
X100398095Y-60338933D01*
X100398095Y-60338933D02*
X100367618Y-60430361D01*
X100367618Y-60430361D02*
X100001904Y-60796076D01*
X100001904Y-60796076D02*
X100398095Y-60796076D01*
X100641904Y-60217028D02*
X100672380Y-60186552D01*
X100672380Y-60186552D02*
X100733333Y-60156076D01*
X100733333Y-60156076D02*
X100885714Y-60156076D01*
X100885714Y-60156076D02*
X100946666Y-60186552D01*
X100946666Y-60186552D02*
X100977142Y-60217028D01*
X100977142Y-60217028D02*
X101007619Y-60277980D01*
X101007619Y-60277980D02*
X101007619Y-60338933D01*
X101007619Y-60338933D02*
X100977142Y-60430361D01*
X100977142Y-60430361D02*
X100611428Y-60796076D01*
X100611428Y-60796076D02*
X101007619Y-60796076D01*
%TO.C,R1*%
X109733333Y-58262619D02*
X109400000Y-57786428D01*
X109161905Y-58262619D02*
X109161905Y-57262619D01*
X109161905Y-57262619D02*
X109542857Y-57262619D01*
X109542857Y-57262619D02*
X109638095Y-57310238D01*
X109638095Y-57310238D02*
X109685714Y-57357857D01*
X109685714Y-57357857D02*
X109733333Y-57453095D01*
X109733333Y-57453095D02*
X109733333Y-57595952D01*
X109733333Y-57595952D02*
X109685714Y-57691190D01*
X109685714Y-57691190D02*
X109638095Y-57738809D01*
X109638095Y-57738809D02*
X109542857Y-57786428D01*
X109542857Y-57786428D02*
X109161905Y-57786428D01*
X110685714Y-58262619D02*
X110114286Y-58262619D01*
X110400000Y-58262619D02*
X110400000Y-57262619D01*
X110400000Y-57262619D02*
X110304762Y-57405476D01*
X110304762Y-57405476D02*
X110209524Y-57500714D01*
X110209524Y-57500714D02*
X110114286Y-57548333D01*
%TO.C,U4*%
X95212380Y-59256076D02*
X95212380Y-59774171D01*
X95212380Y-59774171D02*
X95242857Y-59835123D01*
X95242857Y-59835123D02*
X95273333Y-59865600D01*
X95273333Y-59865600D02*
X95334285Y-59896076D01*
X95334285Y-59896076D02*
X95456190Y-59896076D01*
X95456190Y-59896076D02*
X95517142Y-59865600D01*
X95517142Y-59865600D02*
X95547619Y-59835123D01*
X95547619Y-59835123D02*
X95578095Y-59774171D01*
X95578095Y-59774171D02*
X95578095Y-59256076D01*
X96157142Y-59469409D02*
X96157142Y-59896076D01*
X96004761Y-59225600D02*
X95852380Y-59682742D01*
X95852380Y-59682742D02*
X96248571Y-59682742D01*
%TO.C,C4*%
X109593333Y-51835123D02*
X109562857Y-51865600D01*
X109562857Y-51865600D02*
X109471428Y-51896076D01*
X109471428Y-51896076D02*
X109410476Y-51896076D01*
X109410476Y-51896076D02*
X109319047Y-51865600D01*
X109319047Y-51865600D02*
X109258095Y-51804647D01*
X109258095Y-51804647D02*
X109227618Y-51743695D01*
X109227618Y-51743695D02*
X109197142Y-51621790D01*
X109197142Y-51621790D02*
X109197142Y-51530361D01*
X109197142Y-51530361D02*
X109227618Y-51408457D01*
X109227618Y-51408457D02*
X109258095Y-51347504D01*
X109258095Y-51347504D02*
X109319047Y-51286552D01*
X109319047Y-51286552D02*
X109410476Y-51256076D01*
X109410476Y-51256076D02*
X109471428Y-51256076D01*
X109471428Y-51256076D02*
X109562857Y-51286552D01*
X109562857Y-51286552D02*
X109593333Y-51317028D01*
X110141904Y-51469409D02*
X110141904Y-51896076D01*
X109989523Y-51225600D02*
X109837142Y-51682742D01*
X109837142Y-51682742D02*
X110233333Y-51682742D01*
%TO.C,LCD1*%
X95233333Y-70862619D02*
X94757143Y-70862619D01*
X94757143Y-70862619D02*
X94757143Y-69862619D01*
X96138095Y-70767380D02*
X96090476Y-70815000D01*
X96090476Y-70815000D02*
X95947619Y-70862619D01*
X95947619Y-70862619D02*
X95852381Y-70862619D01*
X95852381Y-70862619D02*
X95709524Y-70815000D01*
X95709524Y-70815000D02*
X95614286Y-70719761D01*
X95614286Y-70719761D02*
X95566667Y-70624523D01*
X95566667Y-70624523D02*
X95519048Y-70434047D01*
X95519048Y-70434047D02*
X95519048Y-70291190D01*
X95519048Y-70291190D02*
X95566667Y-70100714D01*
X95566667Y-70100714D02*
X95614286Y-70005476D01*
X95614286Y-70005476D02*
X95709524Y-69910238D01*
X95709524Y-69910238D02*
X95852381Y-69862619D01*
X95852381Y-69862619D02*
X95947619Y-69862619D01*
X95947619Y-69862619D02*
X96090476Y-69910238D01*
X96090476Y-69910238D02*
X96138095Y-69957857D01*
X96566667Y-70862619D02*
X96566667Y-69862619D01*
X96566667Y-69862619D02*
X96804762Y-69862619D01*
X96804762Y-69862619D02*
X96947619Y-69910238D01*
X96947619Y-69910238D02*
X97042857Y-70005476D01*
X97042857Y-70005476D02*
X97090476Y-70100714D01*
X97090476Y-70100714D02*
X97138095Y-70291190D01*
X97138095Y-70291190D02*
X97138095Y-70434047D01*
X97138095Y-70434047D02*
X97090476Y-70624523D01*
X97090476Y-70624523D02*
X97042857Y-70719761D01*
X97042857Y-70719761D02*
X96947619Y-70815000D01*
X96947619Y-70815000D02*
X96804762Y-70862619D01*
X96804762Y-70862619D02*
X96566667Y-70862619D01*
X98090476Y-70862619D02*
X97519048Y-70862619D01*
X97804762Y-70862619D02*
X97804762Y-69862619D01*
X97804762Y-69862619D02*
X97709524Y-70005476D01*
X97709524Y-70005476D02*
X97614286Y-70100714D01*
X97614286Y-70100714D02*
X97519048Y-70148333D01*
%TO.C,C11*%
X106188571Y-60835123D02*
X106158095Y-60865600D01*
X106158095Y-60865600D02*
X106066666Y-60896076D01*
X106066666Y-60896076D02*
X106005714Y-60896076D01*
X106005714Y-60896076D02*
X105914285Y-60865600D01*
X105914285Y-60865600D02*
X105853333Y-60804647D01*
X105853333Y-60804647D02*
X105822856Y-60743695D01*
X105822856Y-60743695D02*
X105792380Y-60621790D01*
X105792380Y-60621790D02*
X105792380Y-60530361D01*
X105792380Y-60530361D02*
X105822856Y-60408457D01*
X105822856Y-60408457D02*
X105853333Y-60347504D01*
X105853333Y-60347504D02*
X105914285Y-60286552D01*
X105914285Y-60286552D02*
X106005714Y-60256076D01*
X106005714Y-60256076D02*
X106066666Y-60256076D01*
X106066666Y-60256076D02*
X106158095Y-60286552D01*
X106158095Y-60286552D02*
X106188571Y-60317028D01*
X106798095Y-60896076D02*
X106432380Y-60896076D01*
X106615237Y-60896076D02*
X106615237Y-60256076D01*
X106615237Y-60256076D02*
X106554285Y-60347504D01*
X106554285Y-60347504D02*
X106493333Y-60408457D01*
X106493333Y-60408457D02*
X106432380Y-60438933D01*
X107407619Y-60896076D02*
X107041904Y-60896076D01*
X107224761Y-60896076D02*
X107224761Y-60256076D01*
X107224761Y-60256076D02*
X107163809Y-60347504D01*
X107163809Y-60347504D02*
X107102857Y-60408457D01*
X107102857Y-60408457D02*
X107041904Y-60438933D01*
%TO.C,R12*%
X118657142Y-66162619D02*
X118323809Y-65686428D01*
X118085714Y-66162619D02*
X118085714Y-65162619D01*
X118085714Y-65162619D02*
X118466666Y-65162619D01*
X118466666Y-65162619D02*
X118561904Y-65210238D01*
X118561904Y-65210238D02*
X118609523Y-65257857D01*
X118609523Y-65257857D02*
X118657142Y-65353095D01*
X118657142Y-65353095D02*
X118657142Y-65495952D01*
X118657142Y-65495952D02*
X118609523Y-65591190D01*
X118609523Y-65591190D02*
X118561904Y-65638809D01*
X118561904Y-65638809D02*
X118466666Y-65686428D01*
X118466666Y-65686428D02*
X118085714Y-65686428D01*
X119609523Y-66162619D02*
X119038095Y-66162619D01*
X119323809Y-66162619D02*
X119323809Y-65162619D01*
X119323809Y-65162619D02*
X119228571Y-65305476D01*
X119228571Y-65305476D02*
X119133333Y-65400714D01*
X119133333Y-65400714D02*
X119038095Y-65448333D01*
X119990476Y-65257857D02*
X120038095Y-65210238D01*
X120038095Y-65210238D02*
X120133333Y-65162619D01*
X120133333Y-65162619D02*
X120371428Y-65162619D01*
X120371428Y-65162619D02*
X120466666Y-65210238D01*
X120466666Y-65210238D02*
X120514285Y-65257857D01*
X120514285Y-65257857D02*
X120561904Y-65353095D01*
X120561904Y-65353095D02*
X120561904Y-65448333D01*
X120561904Y-65448333D02*
X120514285Y-65591190D01*
X120514285Y-65591190D02*
X119942857Y-66162619D01*
X119942857Y-66162619D02*
X120561904Y-66162619D01*
%TO.C,C10*%
X106857142Y-65867380D02*
X106809523Y-65915000D01*
X106809523Y-65915000D02*
X106666666Y-65962619D01*
X106666666Y-65962619D02*
X106571428Y-65962619D01*
X106571428Y-65962619D02*
X106428571Y-65915000D01*
X106428571Y-65915000D02*
X106333333Y-65819761D01*
X106333333Y-65819761D02*
X106285714Y-65724523D01*
X106285714Y-65724523D02*
X106238095Y-65534047D01*
X106238095Y-65534047D02*
X106238095Y-65391190D01*
X106238095Y-65391190D02*
X106285714Y-65200714D01*
X106285714Y-65200714D02*
X106333333Y-65105476D01*
X106333333Y-65105476D02*
X106428571Y-65010238D01*
X106428571Y-65010238D02*
X106571428Y-64962619D01*
X106571428Y-64962619D02*
X106666666Y-64962619D01*
X106666666Y-64962619D02*
X106809523Y-65010238D01*
X106809523Y-65010238D02*
X106857142Y-65057857D01*
X107809523Y-65962619D02*
X107238095Y-65962619D01*
X107523809Y-65962619D02*
X107523809Y-64962619D01*
X107523809Y-64962619D02*
X107428571Y-65105476D01*
X107428571Y-65105476D02*
X107333333Y-65200714D01*
X107333333Y-65200714D02*
X107238095Y-65248333D01*
X108428571Y-64962619D02*
X108523809Y-64962619D01*
X108523809Y-64962619D02*
X108619047Y-65010238D01*
X108619047Y-65010238D02*
X108666666Y-65057857D01*
X108666666Y-65057857D02*
X108714285Y-65153095D01*
X108714285Y-65153095D02*
X108761904Y-65343571D01*
X108761904Y-65343571D02*
X108761904Y-65581666D01*
X108761904Y-65581666D02*
X108714285Y-65772142D01*
X108714285Y-65772142D02*
X108666666Y-65867380D01*
X108666666Y-65867380D02*
X108619047Y-65915000D01*
X108619047Y-65915000D02*
X108523809Y-65962619D01*
X108523809Y-65962619D02*
X108428571Y-65962619D01*
X108428571Y-65962619D02*
X108333333Y-65915000D01*
X108333333Y-65915000D02*
X108285714Y-65867380D01*
X108285714Y-65867380D02*
X108238095Y-65772142D01*
X108238095Y-65772142D02*
X108190476Y-65581666D01*
X108190476Y-65581666D02*
X108190476Y-65343571D01*
X108190476Y-65343571D02*
X108238095Y-65153095D01*
X108238095Y-65153095D02*
X108285714Y-65057857D01*
X108285714Y-65057857D02*
X108333333Y-65010238D01*
X108333333Y-65010238D02*
X108428571Y-64962619D01*
%TO.C,P1*%
X101061905Y-46562619D02*
X101061905Y-45562619D01*
X101061905Y-45562619D02*
X101442857Y-45562619D01*
X101442857Y-45562619D02*
X101538095Y-45610238D01*
X101538095Y-45610238D02*
X101585714Y-45657857D01*
X101585714Y-45657857D02*
X101633333Y-45753095D01*
X101633333Y-45753095D02*
X101633333Y-45895952D01*
X101633333Y-45895952D02*
X101585714Y-45991190D01*
X101585714Y-45991190D02*
X101538095Y-46038809D01*
X101538095Y-46038809D02*
X101442857Y-46086428D01*
X101442857Y-46086428D02*
X101061905Y-46086428D01*
X102585714Y-46562619D02*
X102014286Y-46562619D01*
X102300000Y-46562619D02*
X102300000Y-45562619D01*
X102300000Y-45562619D02*
X102204762Y-45705476D01*
X102204762Y-45705476D02*
X102109524Y-45800714D01*
X102109524Y-45800714D02*
X102014286Y-45848333D01*
%TO.C,Y2*%
X100023809Y-76186428D02*
X100023809Y-76662619D01*
X99690476Y-75662619D02*
X100023809Y-76186428D01*
X100023809Y-76186428D02*
X100357142Y-75662619D01*
X100642857Y-75757857D02*
X100690476Y-75710238D01*
X100690476Y-75710238D02*
X100785714Y-75662619D01*
X100785714Y-75662619D02*
X101023809Y-75662619D01*
X101023809Y-75662619D02*
X101119047Y-75710238D01*
X101119047Y-75710238D02*
X101166666Y-75757857D01*
X101166666Y-75757857D02*
X101214285Y-75853095D01*
X101214285Y-75853095D02*
X101214285Y-75948333D01*
X101214285Y-75948333D02*
X101166666Y-76091190D01*
X101166666Y-76091190D02*
X100595238Y-76662619D01*
X100595238Y-76662619D02*
X101214285Y-76662619D01*
%TO.C,SW1*%
X87966667Y-54715000D02*
X88109524Y-54762619D01*
X88109524Y-54762619D02*
X88347619Y-54762619D01*
X88347619Y-54762619D02*
X88442857Y-54715000D01*
X88442857Y-54715000D02*
X88490476Y-54667380D01*
X88490476Y-54667380D02*
X88538095Y-54572142D01*
X88538095Y-54572142D02*
X88538095Y-54476904D01*
X88538095Y-54476904D02*
X88490476Y-54381666D01*
X88490476Y-54381666D02*
X88442857Y-54334047D01*
X88442857Y-54334047D02*
X88347619Y-54286428D01*
X88347619Y-54286428D02*
X88157143Y-54238809D01*
X88157143Y-54238809D02*
X88061905Y-54191190D01*
X88061905Y-54191190D02*
X88014286Y-54143571D01*
X88014286Y-54143571D02*
X87966667Y-54048333D01*
X87966667Y-54048333D02*
X87966667Y-53953095D01*
X87966667Y-53953095D02*
X88014286Y-53857857D01*
X88014286Y-53857857D02*
X88061905Y-53810238D01*
X88061905Y-53810238D02*
X88157143Y-53762619D01*
X88157143Y-53762619D02*
X88395238Y-53762619D01*
X88395238Y-53762619D02*
X88538095Y-53810238D01*
X88871429Y-53762619D02*
X89109524Y-54762619D01*
X89109524Y-54762619D02*
X89300000Y-54048333D01*
X89300000Y-54048333D02*
X89490476Y-54762619D01*
X89490476Y-54762619D02*
X89728572Y-53762619D01*
X90633333Y-54762619D02*
X90061905Y-54762619D01*
X90347619Y-54762619D02*
X90347619Y-53762619D01*
X90347619Y-53762619D02*
X90252381Y-53905476D01*
X90252381Y-53905476D02*
X90157143Y-54000714D01*
X90157143Y-54000714D02*
X90061905Y-54048333D01*
%TO.C,C16*%
X93677142Y-50317380D02*
X93629523Y-50365000D01*
X93629523Y-50365000D02*
X93486666Y-50412619D01*
X93486666Y-50412619D02*
X93391428Y-50412619D01*
X93391428Y-50412619D02*
X93248571Y-50365000D01*
X93248571Y-50365000D02*
X93153333Y-50269761D01*
X93153333Y-50269761D02*
X93105714Y-50174523D01*
X93105714Y-50174523D02*
X93058095Y-49984047D01*
X93058095Y-49984047D02*
X93058095Y-49841190D01*
X93058095Y-49841190D02*
X93105714Y-49650714D01*
X93105714Y-49650714D02*
X93153333Y-49555476D01*
X93153333Y-49555476D02*
X93248571Y-49460238D01*
X93248571Y-49460238D02*
X93391428Y-49412619D01*
X93391428Y-49412619D02*
X93486666Y-49412619D01*
X93486666Y-49412619D02*
X93629523Y-49460238D01*
X93629523Y-49460238D02*
X93677142Y-49507857D01*
X94629523Y-50412619D02*
X94058095Y-50412619D01*
X94343809Y-50412619D02*
X94343809Y-49412619D01*
X94343809Y-49412619D02*
X94248571Y-49555476D01*
X94248571Y-49555476D02*
X94153333Y-49650714D01*
X94153333Y-49650714D02*
X94058095Y-49698333D01*
X95486666Y-49412619D02*
X95296190Y-49412619D01*
X95296190Y-49412619D02*
X95200952Y-49460238D01*
X95200952Y-49460238D02*
X95153333Y-49507857D01*
X95153333Y-49507857D02*
X95058095Y-49650714D01*
X95058095Y-49650714D02*
X95010476Y-49841190D01*
X95010476Y-49841190D02*
X95010476Y-50222142D01*
X95010476Y-50222142D02*
X95058095Y-50317380D01*
X95058095Y-50317380D02*
X95105714Y-50365000D01*
X95105714Y-50365000D02*
X95200952Y-50412619D01*
X95200952Y-50412619D02*
X95391428Y-50412619D01*
X95391428Y-50412619D02*
X95486666Y-50365000D01*
X95486666Y-50365000D02*
X95534285Y-50317380D01*
X95534285Y-50317380D02*
X95581904Y-50222142D01*
X95581904Y-50222142D02*
X95581904Y-49984047D01*
X95581904Y-49984047D02*
X95534285Y-49888809D01*
X95534285Y-49888809D02*
X95486666Y-49841190D01*
X95486666Y-49841190D02*
X95391428Y-49793571D01*
X95391428Y-49793571D02*
X95200952Y-49793571D01*
X95200952Y-49793571D02*
X95105714Y-49841190D01*
X95105714Y-49841190D02*
X95058095Y-49888809D01*
X95058095Y-49888809D02*
X95010476Y-49984047D01*
%TO.C,C14*%
X106857142Y-64067380D02*
X106809523Y-64115000D01*
X106809523Y-64115000D02*
X106666666Y-64162619D01*
X106666666Y-64162619D02*
X106571428Y-64162619D01*
X106571428Y-64162619D02*
X106428571Y-64115000D01*
X106428571Y-64115000D02*
X106333333Y-64019761D01*
X106333333Y-64019761D02*
X106285714Y-63924523D01*
X106285714Y-63924523D02*
X106238095Y-63734047D01*
X106238095Y-63734047D02*
X106238095Y-63591190D01*
X106238095Y-63591190D02*
X106285714Y-63400714D01*
X106285714Y-63400714D02*
X106333333Y-63305476D01*
X106333333Y-63305476D02*
X106428571Y-63210238D01*
X106428571Y-63210238D02*
X106571428Y-63162619D01*
X106571428Y-63162619D02*
X106666666Y-63162619D01*
X106666666Y-63162619D02*
X106809523Y-63210238D01*
X106809523Y-63210238D02*
X106857142Y-63257857D01*
X107809523Y-64162619D02*
X107238095Y-64162619D01*
X107523809Y-64162619D02*
X107523809Y-63162619D01*
X107523809Y-63162619D02*
X107428571Y-63305476D01*
X107428571Y-63305476D02*
X107333333Y-63400714D01*
X107333333Y-63400714D02*
X107238095Y-63448333D01*
X108666666Y-63495952D02*
X108666666Y-64162619D01*
X108428571Y-63115000D02*
X108190476Y-63829285D01*
X108190476Y-63829285D02*
X108809523Y-63829285D01*
%TO.C,U2*%
X106592380Y-56706076D02*
X106592380Y-57224171D01*
X106592380Y-57224171D02*
X106622857Y-57285123D01*
X106622857Y-57285123D02*
X106653333Y-57315600D01*
X106653333Y-57315600D02*
X106714285Y-57346076D01*
X106714285Y-57346076D02*
X106836190Y-57346076D01*
X106836190Y-57346076D02*
X106897142Y-57315600D01*
X106897142Y-57315600D02*
X106927619Y-57285123D01*
X106927619Y-57285123D02*
X106958095Y-57224171D01*
X106958095Y-57224171D02*
X106958095Y-56706076D01*
X107232380Y-56767028D02*
X107262856Y-56736552D01*
X107262856Y-56736552D02*
X107323809Y-56706076D01*
X107323809Y-56706076D02*
X107476190Y-56706076D01*
X107476190Y-56706076D02*
X107537142Y-56736552D01*
X107537142Y-56736552D02*
X107567618Y-56767028D01*
X107567618Y-56767028D02*
X107598095Y-56827980D01*
X107598095Y-56827980D02*
X107598095Y-56888933D01*
X107598095Y-56888933D02*
X107567618Y-56980361D01*
X107567618Y-56980361D02*
X107201904Y-57346076D01*
X107201904Y-57346076D02*
X107598095Y-57346076D01*
%TO.C,C18*%
X104357142Y-73767380D02*
X104309523Y-73815000D01*
X104309523Y-73815000D02*
X104166666Y-73862619D01*
X104166666Y-73862619D02*
X104071428Y-73862619D01*
X104071428Y-73862619D02*
X103928571Y-73815000D01*
X103928571Y-73815000D02*
X103833333Y-73719761D01*
X103833333Y-73719761D02*
X103785714Y-73624523D01*
X103785714Y-73624523D02*
X103738095Y-73434047D01*
X103738095Y-73434047D02*
X103738095Y-73291190D01*
X103738095Y-73291190D02*
X103785714Y-73100714D01*
X103785714Y-73100714D02*
X103833333Y-73005476D01*
X103833333Y-73005476D02*
X103928571Y-72910238D01*
X103928571Y-72910238D02*
X104071428Y-72862619D01*
X104071428Y-72862619D02*
X104166666Y-72862619D01*
X104166666Y-72862619D02*
X104309523Y-72910238D01*
X104309523Y-72910238D02*
X104357142Y-72957857D01*
X105309523Y-73862619D02*
X104738095Y-73862619D01*
X105023809Y-73862619D02*
X105023809Y-72862619D01*
X105023809Y-72862619D02*
X104928571Y-73005476D01*
X104928571Y-73005476D02*
X104833333Y-73100714D01*
X104833333Y-73100714D02*
X104738095Y-73148333D01*
X105880952Y-73291190D02*
X105785714Y-73243571D01*
X105785714Y-73243571D02*
X105738095Y-73195952D01*
X105738095Y-73195952D02*
X105690476Y-73100714D01*
X105690476Y-73100714D02*
X105690476Y-73053095D01*
X105690476Y-73053095D02*
X105738095Y-72957857D01*
X105738095Y-72957857D02*
X105785714Y-72910238D01*
X105785714Y-72910238D02*
X105880952Y-72862619D01*
X105880952Y-72862619D02*
X106071428Y-72862619D01*
X106071428Y-72862619D02*
X106166666Y-72910238D01*
X106166666Y-72910238D02*
X106214285Y-72957857D01*
X106214285Y-72957857D02*
X106261904Y-73053095D01*
X106261904Y-73053095D02*
X106261904Y-73100714D01*
X106261904Y-73100714D02*
X106214285Y-73195952D01*
X106214285Y-73195952D02*
X106166666Y-73243571D01*
X106166666Y-73243571D02*
X106071428Y-73291190D01*
X106071428Y-73291190D02*
X105880952Y-73291190D01*
X105880952Y-73291190D02*
X105785714Y-73338809D01*
X105785714Y-73338809D02*
X105738095Y-73386428D01*
X105738095Y-73386428D02*
X105690476Y-73481666D01*
X105690476Y-73481666D02*
X105690476Y-73672142D01*
X105690476Y-73672142D02*
X105738095Y-73767380D01*
X105738095Y-73767380D02*
X105785714Y-73815000D01*
X105785714Y-73815000D02*
X105880952Y-73862619D01*
X105880952Y-73862619D02*
X106071428Y-73862619D01*
X106071428Y-73862619D02*
X106166666Y-73815000D01*
X106166666Y-73815000D02*
X106214285Y-73767380D01*
X106214285Y-73767380D02*
X106261904Y-73672142D01*
X106261904Y-73672142D02*
X106261904Y-73481666D01*
X106261904Y-73481666D02*
X106214285Y-73386428D01*
X106214285Y-73386428D02*
X106166666Y-73338809D01*
X106166666Y-73338809D02*
X106071428Y-73291190D01*
%TO.C,R6*%
X103193333Y-54396076D02*
X102979999Y-54091314D01*
X102827618Y-54396076D02*
X102827618Y-53756076D01*
X102827618Y-53756076D02*
X103071428Y-53756076D01*
X103071428Y-53756076D02*
X103132380Y-53786552D01*
X103132380Y-53786552D02*
X103162857Y-53817028D01*
X103162857Y-53817028D02*
X103193333Y-53877980D01*
X103193333Y-53877980D02*
X103193333Y-53969409D01*
X103193333Y-53969409D02*
X103162857Y-54030361D01*
X103162857Y-54030361D02*
X103132380Y-54060838D01*
X103132380Y-54060838D02*
X103071428Y-54091314D01*
X103071428Y-54091314D02*
X102827618Y-54091314D01*
X103741904Y-53756076D02*
X103619999Y-53756076D01*
X103619999Y-53756076D02*
X103559047Y-53786552D01*
X103559047Y-53786552D02*
X103528571Y-53817028D01*
X103528571Y-53817028D02*
X103467618Y-53908457D01*
X103467618Y-53908457D02*
X103437142Y-54030361D01*
X103437142Y-54030361D02*
X103437142Y-54274171D01*
X103437142Y-54274171D02*
X103467618Y-54335123D01*
X103467618Y-54335123D02*
X103498095Y-54365600D01*
X103498095Y-54365600D02*
X103559047Y-54396076D01*
X103559047Y-54396076D02*
X103680952Y-54396076D01*
X103680952Y-54396076D02*
X103741904Y-54365600D01*
X103741904Y-54365600D02*
X103772380Y-54335123D01*
X103772380Y-54335123D02*
X103802857Y-54274171D01*
X103802857Y-54274171D02*
X103802857Y-54121790D01*
X103802857Y-54121790D02*
X103772380Y-54060838D01*
X103772380Y-54060838D02*
X103741904Y-54030361D01*
X103741904Y-54030361D02*
X103680952Y-53999885D01*
X103680952Y-53999885D02*
X103559047Y-53999885D01*
X103559047Y-53999885D02*
X103498095Y-54030361D01*
X103498095Y-54030361D02*
X103467618Y-54060838D01*
X103467618Y-54060838D02*
X103437142Y-54121790D01*
%TO.C,R8*%
X91233333Y-51862619D02*
X90900000Y-51386428D01*
X90661905Y-51862619D02*
X90661905Y-50862619D01*
X90661905Y-50862619D02*
X91042857Y-50862619D01*
X91042857Y-50862619D02*
X91138095Y-50910238D01*
X91138095Y-50910238D02*
X91185714Y-50957857D01*
X91185714Y-50957857D02*
X91233333Y-51053095D01*
X91233333Y-51053095D02*
X91233333Y-51195952D01*
X91233333Y-51195952D02*
X91185714Y-51291190D01*
X91185714Y-51291190D02*
X91138095Y-51338809D01*
X91138095Y-51338809D02*
X91042857Y-51386428D01*
X91042857Y-51386428D02*
X90661905Y-51386428D01*
X91804762Y-51291190D02*
X91709524Y-51243571D01*
X91709524Y-51243571D02*
X91661905Y-51195952D01*
X91661905Y-51195952D02*
X91614286Y-51100714D01*
X91614286Y-51100714D02*
X91614286Y-51053095D01*
X91614286Y-51053095D02*
X91661905Y-50957857D01*
X91661905Y-50957857D02*
X91709524Y-50910238D01*
X91709524Y-50910238D02*
X91804762Y-50862619D01*
X91804762Y-50862619D02*
X91995238Y-50862619D01*
X91995238Y-50862619D02*
X92090476Y-50910238D01*
X92090476Y-50910238D02*
X92138095Y-50957857D01*
X92138095Y-50957857D02*
X92185714Y-51053095D01*
X92185714Y-51053095D02*
X92185714Y-51100714D01*
X92185714Y-51100714D02*
X92138095Y-51195952D01*
X92138095Y-51195952D02*
X92090476Y-51243571D01*
X92090476Y-51243571D02*
X91995238Y-51291190D01*
X91995238Y-51291190D02*
X91804762Y-51291190D01*
X91804762Y-51291190D02*
X91709524Y-51338809D01*
X91709524Y-51338809D02*
X91661905Y-51386428D01*
X91661905Y-51386428D02*
X91614286Y-51481666D01*
X91614286Y-51481666D02*
X91614286Y-51672142D01*
X91614286Y-51672142D02*
X91661905Y-51767380D01*
X91661905Y-51767380D02*
X91709524Y-51815000D01*
X91709524Y-51815000D02*
X91804762Y-51862619D01*
X91804762Y-51862619D02*
X91995238Y-51862619D01*
X91995238Y-51862619D02*
X92090476Y-51815000D01*
X92090476Y-51815000D02*
X92138095Y-51767380D01*
X92138095Y-51767380D02*
X92185714Y-51672142D01*
X92185714Y-51672142D02*
X92185714Y-51481666D01*
X92185714Y-51481666D02*
X92138095Y-51386428D01*
X92138095Y-51386428D02*
X92090476Y-51338809D01*
X92090476Y-51338809D02*
X91995238Y-51291190D01*
%TO.C,C6*%
X105233333Y-72367380D02*
X105185714Y-72415000D01*
X105185714Y-72415000D02*
X105042857Y-72462619D01*
X105042857Y-72462619D02*
X104947619Y-72462619D01*
X104947619Y-72462619D02*
X104804762Y-72415000D01*
X104804762Y-72415000D02*
X104709524Y-72319761D01*
X104709524Y-72319761D02*
X104661905Y-72224523D01*
X104661905Y-72224523D02*
X104614286Y-72034047D01*
X104614286Y-72034047D02*
X104614286Y-71891190D01*
X104614286Y-71891190D02*
X104661905Y-71700714D01*
X104661905Y-71700714D02*
X104709524Y-71605476D01*
X104709524Y-71605476D02*
X104804762Y-71510238D01*
X104804762Y-71510238D02*
X104947619Y-71462619D01*
X104947619Y-71462619D02*
X105042857Y-71462619D01*
X105042857Y-71462619D02*
X105185714Y-71510238D01*
X105185714Y-71510238D02*
X105233333Y-71557857D01*
X106090476Y-71462619D02*
X105900000Y-71462619D01*
X105900000Y-71462619D02*
X105804762Y-71510238D01*
X105804762Y-71510238D02*
X105757143Y-71557857D01*
X105757143Y-71557857D02*
X105661905Y-71700714D01*
X105661905Y-71700714D02*
X105614286Y-71891190D01*
X105614286Y-71891190D02*
X105614286Y-72272142D01*
X105614286Y-72272142D02*
X105661905Y-72367380D01*
X105661905Y-72367380D02*
X105709524Y-72415000D01*
X105709524Y-72415000D02*
X105804762Y-72462619D01*
X105804762Y-72462619D02*
X105995238Y-72462619D01*
X105995238Y-72462619D02*
X106090476Y-72415000D01*
X106090476Y-72415000D02*
X106138095Y-72367380D01*
X106138095Y-72367380D02*
X106185714Y-72272142D01*
X106185714Y-72272142D02*
X106185714Y-72034047D01*
X106185714Y-72034047D02*
X106138095Y-71938809D01*
X106138095Y-71938809D02*
X106090476Y-71891190D01*
X106090476Y-71891190D02*
X105995238Y-71843571D01*
X105995238Y-71843571D02*
X105804762Y-71843571D01*
X105804762Y-71843571D02*
X105709524Y-71891190D01*
X105709524Y-71891190D02*
X105661905Y-71938809D01*
X105661905Y-71938809D02*
X105614286Y-72034047D01*
%TO.C,J4*%
X108466666Y-75162619D02*
X108466666Y-75876904D01*
X108466666Y-75876904D02*
X108419047Y-76019761D01*
X108419047Y-76019761D02*
X108323809Y-76115000D01*
X108323809Y-76115000D02*
X108180952Y-76162619D01*
X108180952Y-76162619D02*
X108085714Y-76162619D01*
X109371428Y-75495952D02*
X109371428Y-76162619D01*
X109133333Y-75115000D02*
X108895238Y-75829285D01*
X108895238Y-75829285D02*
X109514285Y-75829285D01*
%TO.C,U3*%
X111982380Y-56556076D02*
X111982380Y-57074171D01*
X111982380Y-57074171D02*
X112012857Y-57135123D01*
X112012857Y-57135123D02*
X112043333Y-57165600D01*
X112043333Y-57165600D02*
X112104285Y-57196076D01*
X112104285Y-57196076D02*
X112226190Y-57196076D01*
X112226190Y-57196076D02*
X112287142Y-57165600D01*
X112287142Y-57165600D02*
X112317619Y-57135123D01*
X112317619Y-57135123D02*
X112348095Y-57074171D01*
X112348095Y-57074171D02*
X112348095Y-56556076D01*
X112591904Y-56556076D02*
X112988095Y-56556076D01*
X112988095Y-56556076D02*
X112774761Y-56799885D01*
X112774761Y-56799885D02*
X112866190Y-56799885D01*
X112866190Y-56799885D02*
X112927142Y-56830361D01*
X112927142Y-56830361D02*
X112957618Y-56860838D01*
X112957618Y-56860838D02*
X112988095Y-56921790D01*
X112988095Y-56921790D02*
X112988095Y-57074171D01*
X112988095Y-57074171D02*
X112957618Y-57135123D01*
X112957618Y-57135123D02*
X112927142Y-57165600D01*
X112927142Y-57165600D02*
X112866190Y-57196076D01*
X112866190Y-57196076D02*
X112683333Y-57196076D01*
X112683333Y-57196076D02*
X112622380Y-57165600D01*
X112622380Y-57165600D02*
X112591904Y-57135123D01*
%TO.C,C9*%
X104633333Y-70667380D02*
X104585714Y-70715000D01*
X104585714Y-70715000D02*
X104442857Y-70762619D01*
X104442857Y-70762619D02*
X104347619Y-70762619D01*
X104347619Y-70762619D02*
X104204762Y-70715000D01*
X104204762Y-70715000D02*
X104109524Y-70619761D01*
X104109524Y-70619761D02*
X104061905Y-70524523D01*
X104061905Y-70524523D02*
X104014286Y-70334047D01*
X104014286Y-70334047D02*
X104014286Y-70191190D01*
X104014286Y-70191190D02*
X104061905Y-70000714D01*
X104061905Y-70000714D02*
X104109524Y-69905476D01*
X104109524Y-69905476D02*
X104204762Y-69810238D01*
X104204762Y-69810238D02*
X104347619Y-69762619D01*
X104347619Y-69762619D02*
X104442857Y-69762619D01*
X104442857Y-69762619D02*
X104585714Y-69810238D01*
X104585714Y-69810238D02*
X104633333Y-69857857D01*
X105109524Y-70762619D02*
X105300000Y-70762619D01*
X105300000Y-70762619D02*
X105395238Y-70715000D01*
X105395238Y-70715000D02*
X105442857Y-70667380D01*
X105442857Y-70667380D02*
X105538095Y-70524523D01*
X105538095Y-70524523D02*
X105585714Y-70334047D01*
X105585714Y-70334047D02*
X105585714Y-69953095D01*
X105585714Y-69953095D02*
X105538095Y-69857857D01*
X105538095Y-69857857D02*
X105490476Y-69810238D01*
X105490476Y-69810238D02*
X105395238Y-69762619D01*
X105395238Y-69762619D02*
X105204762Y-69762619D01*
X105204762Y-69762619D02*
X105109524Y-69810238D01*
X105109524Y-69810238D02*
X105061905Y-69857857D01*
X105061905Y-69857857D02*
X105014286Y-69953095D01*
X105014286Y-69953095D02*
X105014286Y-70191190D01*
X105014286Y-70191190D02*
X105061905Y-70286428D01*
X105061905Y-70286428D02*
X105109524Y-70334047D01*
X105109524Y-70334047D02*
X105204762Y-70381666D01*
X105204762Y-70381666D02*
X105395238Y-70381666D01*
X105395238Y-70381666D02*
X105490476Y-70334047D01*
X105490476Y-70334047D02*
X105538095Y-70286428D01*
X105538095Y-70286428D02*
X105585714Y-70191190D01*
%TO.C,C21*%
X114257142Y-59867380D02*
X114209523Y-59915000D01*
X114209523Y-59915000D02*
X114066666Y-59962619D01*
X114066666Y-59962619D02*
X113971428Y-59962619D01*
X113971428Y-59962619D02*
X113828571Y-59915000D01*
X113828571Y-59915000D02*
X113733333Y-59819761D01*
X113733333Y-59819761D02*
X113685714Y-59724523D01*
X113685714Y-59724523D02*
X113638095Y-59534047D01*
X113638095Y-59534047D02*
X113638095Y-59391190D01*
X113638095Y-59391190D02*
X113685714Y-59200714D01*
X113685714Y-59200714D02*
X113733333Y-59105476D01*
X113733333Y-59105476D02*
X113828571Y-59010238D01*
X113828571Y-59010238D02*
X113971428Y-58962619D01*
X113971428Y-58962619D02*
X114066666Y-58962619D01*
X114066666Y-58962619D02*
X114209523Y-59010238D01*
X114209523Y-59010238D02*
X114257142Y-59057857D01*
X114638095Y-59057857D02*
X114685714Y-59010238D01*
X114685714Y-59010238D02*
X114780952Y-58962619D01*
X114780952Y-58962619D02*
X115019047Y-58962619D01*
X115019047Y-58962619D02*
X115114285Y-59010238D01*
X115114285Y-59010238D02*
X115161904Y-59057857D01*
X115161904Y-59057857D02*
X115209523Y-59153095D01*
X115209523Y-59153095D02*
X115209523Y-59248333D01*
X115209523Y-59248333D02*
X115161904Y-59391190D01*
X115161904Y-59391190D02*
X114590476Y-59962619D01*
X114590476Y-59962619D02*
X115209523Y-59962619D01*
X116161904Y-59962619D02*
X115590476Y-59962619D01*
X115876190Y-59962619D02*
X115876190Y-58962619D01*
X115876190Y-58962619D02*
X115780952Y-59105476D01*
X115780952Y-59105476D02*
X115685714Y-59200714D01*
X115685714Y-59200714D02*
X115590476Y-59248333D01*
%TO.C,RV1*%
X89104761Y-73062619D02*
X88771428Y-72586428D01*
X88533333Y-73062619D02*
X88533333Y-72062619D01*
X88533333Y-72062619D02*
X88914285Y-72062619D01*
X88914285Y-72062619D02*
X89009523Y-72110238D01*
X89009523Y-72110238D02*
X89057142Y-72157857D01*
X89057142Y-72157857D02*
X89104761Y-72253095D01*
X89104761Y-72253095D02*
X89104761Y-72395952D01*
X89104761Y-72395952D02*
X89057142Y-72491190D01*
X89057142Y-72491190D02*
X89009523Y-72538809D01*
X89009523Y-72538809D02*
X88914285Y-72586428D01*
X88914285Y-72586428D02*
X88533333Y-72586428D01*
X89390476Y-72062619D02*
X89723809Y-73062619D01*
X89723809Y-73062619D02*
X90057142Y-72062619D01*
X90914285Y-73062619D02*
X90342857Y-73062619D01*
X90628571Y-73062619D02*
X90628571Y-72062619D01*
X90628571Y-72062619D02*
X90533333Y-72205476D01*
X90533333Y-72205476D02*
X90438095Y-72300714D01*
X90438095Y-72300714D02*
X90342857Y-72348333D01*
%TO.C,D2*%
X88361905Y-65762619D02*
X88361905Y-64762619D01*
X88361905Y-64762619D02*
X88600000Y-64762619D01*
X88600000Y-64762619D02*
X88742857Y-64810238D01*
X88742857Y-64810238D02*
X88838095Y-64905476D01*
X88838095Y-64905476D02*
X88885714Y-65000714D01*
X88885714Y-65000714D02*
X88933333Y-65191190D01*
X88933333Y-65191190D02*
X88933333Y-65334047D01*
X88933333Y-65334047D02*
X88885714Y-65524523D01*
X88885714Y-65524523D02*
X88838095Y-65619761D01*
X88838095Y-65619761D02*
X88742857Y-65715000D01*
X88742857Y-65715000D02*
X88600000Y-65762619D01*
X88600000Y-65762619D02*
X88361905Y-65762619D01*
X89314286Y-64857857D02*
X89361905Y-64810238D01*
X89361905Y-64810238D02*
X89457143Y-64762619D01*
X89457143Y-64762619D02*
X89695238Y-64762619D01*
X89695238Y-64762619D02*
X89790476Y-64810238D01*
X89790476Y-64810238D02*
X89838095Y-64857857D01*
X89838095Y-64857857D02*
X89885714Y-64953095D01*
X89885714Y-64953095D02*
X89885714Y-65048333D01*
X89885714Y-65048333D02*
X89838095Y-65191190D01*
X89838095Y-65191190D02*
X89266667Y-65762619D01*
X89266667Y-65762619D02*
X89885714Y-65762619D01*
%TO.C,R10*%
X91757142Y-60262619D02*
X91423809Y-59786428D01*
X91185714Y-60262619D02*
X91185714Y-59262619D01*
X91185714Y-59262619D02*
X91566666Y-59262619D01*
X91566666Y-59262619D02*
X91661904Y-59310238D01*
X91661904Y-59310238D02*
X91709523Y-59357857D01*
X91709523Y-59357857D02*
X91757142Y-59453095D01*
X91757142Y-59453095D02*
X91757142Y-59595952D01*
X91757142Y-59595952D02*
X91709523Y-59691190D01*
X91709523Y-59691190D02*
X91661904Y-59738809D01*
X91661904Y-59738809D02*
X91566666Y-59786428D01*
X91566666Y-59786428D02*
X91185714Y-59786428D01*
X92709523Y-60262619D02*
X92138095Y-60262619D01*
X92423809Y-60262619D02*
X92423809Y-59262619D01*
X92423809Y-59262619D02*
X92328571Y-59405476D01*
X92328571Y-59405476D02*
X92233333Y-59500714D01*
X92233333Y-59500714D02*
X92138095Y-59548333D01*
X93328571Y-59262619D02*
X93423809Y-59262619D01*
X93423809Y-59262619D02*
X93519047Y-59310238D01*
X93519047Y-59310238D02*
X93566666Y-59357857D01*
X93566666Y-59357857D02*
X93614285Y-59453095D01*
X93614285Y-59453095D02*
X93661904Y-59643571D01*
X93661904Y-59643571D02*
X93661904Y-59881666D01*
X93661904Y-59881666D02*
X93614285Y-60072142D01*
X93614285Y-60072142D02*
X93566666Y-60167380D01*
X93566666Y-60167380D02*
X93519047Y-60215000D01*
X93519047Y-60215000D02*
X93423809Y-60262619D01*
X93423809Y-60262619D02*
X93328571Y-60262619D01*
X93328571Y-60262619D02*
X93233333Y-60215000D01*
X93233333Y-60215000D02*
X93185714Y-60167380D01*
X93185714Y-60167380D02*
X93138095Y-60072142D01*
X93138095Y-60072142D02*
X93090476Y-59881666D01*
X93090476Y-59881666D02*
X93090476Y-59643571D01*
X93090476Y-59643571D02*
X93138095Y-59453095D01*
X93138095Y-59453095D02*
X93185714Y-59357857D01*
X93185714Y-59357857D02*
X93233333Y-59310238D01*
X93233333Y-59310238D02*
X93328571Y-59262619D01*
%TO.C,R2*%
X104593333Y-54696076D02*
X104379999Y-54391314D01*
X104227618Y-54696076D02*
X104227618Y-54056076D01*
X104227618Y-54056076D02*
X104471428Y-54056076D01*
X104471428Y-54056076D02*
X104532380Y-54086552D01*
X104532380Y-54086552D02*
X104562857Y-54117028D01*
X104562857Y-54117028D02*
X104593333Y-54177980D01*
X104593333Y-54177980D02*
X104593333Y-54269409D01*
X104593333Y-54269409D02*
X104562857Y-54330361D01*
X104562857Y-54330361D02*
X104532380Y-54360838D01*
X104532380Y-54360838D02*
X104471428Y-54391314D01*
X104471428Y-54391314D02*
X104227618Y-54391314D01*
X104837142Y-54117028D02*
X104867618Y-54086552D01*
X104867618Y-54086552D02*
X104928571Y-54056076D01*
X104928571Y-54056076D02*
X105080952Y-54056076D01*
X105080952Y-54056076D02*
X105141904Y-54086552D01*
X105141904Y-54086552D02*
X105172380Y-54117028D01*
X105172380Y-54117028D02*
X105202857Y-54177980D01*
X105202857Y-54177980D02*
X105202857Y-54238933D01*
X105202857Y-54238933D02*
X105172380Y-54330361D01*
X105172380Y-54330361D02*
X104806666Y-54696076D01*
X104806666Y-54696076D02*
X105202857Y-54696076D01*
%TO.C,C19*%
X114757142Y-69867380D02*
X114709523Y-69915000D01*
X114709523Y-69915000D02*
X114566666Y-69962619D01*
X114566666Y-69962619D02*
X114471428Y-69962619D01*
X114471428Y-69962619D02*
X114328571Y-69915000D01*
X114328571Y-69915000D02*
X114233333Y-69819761D01*
X114233333Y-69819761D02*
X114185714Y-69724523D01*
X114185714Y-69724523D02*
X114138095Y-69534047D01*
X114138095Y-69534047D02*
X114138095Y-69391190D01*
X114138095Y-69391190D02*
X114185714Y-69200714D01*
X114185714Y-69200714D02*
X114233333Y-69105476D01*
X114233333Y-69105476D02*
X114328571Y-69010238D01*
X114328571Y-69010238D02*
X114471428Y-68962619D01*
X114471428Y-68962619D02*
X114566666Y-68962619D01*
X114566666Y-68962619D02*
X114709523Y-69010238D01*
X114709523Y-69010238D02*
X114757142Y-69057857D01*
X115709523Y-69962619D02*
X115138095Y-69962619D01*
X115423809Y-69962619D02*
X115423809Y-68962619D01*
X115423809Y-68962619D02*
X115328571Y-69105476D01*
X115328571Y-69105476D02*
X115233333Y-69200714D01*
X115233333Y-69200714D02*
X115138095Y-69248333D01*
X116185714Y-69962619D02*
X116376190Y-69962619D01*
X116376190Y-69962619D02*
X116471428Y-69915000D01*
X116471428Y-69915000D02*
X116519047Y-69867380D01*
X116519047Y-69867380D02*
X116614285Y-69724523D01*
X116614285Y-69724523D02*
X116661904Y-69534047D01*
X116661904Y-69534047D02*
X116661904Y-69153095D01*
X116661904Y-69153095D02*
X116614285Y-69057857D01*
X116614285Y-69057857D02*
X116566666Y-69010238D01*
X116566666Y-69010238D02*
X116471428Y-68962619D01*
X116471428Y-68962619D02*
X116280952Y-68962619D01*
X116280952Y-68962619D02*
X116185714Y-69010238D01*
X116185714Y-69010238D02*
X116138095Y-69057857D01*
X116138095Y-69057857D02*
X116090476Y-69153095D01*
X116090476Y-69153095D02*
X116090476Y-69391190D01*
X116090476Y-69391190D02*
X116138095Y-69486428D01*
X116138095Y-69486428D02*
X116185714Y-69534047D01*
X116185714Y-69534047D02*
X116280952Y-69581666D01*
X116280952Y-69581666D02*
X116471428Y-69581666D01*
X116471428Y-69581666D02*
X116566666Y-69534047D01*
X116566666Y-69534047D02*
X116614285Y-69486428D01*
X116614285Y-69486428D02*
X116661904Y-69391190D01*
%TO.C,C12*%
X95457142Y-64067380D02*
X95409523Y-64115000D01*
X95409523Y-64115000D02*
X95266666Y-64162619D01*
X95266666Y-64162619D02*
X95171428Y-64162619D01*
X95171428Y-64162619D02*
X95028571Y-64115000D01*
X95028571Y-64115000D02*
X94933333Y-64019761D01*
X94933333Y-64019761D02*
X94885714Y-63924523D01*
X94885714Y-63924523D02*
X94838095Y-63734047D01*
X94838095Y-63734047D02*
X94838095Y-63591190D01*
X94838095Y-63591190D02*
X94885714Y-63400714D01*
X94885714Y-63400714D02*
X94933333Y-63305476D01*
X94933333Y-63305476D02*
X95028571Y-63210238D01*
X95028571Y-63210238D02*
X95171428Y-63162619D01*
X95171428Y-63162619D02*
X95266666Y-63162619D01*
X95266666Y-63162619D02*
X95409523Y-63210238D01*
X95409523Y-63210238D02*
X95457142Y-63257857D01*
X96409523Y-64162619D02*
X95838095Y-64162619D01*
X96123809Y-64162619D02*
X96123809Y-63162619D01*
X96123809Y-63162619D02*
X96028571Y-63305476D01*
X96028571Y-63305476D02*
X95933333Y-63400714D01*
X95933333Y-63400714D02*
X95838095Y-63448333D01*
X96790476Y-63257857D02*
X96838095Y-63210238D01*
X96838095Y-63210238D02*
X96933333Y-63162619D01*
X96933333Y-63162619D02*
X97171428Y-63162619D01*
X97171428Y-63162619D02*
X97266666Y-63210238D01*
X97266666Y-63210238D02*
X97314285Y-63257857D01*
X97314285Y-63257857D02*
X97361904Y-63353095D01*
X97361904Y-63353095D02*
X97361904Y-63448333D01*
X97361904Y-63448333D02*
X97314285Y-63591190D01*
X97314285Y-63591190D02*
X96742857Y-64162619D01*
X96742857Y-64162619D02*
X97361904Y-64162619D01*
D11*
%TO.C,C3*%
X106684420Y-52390000D02*
X106965580Y-52390000D01*
X106684420Y-53410000D02*
X106965580Y-53410000D01*
%TO.C,R5*%
X102222500Y-55787742D02*
X102222500Y-56262258D01*
X101177500Y-55787742D02*
X101177500Y-56262258D01*
%TO.C,R9*%
X101212500Y-70763641D02*
X101212500Y-70456359D01*
X101972500Y-70763641D02*
X101972500Y-70456359D01*
%TO.C,J2*%
X113105000Y-73115000D02*
X113800000Y-73115000D01*
X113105000Y-73800000D02*
X113105000Y-73115000D01*
X113105000Y-74485000D02*
X113105000Y-78360000D01*
X113105000Y-74485000D02*
X113191724Y-74485000D01*
X113105000Y-78360000D02*
X113405507Y-78360000D01*
X114194493Y-78360000D02*
X114495000Y-78360000D01*
X114408276Y-74485000D02*
X114495000Y-74485000D01*
X114495000Y-74485000D02*
X114495000Y-78360000D01*
%TO.C,C2*%
X112284420Y-52290000D02*
X112565580Y-52290000D01*
X112284420Y-53310000D02*
X112565580Y-53310000D01*
%TO.C,R11*%
X89712258Y-61922500D02*
X89237742Y-61922500D01*
X89712258Y-60877500D02*
X89237742Y-60877500D01*
%TO.C,D1*%
X90385000Y-56905000D02*
X90385000Y-57600000D01*
X89700000Y-56905000D02*
X90385000Y-56905000D01*
X89015000Y-56905000D02*
X88140000Y-56905000D01*
X89015000Y-56905000D02*
X89015000Y-56991724D01*
X88140000Y-56905000D02*
X88140000Y-57205507D01*
X88140000Y-57994493D02*
X88140000Y-58295000D01*
X89015000Y-58208276D02*
X89015000Y-58295000D01*
X89015000Y-58295000D02*
X88140000Y-58295000D01*
%TO.C,R14*%
X94137742Y-47677500D02*
X94612258Y-47677500D01*
X94137742Y-48722500D02*
X94612258Y-48722500D01*
%TO.C,R7*%
X93463641Y-52980000D02*
X93156359Y-52980000D01*
X93463641Y-52220000D02*
X93156359Y-52220000D01*
%TO.C,R15*%
X108822500Y-49337742D02*
X108822500Y-49812258D01*
X107777500Y-49337742D02*
X107777500Y-49812258D01*
%TO.C,C1*%
X116810000Y-54734420D02*
X116810000Y-55015580D01*
X115790000Y-54734420D02*
X115790000Y-55015580D01*
%TO.C,U5*%
X114820000Y-62790000D02*
X114820000Y-63690000D01*
X113920000Y-68010000D02*
X114820000Y-68010000D01*
X113920000Y-62790000D02*
X114820000Y-62790000D01*
X110500000Y-68010000D02*
X109600000Y-68010000D01*
X110500000Y-62790000D02*
X109600000Y-62790000D01*
X109600000Y-68010000D02*
X109600000Y-67110000D01*
X109600000Y-62790000D02*
X109600000Y-63690000D01*
%TO.C,R1*%
X110230000Y-55896359D02*
X110230000Y-56203641D01*
X109470000Y-55896359D02*
X109470000Y-56203641D01*
D12*
%TO.C,U4*%
X93075000Y-53595000D02*
X98700000Y-53595000D01*
X98700000Y-58595000D02*
X92700000Y-58595000D01*
D13*
X92925000Y-53545000D02*
G75*
G03*
X92925000Y-53545000I-125000J0D01*
G01*
D11*
%TO.C,C4*%
X109290000Y-53665580D02*
X109290000Y-53384420D01*
X110310000Y-53665580D02*
X110310000Y-53384420D01*
%TO.C,LCD1*%
X92705000Y-62015000D02*
X93400000Y-62015000D01*
X92705000Y-62700000D02*
X92705000Y-62015000D01*
X92705000Y-63385000D02*
X92705000Y-78260000D01*
X92705000Y-63385000D02*
X92791724Y-63385000D01*
X92705000Y-78260000D02*
X93005507Y-78260000D01*
X93794493Y-78260000D02*
X94095000Y-78260000D01*
X94008276Y-63385000D02*
X94095000Y-63385000D01*
X94095000Y-63385000D02*
X94095000Y-78260000D01*
%TO.C,R12*%
X116065000Y-65914564D02*
X116065000Y-65460436D01*
X117535000Y-65914564D02*
X117535000Y-65460436D01*
%TO.C,P1*%
X106560000Y-51410000D02*
X106560000Y-49890000D01*
X106560000Y-51410000D02*
X105060000Y-51410000D01*
X106560000Y-48390000D02*
X106560000Y-44150000D01*
X98560000Y-51410000D02*
X97060000Y-51410000D01*
X97060000Y-51410000D02*
X97060000Y-49890000D01*
X97060000Y-48390000D02*
X97060000Y-44150000D01*
%TO.C,Y2*%
X98500000Y-72100000D02*
X98500000Y-75400000D01*
X98500000Y-75400000D02*
X102500000Y-75400000D01*
%TO.C,SW1*%
X88205000Y-50915000D02*
X88900000Y-50915000D01*
X88205000Y-51600000D02*
X88205000Y-50915000D01*
X88205000Y-52285000D02*
X88205000Y-53160000D01*
X88205000Y-52285000D02*
X88291724Y-52285000D01*
X88205000Y-53160000D02*
X88505507Y-53160000D01*
X89294493Y-53160000D02*
X89595000Y-53160000D01*
X89508276Y-52285000D02*
X89595000Y-52285000D01*
X89595000Y-52285000D02*
X89595000Y-53160000D01*
D12*
%TO.C,U2*%
X106080000Y-54020000D02*
X108080000Y-54020000D01*
X106080000Y-56280000D02*
X108080000Y-56280000D01*
D14*
X105680000Y-54050000D02*
G75*
G03*
X105680000Y-54050000I-100000J0D01*
G01*
D11*
%TO.C,R6*%
X103822500Y-55787742D02*
X103822500Y-56262258D01*
X102777500Y-55787742D02*
X102777500Y-56262258D01*
%TO.C,R8*%
X91463641Y-52980000D02*
X91156359Y-52980000D01*
X91463641Y-52220000D02*
X91156359Y-52220000D01*
%TO.C,J4*%
X107115000Y-78195000D02*
X107115000Y-77500000D01*
X107800000Y-78195000D02*
X107115000Y-78195000D01*
X108485000Y-78195000D02*
X110360000Y-78195000D01*
X108485000Y-78195000D02*
X108485000Y-78108276D01*
X110360000Y-78195000D02*
X110360000Y-77894493D01*
X110360000Y-77105507D02*
X110360000Y-76805000D01*
X108485000Y-76891724D02*
X108485000Y-76805000D01*
X108485000Y-76805000D02*
X110360000Y-76805000D01*
D12*
%TO.C,U3*%
X111470000Y-53970000D02*
X113470000Y-53970000D01*
X111470000Y-56230000D02*
X113470000Y-56230000D01*
D14*
X111070000Y-54000000D02*
G75*
G03*
X111070000Y-54000000I-100000J0D01*
G01*
D11*
%TO.C,C21*%
X115640000Y-61227836D02*
X115640000Y-61012164D01*
X116360000Y-61227836D02*
X116360000Y-61012164D01*
%TO.C,RV1*%
X87800000Y-70950000D02*
X88500000Y-70950000D01*
X89400000Y-70450000D02*
X89800000Y-70450000D01*
X87800000Y-70250000D02*
X87800000Y-70950000D01*
X88000000Y-69350000D02*
X88000000Y-66450000D01*
X91200000Y-69350000D02*
X91200000Y-66450000D01*
X88000000Y-66450000D02*
X88600000Y-66450000D01*
X91200000Y-66450000D02*
X90600000Y-66450000D01*
%TO.C,D2*%
X90385000Y-63005000D02*
X90385000Y-63700000D01*
X89700000Y-63005000D02*
X90385000Y-63005000D01*
X89015000Y-63005000D02*
X88140000Y-63005000D01*
X89015000Y-63005000D02*
X89015000Y-63091724D01*
X88140000Y-63005000D02*
X88140000Y-63305507D01*
X88140000Y-64094493D02*
X88140000Y-64395000D01*
X89015000Y-64308276D02*
X89015000Y-64395000D01*
X89015000Y-64395000D02*
X88140000Y-64395000D01*
%TO.C,R10*%
X89712258Y-60322500D02*
X89237742Y-60322500D01*
X89712258Y-59277500D02*
X89237742Y-59277500D01*
%TO.C,R2*%
X105080000Y-55656359D02*
X105080000Y-55963641D01*
X104320000Y-55656359D02*
X104320000Y-55963641D01*
%TO.C,U1*%
X98190000Y-68810000D02*
X98190000Y-68160000D01*
X98840000Y-61590000D02*
X98190000Y-61590000D01*
X98840000Y-68810000D02*
X98190000Y-68810000D01*
X104760000Y-61590000D02*
X105410000Y-61590000D01*
X104760000Y-68810000D02*
X105410000Y-68810000D01*
X105410000Y-61590000D02*
X105410000Y-62240000D01*
X105410000Y-68810000D02*
X105410000Y-68160000D01*
%TD*%
M02*
