%TF.GenerationSoftware,KiCad,Pcbnew,7.0.1*%
%TF.CreationDate,2024-01-29T14:24:06+02:00*%
%TF.ProjectId,Temp_meter_1.1,54656d70-5f6d-4657-9465-725f312e312e,rev?*%
%TF.SameCoordinates,Original*%
%TF.FileFunction,Legend,Bot*%
%TF.FilePolarity,Positive*%
%FSLAX46Y46*%
G04 Gerber Fmt 4.6, Leading zero omitted, Abs format (unit mm)*
G04 Created by KiCad (PCBNEW 7.0.1) date 2024-01-29 14:24:06*
%MOMM*%
%LPD*%
G01*
G04 APERTURE LIST*
%ADD10C,0.150000*%
%ADD11C,0.125000*%
%ADD12C,0.153000*%
%ADD13C,0.300000*%
G04 APERTURE END LIST*
D10*
X94600000Y-68700000D02*
X97400000Y-68700000D01*
X94600000Y-66800000D02*
X95500000Y-66800000D01*
X94600000Y-74800000D02*
X97300000Y-74800000D01*
X94600000Y-76800000D02*
X97300000Y-76800000D01*
X94600000Y-72800000D02*
X97200000Y-72800000D01*
X107700000Y-76300000D02*
X107700000Y-71900000D01*
X109800000Y-76800000D02*
X109800000Y-76300000D01*
X107700000Y-71900000D02*
X107200000Y-71900000D01*
X107200000Y-73800000D02*
X107200000Y-74000000D01*
X108800000Y-76800000D02*
X108800000Y-76600000D01*
X108800000Y-76600000D02*
X107200000Y-76600000D01*
X109800000Y-76300000D02*
X107700000Y-76300000D01*
X94500000Y-62700000D02*
X96400000Y-62700000D01*
X94600000Y-70700000D02*
X97600000Y-70700000D01*
X88100000Y-52600000D02*
X87600000Y-52200000D01*
X94500000Y-64800000D02*
X97000000Y-64800000D01*
X88100000Y-53000000D02*
X88100000Y-52600000D01*
X107100000Y-77500000D02*
X106600000Y-77500000D01*
X87600000Y-52200000D02*
X87600000Y-51500000D01*
X106900000Y-73800000D02*
X107200000Y-73800000D01*
X88100000Y-51700000D02*
X88100000Y-50900000D01*
X107200000Y-76600000D02*
X107200000Y-74000000D01*
D11*
X119290476Y-60777619D02*
X119623809Y-60301428D01*
X119861904Y-60777619D02*
X119861904Y-59777619D01*
X119861904Y-59777619D02*
X119480952Y-59777619D01*
X119480952Y-59777619D02*
X119385714Y-59825238D01*
X119385714Y-59825238D02*
X119338095Y-59872857D01*
X119338095Y-59872857D02*
X119290476Y-59968095D01*
X119290476Y-59968095D02*
X119290476Y-60110952D01*
X119290476Y-60110952D02*
X119338095Y-60206190D01*
X119338095Y-60206190D02*
X119385714Y-60253809D01*
X119385714Y-60253809D02*
X119480952Y-60301428D01*
X119480952Y-60301428D02*
X119861904Y-60301428D01*
X119004761Y-59777619D02*
X118433333Y-59777619D01*
X118719047Y-60777619D02*
X118719047Y-59777619D01*
X118099999Y-60777619D02*
X118099999Y-59777619D01*
X118099999Y-59777619D02*
X117861904Y-59777619D01*
X117861904Y-59777619D02*
X117719047Y-59825238D01*
X117719047Y-59825238D02*
X117623809Y-59920476D01*
X117623809Y-59920476D02*
X117576190Y-60015714D01*
X117576190Y-60015714D02*
X117528571Y-60206190D01*
X117528571Y-60206190D02*
X117528571Y-60349047D01*
X117528571Y-60349047D02*
X117576190Y-60539523D01*
X117576190Y-60539523D02*
X117623809Y-60634761D01*
X117623809Y-60634761D02*
X117719047Y-60730000D01*
X117719047Y-60730000D02*
X117861904Y-60777619D01*
X117861904Y-60777619D02*
X118099999Y-60777619D01*
D12*
X112509523Y-75930000D02*
X112366666Y-75977619D01*
X112366666Y-75977619D02*
X112128571Y-75977619D01*
X112128571Y-75977619D02*
X112033333Y-75930000D01*
X112033333Y-75930000D02*
X111985714Y-75882380D01*
X111985714Y-75882380D02*
X111938095Y-75787142D01*
X111938095Y-75787142D02*
X111938095Y-75691904D01*
X111938095Y-75691904D02*
X111985714Y-75596666D01*
X111985714Y-75596666D02*
X112033333Y-75549047D01*
X112033333Y-75549047D02*
X112128571Y-75501428D01*
X112128571Y-75501428D02*
X112319047Y-75453809D01*
X112319047Y-75453809D02*
X112414285Y-75406190D01*
X112414285Y-75406190D02*
X112461904Y-75358571D01*
X112461904Y-75358571D02*
X112509523Y-75263333D01*
X112509523Y-75263333D02*
X112509523Y-75168095D01*
X112509523Y-75168095D02*
X112461904Y-75072857D01*
X112461904Y-75072857D02*
X112414285Y-75025238D01*
X112414285Y-75025238D02*
X112319047Y-74977619D01*
X112319047Y-74977619D02*
X112080952Y-74977619D01*
X112080952Y-74977619D02*
X111938095Y-75025238D01*
X111604761Y-75310952D02*
X111414285Y-75977619D01*
X111414285Y-75977619D02*
X111223809Y-75501428D01*
X111223809Y-75501428D02*
X111033333Y-75977619D01*
X111033333Y-75977619D02*
X110842857Y-75310952D01*
X110461904Y-75977619D02*
X110461904Y-75310952D01*
X110461904Y-74977619D02*
X110509523Y-75025238D01*
X110509523Y-75025238D02*
X110461904Y-75072857D01*
X110461904Y-75072857D02*
X110414285Y-75025238D01*
X110414285Y-75025238D02*
X110461904Y-74977619D01*
X110461904Y-74977619D02*
X110461904Y-75072857D01*
X110128571Y-75310952D02*
X109747619Y-75310952D01*
X109985714Y-74977619D02*
X109985714Y-75834761D01*
X109985714Y-75834761D02*
X109938095Y-75930000D01*
X109938095Y-75930000D02*
X109842857Y-75977619D01*
X109842857Y-75977619D02*
X109747619Y-75977619D01*
X108985714Y-75930000D02*
X109080952Y-75977619D01*
X109080952Y-75977619D02*
X109271428Y-75977619D01*
X109271428Y-75977619D02*
X109366666Y-75930000D01*
X109366666Y-75930000D02*
X109414285Y-75882380D01*
X109414285Y-75882380D02*
X109461904Y-75787142D01*
X109461904Y-75787142D02*
X109461904Y-75501428D01*
X109461904Y-75501428D02*
X109414285Y-75406190D01*
X109414285Y-75406190D02*
X109366666Y-75358571D01*
X109366666Y-75358571D02*
X109271428Y-75310952D01*
X109271428Y-75310952D02*
X109080952Y-75310952D01*
X109080952Y-75310952D02*
X108985714Y-75358571D01*
X108557142Y-75977619D02*
X108557142Y-74977619D01*
X108128571Y-75977619D02*
X108128571Y-75453809D01*
X108128571Y-75453809D02*
X108176190Y-75358571D01*
X108176190Y-75358571D02*
X108271428Y-75310952D01*
X108271428Y-75310952D02*
X108414285Y-75310952D01*
X108414285Y-75310952D02*
X108509523Y-75358571D01*
X108509523Y-75358571D02*
X108557142Y-75406190D01*
D11*
X119614285Y-52477619D02*
X119423809Y-52477619D01*
X119423809Y-52477619D02*
X119328571Y-52430000D01*
X119328571Y-52430000D02*
X119280952Y-52382380D01*
X119280952Y-52382380D02*
X119185714Y-52239523D01*
X119185714Y-52239523D02*
X119138095Y-52049047D01*
X119138095Y-52049047D02*
X119138095Y-51668095D01*
X119138095Y-51668095D02*
X119185714Y-51572857D01*
X119185714Y-51572857D02*
X119233333Y-51525238D01*
X119233333Y-51525238D02*
X119328571Y-51477619D01*
X119328571Y-51477619D02*
X119519047Y-51477619D01*
X119519047Y-51477619D02*
X119614285Y-51525238D01*
X119614285Y-51525238D02*
X119661904Y-51572857D01*
X119661904Y-51572857D02*
X119709523Y-51668095D01*
X119709523Y-51668095D02*
X119709523Y-51906190D01*
X119709523Y-51906190D02*
X119661904Y-52001428D01*
X119661904Y-52001428D02*
X119614285Y-52049047D01*
X119614285Y-52049047D02*
X119519047Y-52096666D01*
X119519047Y-52096666D02*
X119328571Y-52096666D01*
X119328571Y-52096666D02*
X119233333Y-52049047D01*
X119233333Y-52049047D02*
X119185714Y-52001428D01*
X119185714Y-52001428D02*
X119138095Y-51906190D01*
X118852380Y-51477619D02*
X118519047Y-52477619D01*
X118519047Y-52477619D02*
X118185714Y-51477619D01*
D12*
X100361904Y-76896666D02*
X99600000Y-76896666D01*
X99980952Y-77277619D02*
X99980952Y-76515714D01*
X98647619Y-76277619D02*
X99123809Y-76277619D01*
X99123809Y-76277619D02*
X99171428Y-76753809D01*
X99171428Y-76753809D02*
X99123809Y-76706190D01*
X99123809Y-76706190D02*
X99028571Y-76658571D01*
X99028571Y-76658571D02*
X98790476Y-76658571D01*
X98790476Y-76658571D02*
X98695238Y-76706190D01*
X98695238Y-76706190D02*
X98647619Y-76753809D01*
X98647619Y-76753809D02*
X98600000Y-76849047D01*
X98600000Y-76849047D02*
X98600000Y-77087142D01*
X98600000Y-77087142D02*
X98647619Y-77182380D01*
X98647619Y-77182380D02*
X98695238Y-77230000D01*
X98695238Y-77230000D02*
X98790476Y-77277619D01*
X98790476Y-77277619D02*
X99028571Y-77277619D01*
X99028571Y-77277619D02*
X99123809Y-77230000D01*
X99123809Y-77230000D02*
X99171428Y-77182380D01*
X98314285Y-76277619D02*
X97980952Y-77277619D01*
X97980952Y-77277619D02*
X97647619Y-76277619D01*
D13*
X113442857Y-54616428D02*
X113442857Y-53116428D01*
X113442857Y-53116428D02*
X112871428Y-53116428D01*
X112871428Y-53116428D02*
X112728571Y-53187857D01*
X112728571Y-53187857D02*
X112657142Y-53259285D01*
X112657142Y-53259285D02*
X112585714Y-53402142D01*
X112585714Y-53402142D02*
X112585714Y-53616428D01*
X112585714Y-53616428D02*
X112657142Y-53759285D01*
X112657142Y-53759285D02*
X112728571Y-53830714D01*
X112728571Y-53830714D02*
X112871428Y-53902142D01*
X112871428Y-53902142D02*
X113442857Y-53902142D01*
X111942857Y-54616428D02*
X111942857Y-53616428D01*
X111942857Y-53902142D02*
X111871428Y-53759285D01*
X111871428Y-53759285D02*
X111800000Y-53687857D01*
X111800000Y-53687857D02*
X111657142Y-53616428D01*
X111657142Y-53616428D02*
X111514285Y-53616428D01*
X110800000Y-54616428D02*
X110942857Y-54545000D01*
X110942857Y-54545000D02*
X111014286Y-54473571D01*
X111014286Y-54473571D02*
X111085714Y-54330714D01*
X111085714Y-54330714D02*
X111085714Y-53902142D01*
X111085714Y-53902142D02*
X111014286Y-53759285D01*
X111014286Y-53759285D02*
X110942857Y-53687857D01*
X110942857Y-53687857D02*
X110800000Y-53616428D01*
X110800000Y-53616428D02*
X110585714Y-53616428D01*
X110585714Y-53616428D02*
X110442857Y-53687857D01*
X110442857Y-53687857D02*
X110371429Y-53759285D01*
X110371429Y-53759285D02*
X110300000Y-53902142D01*
X110300000Y-53902142D02*
X110300000Y-54330714D01*
X110300000Y-54330714D02*
X110371429Y-54473571D01*
X110371429Y-54473571D02*
X110442857Y-54545000D01*
X110442857Y-54545000D02*
X110585714Y-54616428D01*
X110585714Y-54616428D02*
X110800000Y-54616428D01*
X109871428Y-53616428D02*
X109300000Y-53616428D01*
X109657143Y-53116428D02*
X109657143Y-54402142D01*
X109657143Y-54402142D02*
X109585714Y-54545000D01*
X109585714Y-54545000D02*
X109442857Y-54616428D01*
X109442857Y-54616428D02*
X109300000Y-54616428D01*
X108585714Y-54616428D02*
X108728571Y-54545000D01*
X108728571Y-54545000D02*
X108800000Y-54473571D01*
X108800000Y-54473571D02*
X108871428Y-54330714D01*
X108871428Y-54330714D02*
X108871428Y-53902142D01*
X108871428Y-53902142D02*
X108800000Y-53759285D01*
X108800000Y-53759285D02*
X108728571Y-53687857D01*
X108728571Y-53687857D02*
X108585714Y-53616428D01*
X108585714Y-53616428D02*
X108371428Y-53616428D01*
X108371428Y-53616428D02*
X108228571Y-53687857D01*
X108228571Y-53687857D02*
X108157143Y-53759285D01*
X108157143Y-53759285D02*
X108085714Y-53902142D01*
X108085714Y-53902142D02*
X108085714Y-54330714D01*
X108085714Y-54330714D02*
X108157143Y-54473571D01*
X108157143Y-54473571D02*
X108228571Y-54545000D01*
X108228571Y-54545000D02*
X108371428Y-54616428D01*
X108371428Y-54616428D02*
X108585714Y-54616428D01*
X107657142Y-53616428D02*
X107085714Y-53616428D01*
X107442857Y-53116428D02*
X107442857Y-54402142D01*
X107442857Y-54402142D02*
X107371428Y-54545000D01*
X107371428Y-54545000D02*
X107228571Y-54616428D01*
X107228571Y-54616428D02*
X107085714Y-54616428D01*
X106728571Y-53616428D02*
X106371428Y-54616428D01*
X106014285Y-53616428D02*
X106371428Y-54616428D01*
X106371428Y-54616428D02*
X106514285Y-54973571D01*
X106514285Y-54973571D02*
X106585714Y-55045000D01*
X106585714Y-55045000D02*
X106728571Y-55116428D01*
X105442857Y-53616428D02*
X105442857Y-55116428D01*
X105442857Y-53687857D02*
X105300000Y-53616428D01*
X105300000Y-53616428D02*
X105014285Y-53616428D01*
X105014285Y-53616428D02*
X104871428Y-53687857D01*
X104871428Y-53687857D02*
X104800000Y-53759285D01*
X104800000Y-53759285D02*
X104728571Y-53902142D01*
X104728571Y-53902142D02*
X104728571Y-54330714D01*
X104728571Y-54330714D02*
X104800000Y-54473571D01*
X104800000Y-54473571D02*
X104871428Y-54545000D01*
X104871428Y-54545000D02*
X105014285Y-54616428D01*
X105014285Y-54616428D02*
X105300000Y-54616428D01*
X105300000Y-54616428D02*
X105442857Y-54545000D01*
X103514285Y-54545000D02*
X103657142Y-54616428D01*
X103657142Y-54616428D02*
X103942857Y-54616428D01*
X103942857Y-54616428D02*
X104085714Y-54545000D01*
X104085714Y-54545000D02*
X104157142Y-54402142D01*
X104157142Y-54402142D02*
X104157142Y-53830714D01*
X104157142Y-53830714D02*
X104085714Y-53687857D01*
X104085714Y-53687857D02*
X103942857Y-53616428D01*
X103942857Y-53616428D02*
X103657142Y-53616428D01*
X103657142Y-53616428D02*
X103514285Y-53687857D01*
X103514285Y-53687857D02*
X103442857Y-53830714D01*
X103442857Y-53830714D02*
X103442857Y-53973571D01*
X103442857Y-53973571D02*
X104157142Y-54116428D01*
X101871428Y-53116428D02*
X101371428Y-54616428D01*
X101371428Y-54616428D02*
X100871428Y-53116428D01*
X99585714Y-54616428D02*
X100442857Y-54616428D01*
X100014286Y-54616428D02*
X100014286Y-53116428D01*
X100014286Y-53116428D02*
X100157143Y-53330714D01*
X100157143Y-53330714D02*
X100300000Y-53473571D01*
X100300000Y-53473571D02*
X100442857Y-53545000D01*
X98942858Y-54473571D02*
X98871429Y-54545000D01*
X98871429Y-54545000D02*
X98942858Y-54616428D01*
X98942858Y-54616428D02*
X99014286Y-54545000D01*
X99014286Y-54545000D02*
X98942858Y-54473571D01*
X98942858Y-54473571D02*
X98942858Y-54616428D01*
X97942857Y-53116428D02*
X97800000Y-53116428D01*
X97800000Y-53116428D02*
X97657143Y-53187857D01*
X97657143Y-53187857D02*
X97585715Y-53259285D01*
X97585715Y-53259285D02*
X97514286Y-53402142D01*
X97514286Y-53402142D02*
X97442857Y-53687857D01*
X97442857Y-53687857D02*
X97442857Y-54045000D01*
X97442857Y-54045000D02*
X97514286Y-54330714D01*
X97514286Y-54330714D02*
X97585715Y-54473571D01*
X97585715Y-54473571D02*
X97657143Y-54545000D01*
X97657143Y-54545000D02*
X97800000Y-54616428D01*
X97800000Y-54616428D02*
X97942857Y-54616428D01*
X97942857Y-54616428D02*
X98085715Y-54545000D01*
X98085715Y-54545000D02*
X98157143Y-54473571D01*
X98157143Y-54473571D02*
X98228572Y-54330714D01*
X98228572Y-54330714D02*
X98300000Y-54045000D01*
X98300000Y-54045000D02*
X98300000Y-53687857D01*
X98300000Y-53687857D02*
X98228572Y-53402142D01*
X98228572Y-53402142D02*
X98157143Y-53259285D01*
X98157143Y-53259285D02*
X98085715Y-53187857D01*
X98085715Y-53187857D02*
X97942857Y-53116428D01*
D12*
X100561904Y-73177619D02*
X100561904Y-72177619D01*
X100561904Y-72177619D02*
X100323809Y-72177619D01*
X100323809Y-72177619D02*
X100180952Y-72225238D01*
X100180952Y-72225238D02*
X100085714Y-72320476D01*
X100085714Y-72320476D02*
X100038095Y-72415714D01*
X100038095Y-72415714D02*
X99990476Y-72606190D01*
X99990476Y-72606190D02*
X99990476Y-72749047D01*
X99990476Y-72749047D02*
X100038095Y-72939523D01*
X100038095Y-72939523D02*
X100085714Y-73034761D01*
X100085714Y-73034761D02*
X100180952Y-73130000D01*
X100180952Y-73130000D02*
X100323809Y-73177619D01*
X100323809Y-73177619D02*
X100561904Y-73177619D01*
X99228571Y-72653809D02*
X99085714Y-72701428D01*
X99085714Y-72701428D02*
X99038095Y-72749047D01*
X99038095Y-72749047D02*
X98990476Y-72844285D01*
X98990476Y-72844285D02*
X98990476Y-72987142D01*
X98990476Y-72987142D02*
X99038095Y-73082380D01*
X99038095Y-73082380D02*
X99085714Y-73130000D01*
X99085714Y-73130000D02*
X99180952Y-73177619D01*
X99180952Y-73177619D02*
X99561904Y-73177619D01*
X99561904Y-73177619D02*
X99561904Y-72177619D01*
X99561904Y-72177619D02*
X99228571Y-72177619D01*
X99228571Y-72177619D02*
X99133333Y-72225238D01*
X99133333Y-72225238D02*
X99085714Y-72272857D01*
X99085714Y-72272857D02*
X99038095Y-72368095D01*
X99038095Y-72368095D02*
X99038095Y-72463333D01*
X99038095Y-72463333D02*
X99085714Y-72558571D01*
X99085714Y-72558571D02*
X99133333Y-72606190D01*
X99133333Y-72606190D02*
X99228571Y-72653809D01*
X99228571Y-72653809D02*
X99561904Y-72653809D01*
X98133333Y-72510952D02*
X98133333Y-73177619D01*
X98371428Y-72130000D02*
X98609523Y-72844285D01*
X98609523Y-72844285D02*
X97990476Y-72844285D01*
X112561904Y-74296666D02*
X111800000Y-74296666D01*
X112180952Y-74677619D02*
X112180952Y-73915714D01*
X111419047Y-73677619D02*
X110800000Y-73677619D01*
X110800000Y-73677619D02*
X111133333Y-74058571D01*
X111133333Y-74058571D02*
X110990476Y-74058571D01*
X110990476Y-74058571D02*
X110895238Y-74106190D01*
X110895238Y-74106190D02*
X110847619Y-74153809D01*
X110847619Y-74153809D02*
X110800000Y-74249047D01*
X110800000Y-74249047D02*
X110800000Y-74487142D01*
X110800000Y-74487142D02*
X110847619Y-74582380D01*
X110847619Y-74582380D02*
X110895238Y-74630000D01*
X110895238Y-74630000D02*
X110990476Y-74677619D01*
X110990476Y-74677619D02*
X111276190Y-74677619D01*
X111276190Y-74677619D02*
X111371428Y-74630000D01*
X111371428Y-74630000D02*
X111419047Y-74582380D01*
X110371428Y-74582380D02*
X110323809Y-74630000D01*
X110323809Y-74630000D02*
X110371428Y-74677619D01*
X110371428Y-74677619D02*
X110419047Y-74630000D01*
X110419047Y-74630000D02*
X110371428Y-74582380D01*
X110371428Y-74582380D02*
X110371428Y-74677619D01*
X109990476Y-73677619D02*
X109371429Y-73677619D01*
X109371429Y-73677619D02*
X109704762Y-74058571D01*
X109704762Y-74058571D02*
X109561905Y-74058571D01*
X109561905Y-74058571D02*
X109466667Y-74106190D01*
X109466667Y-74106190D02*
X109419048Y-74153809D01*
X109419048Y-74153809D02*
X109371429Y-74249047D01*
X109371429Y-74249047D02*
X109371429Y-74487142D01*
X109371429Y-74487142D02*
X109419048Y-74582380D01*
X109419048Y-74582380D02*
X109466667Y-74630000D01*
X109466667Y-74630000D02*
X109561905Y-74677619D01*
X109561905Y-74677619D02*
X109847619Y-74677619D01*
X109847619Y-74677619D02*
X109942857Y-74630000D01*
X109942857Y-74630000D02*
X109990476Y-74582380D01*
X109085714Y-73677619D02*
X108752381Y-74677619D01*
X108752381Y-74677619D02*
X108419048Y-73677619D01*
X100161904Y-75277619D02*
X100161904Y-74277619D01*
X100161904Y-74277619D02*
X99923809Y-74277619D01*
X99923809Y-74277619D02*
X99780952Y-74325238D01*
X99780952Y-74325238D02*
X99685714Y-74420476D01*
X99685714Y-74420476D02*
X99638095Y-74515714D01*
X99638095Y-74515714D02*
X99590476Y-74706190D01*
X99590476Y-74706190D02*
X99590476Y-74849047D01*
X99590476Y-74849047D02*
X99638095Y-75039523D01*
X99638095Y-75039523D02*
X99685714Y-75134761D01*
X99685714Y-75134761D02*
X99780952Y-75230000D01*
X99780952Y-75230000D02*
X99923809Y-75277619D01*
X99923809Y-75277619D02*
X100161904Y-75277619D01*
X98828571Y-74753809D02*
X98685714Y-74801428D01*
X98685714Y-74801428D02*
X98638095Y-74849047D01*
X98638095Y-74849047D02*
X98590476Y-74944285D01*
X98590476Y-74944285D02*
X98590476Y-75087142D01*
X98590476Y-75087142D02*
X98638095Y-75182380D01*
X98638095Y-75182380D02*
X98685714Y-75230000D01*
X98685714Y-75230000D02*
X98780952Y-75277619D01*
X98780952Y-75277619D02*
X99161904Y-75277619D01*
X99161904Y-75277619D02*
X99161904Y-74277619D01*
X99161904Y-74277619D02*
X98828571Y-74277619D01*
X98828571Y-74277619D02*
X98733333Y-74325238D01*
X98733333Y-74325238D02*
X98685714Y-74372857D01*
X98685714Y-74372857D02*
X98638095Y-74468095D01*
X98638095Y-74468095D02*
X98638095Y-74563333D01*
X98638095Y-74563333D02*
X98685714Y-74658571D01*
X98685714Y-74658571D02*
X98733333Y-74706190D01*
X98733333Y-74706190D02*
X98828571Y-74753809D01*
X98828571Y-74753809D02*
X99161904Y-74753809D01*
X97733333Y-74277619D02*
X97923809Y-74277619D01*
X97923809Y-74277619D02*
X98019047Y-74325238D01*
X98019047Y-74325238D02*
X98066666Y-74372857D01*
X98066666Y-74372857D02*
X98161904Y-74515714D01*
X98161904Y-74515714D02*
X98209523Y-74706190D01*
X98209523Y-74706190D02*
X98209523Y-75087142D01*
X98209523Y-75087142D02*
X98161904Y-75182380D01*
X98161904Y-75182380D02*
X98114285Y-75230000D01*
X98114285Y-75230000D02*
X98019047Y-75277619D01*
X98019047Y-75277619D02*
X97828571Y-75277619D01*
X97828571Y-75277619D02*
X97733333Y-75230000D01*
X97733333Y-75230000D02*
X97685714Y-75182380D01*
X97685714Y-75182380D02*
X97638095Y-75087142D01*
X97638095Y-75087142D02*
X97638095Y-74849047D01*
X97638095Y-74849047D02*
X97685714Y-74753809D01*
X97685714Y-74753809D02*
X97733333Y-74706190D01*
X97733333Y-74706190D02*
X97828571Y-74658571D01*
X97828571Y-74658571D02*
X98019047Y-74658571D01*
X98019047Y-74658571D02*
X98114285Y-74706190D01*
X98114285Y-74706190D02*
X98161904Y-74753809D01*
X98161904Y-74753809D02*
X98209523Y-74849047D01*
D11*
X117761904Y-61996666D02*
X117000000Y-61996666D01*
X117380952Y-62377619D02*
X117380952Y-61615714D01*
D12*
X112128571Y-76753809D02*
X111985714Y-76801428D01*
X111985714Y-76801428D02*
X111938095Y-76849047D01*
X111938095Y-76849047D02*
X111890476Y-76944285D01*
X111890476Y-76944285D02*
X111890476Y-77087142D01*
X111890476Y-77087142D02*
X111938095Y-77182380D01*
X111938095Y-77182380D02*
X111985714Y-77230000D01*
X111985714Y-77230000D02*
X112080952Y-77277619D01*
X112080952Y-77277619D02*
X112461904Y-77277619D01*
X112461904Y-77277619D02*
X112461904Y-76277619D01*
X112461904Y-76277619D02*
X112128571Y-76277619D01*
X112128571Y-76277619D02*
X112033333Y-76325238D01*
X112033333Y-76325238D02*
X111985714Y-76372857D01*
X111985714Y-76372857D02*
X111938095Y-76468095D01*
X111938095Y-76468095D02*
X111938095Y-76563333D01*
X111938095Y-76563333D02*
X111985714Y-76658571D01*
X111985714Y-76658571D02*
X112033333Y-76706190D01*
X112033333Y-76706190D02*
X112128571Y-76753809D01*
X112128571Y-76753809D02*
X112461904Y-76753809D01*
X100261904Y-69177619D02*
X100261904Y-68177619D01*
X100261904Y-68177619D02*
X100023809Y-68177619D01*
X100023809Y-68177619D02*
X99880952Y-68225238D01*
X99880952Y-68225238D02*
X99785714Y-68320476D01*
X99785714Y-68320476D02*
X99738095Y-68415714D01*
X99738095Y-68415714D02*
X99690476Y-68606190D01*
X99690476Y-68606190D02*
X99690476Y-68749047D01*
X99690476Y-68749047D02*
X99738095Y-68939523D01*
X99738095Y-68939523D02*
X99785714Y-69034761D01*
X99785714Y-69034761D02*
X99880952Y-69130000D01*
X99880952Y-69130000D02*
X100023809Y-69177619D01*
X100023809Y-69177619D02*
X100261904Y-69177619D01*
X98928571Y-68653809D02*
X98785714Y-68701428D01*
X98785714Y-68701428D02*
X98738095Y-68749047D01*
X98738095Y-68749047D02*
X98690476Y-68844285D01*
X98690476Y-68844285D02*
X98690476Y-68987142D01*
X98690476Y-68987142D02*
X98738095Y-69082380D01*
X98738095Y-69082380D02*
X98785714Y-69130000D01*
X98785714Y-69130000D02*
X98880952Y-69177619D01*
X98880952Y-69177619D02*
X99261904Y-69177619D01*
X99261904Y-69177619D02*
X99261904Y-68177619D01*
X99261904Y-68177619D02*
X98928571Y-68177619D01*
X98928571Y-68177619D02*
X98833333Y-68225238D01*
X98833333Y-68225238D02*
X98785714Y-68272857D01*
X98785714Y-68272857D02*
X98738095Y-68368095D01*
X98738095Y-68368095D02*
X98738095Y-68463333D01*
X98738095Y-68463333D02*
X98785714Y-68558571D01*
X98785714Y-68558571D02*
X98833333Y-68606190D01*
X98833333Y-68606190D02*
X98928571Y-68653809D01*
X98928571Y-68653809D02*
X99261904Y-68653809D01*
X98071428Y-68177619D02*
X97976190Y-68177619D01*
X97976190Y-68177619D02*
X97880952Y-68225238D01*
X97880952Y-68225238D02*
X97833333Y-68272857D01*
X97833333Y-68272857D02*
X97785714Y-68368095D01*
X97785714Y-68368095D02*
X97738095Y-68558571D01*
X97738095Y-68558571D02*
X97738095Y-68796666D01*
X97738095Y-68796666D02*
X97785714Y-68987142D01*
X97785714Y-68987142D02*
X97833333Y-69082380D01*
X97833333Y-69082380D02*
X97880952Y-69130000D01*
X97880952Y-69130000D02*
X97976190Y-69177619D01*
X97976190Y-69177619D02*
X98071428Y-69177619D01*
X98071428Y-69177619D02*
X98166666Y-69130000D01*
X98166666Y-69130000D02*
X98214285Y-69082380D01*
X98214285Y-69082380D02*
X98261904Y-68987142D01*
X98261904Y-68987142D02*
X98309523Y-68796666D01*
X98309523Y-68796666D02*
X98309523Y-68558571D01*
X98309523Y-68558571D02*
X98261904Y-68368095D01*
X98261904Y-68368095D02*
X98214285Y-68272857D01*
X98214285Y-68272857D02*
X98166666Y-68225238D01*
X98166666Y-68225238D02*
X98071428Y-68177619D01*
X98738095Y-62225238D02*
X98833333Y-62177619D01*
X98833333Y-62177619D02*
X98976190Y-62177619D01*
X98976190Y-62177619D02*
X99119047Y-62225238D01*
X99119047Y-62225238D02*
X99214285Y-62320476D01*
X99214285Y-62320476D02*
X99261904Y-62415714D01*
X99261904Y-62415714D02*
X99309523Y-62606190D01*
X99309523Y-62606190D02*
X99309523Y-62749047D01*
X99309523Y-62749047D02*
X99261904Y-62939523D01*
X99261904Y-62939523D02*
X99214285Y-63034761D01*
X99214285Y-63034761D02*
X99119047Y-63130000D01*
X99119047Y-63130000D02*
X98976190Y-63177619D01*
X98976190Y-63177619D02*
X98880952Y-63177619D01*
X98880952Y-63177619D02*
X98738095Y-63130000D01*
X98738095Y-63130000D02*
X98690476Y-63082380D01*
X98690476Y-63082380D02*
X98690476Y-62749047D01*
X98690476Y-62749047D02*
X98880952Y-62749047D01*
X98261904Y-63177619D02*
X98261904Y-62177619D01*
X98261904Y-62177619D02*
X97690476Y-63177619D01*
X97690476Y-63177619D02*
X97690476Y-62177619D01*
X97214285Y-63177619D02*
X97214285Y-62177619D01*
X97214285Y-62177619D02*
X96976190Y-62177619D01*
X96976190Y-62177619D02*
X96833333Y-62225238D01*
X96833333Y-62225238D02*
X96738095Y-62320476D01*
X96738095Y-62320476D02*
X96690476Y-62415714D01*
X96690476Y-62415714D02*
X96642857Y-62606190D01*
X96642857Y-62606190D02*
X96642857Y-62749047D01*
X96642857Y-62749047D02*
X96690476Y-62939523D01*
X96690476Y-62939523D02*
X96738095Y-63034761D01*
X96738095Y-63034761D02*
X96833333Y-63130000D01*
X96833333Y-63130000D02*
X96976190Y-63177619D01*
X96976190Y-63177619D02*
X97214285Y-63177619D01*
D11*
X89061904Y-64796666D02*
X88300000Y-64796666D01*
X88680952Y-65177619D02*
X88680952Y-64415714D01*
D12*
X97161904Y-72177619D02*
X97161904Y-71177619D01*
X97161904Y-71177619D02*
X96923809Y-71177619D01*
X96923809Y-71177619D02*
X96780952Y-71225238D01*
X96780952Y-71225238D02*
X96685714Y-71320476D01*
X96685714Y-71320476D02*
X96638095Y-71415714D01*
X96638095Y-71415714D02*
X96590476Y-71606190D01*
X96590476Y-71606190D02*
X96590476Y-71749047D01*
X96590476Y-71749047D02*
X96638095Y-71939523D01*
X96638095Y-71939523D02*
X96685714Y-72034761D01*
X96685714Y-72034761D02*
X96780952Y-72130000D01*
X96780952Y-72130000D02*
X96923809Y-72177619D01*
X96923809Y-72177619D02*
X97161904Y-72177619D01*
X95828571Y-71653809D02*
X95685714Y-71701428D01*
X95685714Y-71701428D02*
X95638095Y-71749047D01*
X95638095Y-71749047D02*
X95590476Y-71844285D01*
X95590476Y-71844285D02*
X95590476Y-71987142D01*
X95590476Y-71987142D02*
X95638095Y-72082380D01*
X95638095Y-72082380D02*
X95685714Y-72130000D01*
X95685714Y-72130000D02*
X95780952Y-72177619D01*
X95780952Y-72177619D02*
X96161904Y-72177619D01*
X96161904Y-72177619D02*
X96161904Y-71177619D01*
X96161904Y-71177619D02*
X95828571Y-71177619D01*
X95828571Y-71177619D02*
X95733333Y-71225238D01*
X95733333Y-71225238D02*
X95685714Y-71272857D01*
X95685714Y-71272857D02*
X95638095Y-71368095D01*
X95638095Y-71368095D02*
X95638095Y-71463333D01*
X95638095Y-71463333D02*
X95685714Y-71558571D01*
X95685714Y-71558571D02*
X95733333Y-71606190D01*
X95733333Y-71606190D02*
X95828571Y-71653809D01*
X95828571Y-71653809D02*
X96161904Y-71653809D01*
X95257142Y-71177619D02*
X94638095Y-71177619D01*
X94638095Y-71177619D02*
X94971428Y-71558571D01*
X94971428Y-71558571D02*
X94828571Y-71558571D01*
X94828571Y-71558571D02*
X94733333Y-71606190D01*
X94733333Y-71606190D02*
X94685714Y-71653809D01*
X94685714Y-71653809D02*
X94638095Y-71749047D01*
X94638095Y-71749047D02*
X94638095Y-71987142D01*
X94638095Y-71987142D02*
X94685714Y-72082380D01*
X94685714Y-72082380D02*
X94733333Y-72130000D01*
X94733333Y-72130000D02*
X94828571Y-72177619D01*
X94828571Y-72177619D02*
X95114285Y-72177619D01*
X95114285Y-72177619D02*
X95209523Y-72130000D01*
X95209523Y-72130000D02*
X95257142Y-72082380D01*
X100461904Y-71177619D02*
X100461904Y-70177619D01*
X100461904Y-70177619D02*
X100223809Y-70177619D01*
X100223809Y-70177619D02*
X100080952Y-70225238D01*
X100080952Y-70225238D02*
X99985714Y-70320476D01*
X99985714Y-70320476D02*
X99938095Y-70415714D01*
X99938095Y-70415714D02*
X99890476Y-70606190D01*
X99890476Y-70606190D02*
X99890476Y-70749047D01*
X99890476Y-70749047D02*
X99938095Y-70939523D01*
X99938095Y-70939523D02*
X99985714Y-71034761D01*
X99985714Y-71034761D02*
X100080952Y-71130000D01*
X100080952Y-71130000D02*
X100223809Y-71177619D01*
X100223809Y-71177619D02*
X100461904Y-71177619D01*
X99128571Y-70653809D02*
X98985714Y-70701428D01*
X98985714Y-70701428D02*
X98938095Y-70749047D01*
X98938095Y-70749047D02*
X98890476Y-70844285D01*
X98890476Y-70844285D02*
X98890476Y-70987142D01*
X98890476Y-70987142D02*
X98938095Y-71082380D01*
X98938095Y-71082380D02*
X98985714Y-71130000D01*
X98985714Y-71130000D02*
X99080952Y-71177619D01*
X99080952Y-71177619D02*
X99461904Y-71177619D01*
X99461904Y-71177619D02*
X99461904Y-70177619D01*
X99461904Y-70177619D02*
X99128571Y-70177619D01*
X99128571Y-70177619D02*
X99033333Y-70225238D01*
X99033333Y-70225238D02*
X98985714Y-70272857D01*
X98985714Y-70272857D02*
X98938095Y-70368095D01*
X98938095Y-70368095D02*
X98938095Y-70463333D01*
X98938095Y-70463333D02*
X98985714Y-70558571D01*
X98985714Y-70558571D02*
X99033333Y-70606190D01*
X99033333Y-70606190D02*
X99128571Y-70653809D01*
X99128571Y-70653809D02*
X99461904Y-70653809D01*
X98509523Y-70272857D02*
X98461904Y-70225238D01*
X98461904Y-70225238D02*
X98366666Y-70177619D01*
X98366666Y-70177619D02*
X98128571Y-70177619D01*
X98128571Y-70177619D02*
X98033333Y-70225238D01*
X98033333Y-70225238D02*
X97985714Y-70272857D01*
X97985714Y-70272857D02*
X97938095Y-70368095D01*
X97938095Y-70368095D02*
X97938095Y-70463333D01*
X97938095Y-70463333D02*
X97985714Y-70606190D01*
X97985714Y-70606190D02*
X98557142Y-71177619D01*
X98557142Y-71177619D02*
X97938095Y-71177619D01*
X97261904Y-70127619D02*
X97261904Y-69127619D01*
X97261904Y-69127619D02*
X97023809Y-69127619D01*
X97023809Y-69127619D02*
X96880952Y-69175238D01*
X96880952Y-69175238D02*
X96785714Y-69270476D01*
X96785714Y-69270476D02*
X96738095Y-69365714D01*
X96738095Y-69365714D02*
X96690476Y-69556190D01*
X96690476Y-69556190D02*
X96690476Y-69699047D01*
X96690476Y-69699047D02*
X96738095Y-69889523D01*
X96738095Y-69889523D02*
X96785714Y-69984761D01*
X96785714Y-69984761D02*
X96880952Y-70080000D01*
X96880952Y-70080000D02*
X97023809Y-70127619D01*
X97023809Y-70127619D02*
X97261904Y-70127619D01*
X95928571Y-69603809D02*
X95785714Y-69651428D01*
X95785714Y-69651428D02*
X95738095Y-69699047D01*
X95738095Y-69699047D02*
X95690476Y-69794285D01*
X95690476Y-69794285D02*
X95690476Y-69937142D01*
X95690476Y-69937142D02*
X95738095Y-70032380D01*
X95738095Y-70032380D02*
X95785714Y-70080000D01*
X95785714Y-70080000D02*
X95880952Y-70127619D01*
X95880952Y-70127619D02*
X96261904Y-70127619D01*
X96261904Y-70127619D02*
X96261904Y-69127619D01*
X96261904Y-69127619D02*
X95928571Y-69127619D01*
X95928571Y-69127619D02*
X95833333Y-69175238D01*
X95833333Y-69175238D02*
X95785714Y-69222857D01*
X95785714Y-69222857D02*
X95738095Y-69318095D01*
X95738095Y-69318095D02*
X95738095Y-69413333D01*
X95738095Y-69413333D02*
X95785714Y-69508571D01*
X95785714Y-69508571D02*
X95833333Y-69556190D01*
X95833333Y-69556190D02*
X95928571Y-69603809D01*
X95928571Y-69603809D02*
X96261904Y-69603809D01*
X94738095Y-70127619D02*
X95309523Y-70127619D01*
X95023809Y-70127619D02*
X95023809Y-69127619D01*
X95023809Y-69127619D02*
X95119047Y-69270476D01*
X95119047Y-69270476D02*
X95214285Y-69365714D01*
X95214285Y-69365714D02*
X95309523Y-69413333D01*
X106138095Y-73325238D02*
X106233333Y-73277619D01*
X106233333Y-73277619D02*
X106376190Y-73277619D01*
X106376190Y-73277619D02*
X106519047Y-73325238D01*
X106519047Y-73325238D02*
X106614285Y-73420476D01*
X106614285Y-73420476D02*
X106661904Y-73515714D01*
X106661904Y-73515714D02*
X106709523Y-73706190D01*
X106709523Y-73706190D02*
X106709523Y-73849047D01*
X106709523Y-73849047D02*
X106661904Y-74039523D01*
X106661904Y-74039523D02*
X106614285Y-74134761D01*
X106614285Y-74134761D02*
X106519047Y-74230000D01*
X106519047Y-74230000D02*
X106376190Y-74277619D01*
X106376190Y-74277619D02*
X106280952Y-74277619D01*
X106280952Y-74277619D02*
X106138095Y-74230000D01*
X106138095Y-74230000D02*
X106090476Y-74182380D01*
X106090476Y-74182380D02*
X106090476Y-73849047D01*
X106090476Y-73849047D02*
X106280952Y-73849047D01*
X105661904Y-74277619D02*
X105661904Y-73277619D01*
X105661904Y-73277619D02*
X105090476Y-74277619D01*
X105090476Y-74277619D02*
X105090476Y-73277619D01*
X104614285Y-74277619D02*
X104614285Y-73277619D01*
X104614285Y-73277619D02*
X104376190Y-73277619D01*
X104376190Y-73277619D02*
X104233333Y-73325238D01*
X104233333Y-73325238D02*
X104138095Y-73420476D01*
X104138095Y-73420476D02*
X104090476Y-73515714D01*
X104090476Y-73515714D02*
X104042857Y-73706190D01*
X104042857Y-73706190D02*
X104042857Y-73849047D01*
X104042857Y-73849047D02*
X104090476Y-74039523D01*
X104090476Y-74039523D02*
X104138095Y-74134761D01*
X104138095Y-74134761D02*
X104233333Y-74230000D01*
X104233333Y-74230000D02*
X104376190Y-74277619D01*
X104376190Y-74277619D02*
X104614285Y-74277619D01*
D11*
X117961904Y-53796666D02*
X117200000Y-53796666D01*
X117580952Y-54177619D02*
X117580952Y-53415714D01*
D12*
X98990476Y-67277619D02*
X99323809Y-66801428D01*
X99561904Y-67277619D02*
X99561904Y-66277619D01*
X99561904Y-66277619D02*
X99180952Y-66277619D01*
X99180952Y-66277619D02*
X99085714Y-66325238D01*
X99085714Y-66325238D02*
X99038095Y-66372857D01*
X99038095Y-66372857D02*
X98990476Y-66468095D01*
X98990476Y-66468095D02*
X98990476Y-66610952D01*
X98990476Y-66610952D02*
X99038095Y-66706190D01*
X99038095Y-66706190D02*
X99085714Y-66753809D01*
X99085714Y-66753809D02*
X99180952Y-66801428D01*
X99180952Y-66801428D02*
X99561904Y-66801428D01*
X97847619Y-66230000D02*
X98704761Y-67515714D01*
X97609523Y-66277619D02*
X97371428Y-67277619D01*
X97371428Y-67277619D02*
X97180952Y-66563333D01*
X97180952Y-66563333D02*
X96990476Y-67277619D01*
X96990476Y-67277619D02*
X96752381Y-66277619D01*
X107009523Y-72330000D02*
X106866666Y-72377619D01*
X106866666Y-72377619D02*
X106628571Y-72377619D01*
X106628571Y-72377619D02*
X106533333Y-72330000D01*
X106533333Y-72330000D02*
X106485714Y-72282380D01*
X106485714Y-72282380D02*
X106438095Y-72187142D01*
X106438095Y-72187142D02*
X106438095Y-72091904D01*
X106438095Y-72091904D02*
X106485714Y-71996666D01*
X106485714Y-71996666D02*
X106533333Y-71949047D01*
X106533333Y-71949047D02*
X106628571Y-71901428D01*
X106628571Y-71901428D02*
X106819047Y-71853809D01*
X106819047Y-71853809D02*
X106914285Y-71806190D01*
X106914285Y-71806190D02*
X106961904Y-71758571D01*
X106961904Y-71758571D02*
X107009523Y-71663333D01*
X107009523Y-71663333D02*
X107009523Y-71568095D01*
X107009523Y-71568095D02*
X106961904Y-71472857D01*
X106961904Y-71472857D02*
X106914285Y-71425238D01*
X106914285Y-71425238D02*
X106819047Y-71377619D01*
X106819047Y-71377619D02*
X106580952Y-71377619D01*
X106580952Y-71377619D02*
X106438095Y-71425238D01*
X106104761Y-71377619D02*
X105866666Y-72377619D01*
X105866666Y-72377619D02*
X105676190Y-71663333D01*
X105676190Y-71663333D02*
X105485714Y-72377619D01*
X105485714Y-72377619D02*
X105247619Y-71377619D01*
X104866666Y-72377619D02*
X104866666Y-71377619D01*
X104866666Y-71377619D02*
X104628571Y-71377619D01*
X104628571Y-71377619D02*
X104485714Y-71425238D01*
X104485714Y-71425238D02*
X104390476Y-71520476D01*
X104390476Y-71520476D02*
X104342857Y-71615714D01*
X104342857Y-71615714D02*
X104295238Y-71806190D01*
X104295238Y-71806190D02*
X104295238Y-71949047D01*
X104295238Y-71949047D02*
X104342857Y-72139523D01*
X104342857Y-72139523D02*
X104390476Y-72234761D01*
X104390476Y-72234761D02*
X104485714Y-72330000D01*
X104485714Y-72330000D02*
X104628571Y-72377619D01*
X104628571Y-72377619D02*
X104866666Y-72377619D01*
D11*
X90185714Y-62377619D02*
X90661904Y-62377619D01*
X90661904Y-62377619D02*
X90661904Y-61377619D01*
X89852380Y-61853809D02*
X89519047Y-61853809D01*
X89376190Y-62377619D02*
X89852380Y-62377619D01*
X89852380Y-62377619D02*
X89852380Y-61377619D01*
X89852380Y-61377619D02*
X89376190Y-61377619D01*
X88947618Y-62377619D02*
X88947618Y-61377619D01*
X88947618Y-61377619D02*
X88709523Y-61377619D01*
X88709523Y-61377619D02*
X88566666Y-61425238D01*
X88566666Y-61425238D02*
X88471428Y-61520476D01*
X88471428Y-61520476D02*
X88423809Y-61615714D01*
X88423809Y-61615714D02*
X88376190Y-61806190D01*
X88376190Y-61806190D02*
X88376190Y-61949047D01*
X88376190Y-61949047D02*
X88423809Y-62139523D01*
X88423809Y-62139523D02*
X88471428Y-62234761D01*
X88471428Y-62234761D02*
X88566666Y-62330000D01*
X88566666Y-62330000D02*
X88709523Y-62377619D01*
X88709523Y-62377619D02*
X88947618Y-62377619D01*
X87995237Y-61472857D02*
X87947618Y-61425238D01*
X87947618Y-61425238D02*
X87852380Y-61377619D01*
X87852380Y-61377619D02*
X87614285Y-61377619D01*
X87614285Y-61377619D02*
X87519047Y-61425238D01*
X87519047Y-61425238D02*
X87471428Y-61472857D01*
X87471428Y-61472857D02*
X87423809Y-61568095D01*
X87423809Y-61568095D02*
X87423809Y-61663333D01*
X87423809Y-61663333D02*
X87471428Y-61806190D01*
X87471428Y-61806190D02*
X88042856Y-62377619D01*
X88042856Y-62377619D02*
X87423809Y-62377619D01*
D12*
X96738095Y-77325238D02*
X96833333Y-77277619D01*
X96833333Y-77277619D02*
X96976190Y-77277619D01*
X96976190Y-77277619D02*
X97119047Y-77325238D01*
X97119047Y-77325238D02*
X97214285Y-77420476D01*
X97214285Y-77420476D02*
X97261904Y-77515714D01*
X97261904Y-77515714D02*
X97309523Y-77706190D01*
X97309523Y-77706190D02*
X97309523Y-77849047D01*
X97309523Y-77849047D02*
X97261904Y-78039523D01*
X97261904Y-78039523D02*
X97214285Y-78134761D01*
X97214285Y-78134761D02*
X97119047Y-78230000D01*
X97119047Y-78230000D02*
X96976190Y-78277619D01*
X96976190Y-78277619D02*
X96880952Y-78277619D01*
X96880952Y-78277619D02*
X96738095Y-78230000D01*
X96738095Y-78230000D02*
X96690476Y-78182380D01*
X96690476Y-78182380D02*
X96690476Y-77849047D01*
X96690476Y-77849047D02*
X96880952Y-77849047D01*
X96261904Y-78277619D02*
X96261904Y-77277619D01*
X96261904Y-77277619D02*
X95690476Y-78277619D01*
X95690476Y-78277619D02*
X95690476Y-77277619D01*
X95214285Y-78277619D02*
X95214285Y-77277619D01*
X95214285Y-77277619D02*
X94976190Y-77277619D01*
X94976190Y-77277619D02*
X94833333Y-77325238D01*
X94833333Y-77325238D02*
X94738095Y-77420476D01*
X94738095Y-77420476D02*
X94690476Y-77515714D01*
X94690476Y-77515714D02*
X94642857Y-77706190D01*
X94642857Y-77706190D02*
X94642857Y-77849047D01*
X94642857Y-77849047D02*
X94690476Y-78039523D01*
X94690476Y-78039523D02*
X94738095Y-78134761D01*
X94738095Y-78134761D02*
X94833333Y-78230000D01*
X94833333Y-78230000D02*
X94976190Y-78277619D01*
X94976190Y-78277619D02*
X95214285Y-78277619D01*
D11*
X89061904Y-58696666D02*
X88300000Y-58696666D01*
X88680952Y-59077619D02*
X88680952Y-58315714D01*
D12*
X106309523Y-77830000D02*
X106166666Y-77877619D01*
X106166666Y-77877619D02*
X105928571Y-77877619D01*
X105928571Y-77877619D02*
X105833333Y-77830000D01*
X105833333Y-77830000D02*
X105785714Y-77782380D01*
X105785714Y-77782380D02*
X105738095Y-77687142D01*
X105738095Y-77687142D02*
X105738095Y-77591904D01*
X105738095Y-77591904D02*
X105785714Y-77496666D01*
X105785714Y-77496666D02*
X105833333Y-77449047D01*
X105833333Y-77449047D02*
X105928571Y-77401428D01*
X105928571Y-77401428D02*
X106119047Y-77353809D01*
X106119047Y-77353809D02*
X106214285Y-77306190D01*
X106214285Y-77306190D02*
X106261904Y-77258571D01*
X106261904Y-77258571D02*
X106309523Y-77163333D01*
X106309523Y-77163333D02*
X106309523Y-77068095D01*
X106309523Y-77068095D02*
X106261904Y-76972857D01*
X106261904Y-76972857D02*
X106214285Y-76925238D01*
X106214285Y-76925238D02*
X106119047Y-76877619D01*
X106119047Y-76877619D02*
X105880952Y-76877619D01*
X105880952Y-76877619D02*
X105738095Y-76925238D01*
X105404761Y-76877619D02*
X105166666Y-77877619D01*
X105166666Y-77877619D02*
X104976190Y-77163333D01*
X104976190Y-77163333D02*
X104785714Y-77877619D01*
X104785714Y-77877619D02*
X104547619Y-76877619D01*
X103595238Y-77782380D02*
X103642857Y-77830000D01*
X103642857Y-77830000D02*
X103785714Y-77877619D01*
X103785714Y-77877619D02*
X103880952Y-77877619D01*
X103880952Y-77877619D02*
X104023809Y-77830000D01*
X104023809Y-77830000D02*
X104119047Y-77734761D01*
X104119047Y-77734761D02*
X104166666Y-77639523D01*
X104166666Y-77639523D02*
X104214285Y-77449047D01*
X104214285Y-77449047D02*
X104214285Y-77306190D01*
X104214285Y-77306190D02*
X104166666Y-77115714D01*
X104166666Y-77115714D02*
X104119047Y-77020476D01*
X104119047Y-77020476D02*
X104023809Y-76925238D01*
X104023809Y-76925238D02*
X103880952Y-76877619D01*
X103880952Y-76877619D02*
X103785714Y-76877619D01*
X103785714Y-76877619D02*
X103642857Y-76925238D01*
X103642857Y-76925238D02*
X103595238Y-76972857D01*
X102690476Y-77877619D02*
X103166666Y-77877619D01*
X103166666Y-77877619D02*
X103166666Y-76877619D01*
X102357142Y-77877619D02*
X102357142Y-76877619D01*
X101785714Y-77877619D02*
X102214285Y-77306190D01*
X101785714Y-76877619D02*
X102357142Y-77449047D01*
D11*
X90285714Y-56277619D02*
X90761904Y-56277619D01*
X90761904Y-56277619D02*
X90761904Y-55277619D01*
X89952380Y-55753809D02*
X89619047Y-55753809D01*
X89476190Y-56277619D02*
X89952380Y-56277619D01*
X89952380Y-56277619D02*
X89952380Y-55277619D01*
X89952380Y-55277619D02*
X89476190Y-55277619D01*
X89047618Y-56277619D02*
X89047618Y-55277619D01*
X89047618Y-55277619D02*
X88809523Y-55277619D01*
X88809523Y-55277619D02*
X88666666Y-55325238D01*
X88666666Y-55325238D02*
X88571428Y-55420476D01*
X88571428Y-55420476D02*
X88523809Y-55515714D01*
X88523809Y-55515714D02*
X88476190Y-55706190D01*
X88476190Y-55706190D02*
X88476190Y-55849047D01*
X88476190Y-55849047D02*
X88523809Y-56039523D01*
X88523809Y-56039523D02*
X88571428Y-56134761D01*
X88571428Y-56134761D02*
X88666666Y-56230000D01*
X88666666Y-56230000D02*
X88809523Y-56277619D01*
X88809523Y-56277619D02*
X89047618Y-56277619D01*
X87523809Y-56277619D02*
X88095237Y-56277619D01*
X87809523Y-56277619D02*
X87809523Y-55277619D01*
X87809523Y-55277619D02*
X87904761Y-55420476D01*
X87904761Y-55420476D02*
X87999999Y-55515714D01*
X87999999Y-55515714D02*
X88095237Y-55563333D01*
D12*
X99104761Y-64377619D02*
X98771428Y-65377619D01*
X98771428Y-65377619D02*
X98438095Y-64377619D01*
X97914285Y-64377619D02*
X97819047Y-64377619D01*
X97819047Y-64377619D02*
X97723809Y-64425238D01*
X97723809Y-64425238D02*
X97676190Y-64472857D01*
X97676190Y-64472857D02*
X97628571Y-64568095D01*
X97628571Y-64568095D02*
X97580952Y-64758571D01*
X97580952Y-64758571D02*
X97580952Y-64996666D01*
X97580952Y-64996666D02*
X97628571Y-65187142D01*
X97628571Y-65187142D02*
X97676190Y-65282380D01*
X97676190Y-65282380D02*
X97723809Y-65330000D01*
X97723809Y-65330000D02*
X97819047Y-65377619D01*
X97819047Y-65377619D02*
X97914285Y-65377619D01*
X97914285Y-65377619D02*
X98009523Y-65330000D01*
X98009523Y-65330000D02*
X98057142Y-65282380D01*
X98057142Y-65282380D02*
X98104761Y-65187142D01*
X98104761Y-65187142D02*
X98152380Y-64996666D01*
X98152380Y-64996666D02*
X98152380Y-64758571D01*
X98152380Y-64758571D02*
X98104761Y-64568095D01*
X98104761Y-64568095D02*
X98057142Y-64472857D01*
X98057142Y-64472857D02*
X98009523Y-64425238D01*
X98009523Y-64425238D02*
X97914285Y-64377619D01*
X112409523Y-78191904D02*
X111933333Y-78191904D01*
X112504761Y-78477619D02*
X112171428Y-77477619D01*
X112171428Y-77477619D02*
X111838095Y-78477619D01*
D11*
X96428571Y-51853809D02*
X96285714Y-51901428D01*
X96285714Y-51901428D02*
X96238095Y-51949047D01*
X96238095Y-51949047D02*
X96190476Y-52044285D01*
X96190476Y-52044285D02*
X96190476Y-52187142D01*
X96190476Y-52187142D02*
X96238095Y-52282380D01*
X96238095Y-52282380D02*
X96285714Y-52330000D01*
X96285714Y-52330000D02*
X96380952Y-52377619D01*
X96380952Y-52377619D02*
X96761904Y-52377619D01*
X96761904Y-52377619D02*
X96761904Y-51377619D01*
X96761904Y-51377619D02*
X96428571Y-51377619D01*
X96428571Y-51377619D02*
X96333333Y-51425238D01*
X96333333Y-51425238D02*
X96285714Y-51472857D01*
X96285714Y-51472857D02*
X96238095Y-51568095D01*
X96238095Y-51568095D02*
X96238095Y-51663333D01*
X96238095Y-51663333D02*
X96285714Y-51758571D01*
X96285714Y-51758571D02*
X96333333Y-51806190D01*
X96333333Y-51806190D02*
X96428571Y-51853809D01*
X96428571Y-51853809D02*
X96761904Y-51853809D01*
X95571428Y-51377619D02*
X95380952Y-51377619D01*
X95380952Y-51377619D02*
X95285714Y-51425238D01*
X95285714Y-51425238D02*
X95190476Y-51520476D01*
X95190476Y-51520476D02*
X95142857Y-51710952D01*
X95142857Y-51710952D02*
X95142857Y-52044285D01*
X95142857Y-52044285D02*
X95190476Y-52234761D01*
X95190476Y-52234761D02*
X95285714Y-52330000D01*
X95285714Y-52330000D02*
X95380952Y-52377619D01*
X95380952Y-52377619D02*
X95571428Y-52377619D01*
X95571428Y-52377619D02*
X95666666Y-52330000D01*
X95666666Y-52330000D02*
X95761904Y-52234761D01*
X95761904Y-52234761D02*
X95809523Y-52044285D01*
X95809523Y-52044285D02*
X95809523Y-51710952D01*
X95809523Y-51710952D02*
X95761904Y-51520476D01*
X95761904Y-51520476D02*
X95666666Y-51425238D01*
X95666666Y-51425238D02*
X95571428Y-51377619D01*
X94523809Y-51377619D02*
X94333333Y-51377619D01*
X94333333Y-51377619D02*
X94238095Y-51425238D01*
X94238095Y-51425238D02*
X94142857Y-51520476D01*
X94142857Y-51520476D02*
X94095238Y-51710952D01*
X94095238Y-51710952D02*
X94095238Y-52044285D01*
X94095238Y-52044285D02*
X94142857Y-52234761D01*
X94142857Y-52234761D02*
X94238095Y-52330000D01*
X94238095Y-52330000D02*
X94333333Y-52377619D01*
X94333333Y-52377619D02*
X94523809Y-52377619D01*
X94523809Y-52377619D02*
X94619047Y-52330000D01*
X94619047Y-52330000D02*
X94714285Y-52234761D01*
X94714285Y-52234761D02*
X94761904Y-52044285D01*
X94761904Y-52044285D02*
X94761904Y-51710952D01*
X94761904Y-51710952D02*
X94714285Y-51520476D01*
X94714285Y-51520476D02*
X94619047Y-51425238D01*
X94619047Y-51425238D02*
X94523809Y-51377619D01*
X93809523Y-51377619D02*
X93238095Y-51377619D01*
X93523809Y-52377619D02*
X93523809Y-51377619D01*
X92952380Y-52330000D02*
X92809523Y-52377619D01*
X92809523Y-52377619D02*
X92571428Y-52377619D01*
X92571428Y-52377619D02*
X92476190Y-52330000D01*
X92476190Y-52330000D02*
X92428571Y-52282380D01*
X92428571Y-52282380D02*
X92380952Y-52187142D01*
X92380952Y-52187142D02*
X92380952Y-52091904D01*
X92380952Y-52091904D02*
X92428571Y-51996666D01*
X92428571Y-51996666D02*
X92476190Y-51949047D01*
X92476190Y-51949047D02*
X92571428Y-51901428D01*
X92571428Y-51901428D02*
X92761904Y-51853809D01*
X92761904Y-51853809D02*
X92857142Y-51806190D01*
X92857142Y-51806190D02*
X92904761Y-51758571D01*
X92904761Y-51758571D02*
X92952380Y-51663333D01*
X92952380Y-51663333D02*
X92952380Y-51568095D01*
X92952380Y-51568095D02*
X92904761Y-51472857D01*
X92904761Y-51472857D02*
X92857142Y-51425238D01*
X92857142Y-51425238D02*
X92761904Y-51377619D01*
X92761904Y-51377619D02*
X92523809Y-51377619D01*
X92523809Y-51377619D02*
X92380952Y-51425238D01*
X91952380Y-51853809D02*
X91619047Y-51853809D01*
X91476190Y-52377619D02*
X91952380Y-52377619D01*
X91952380Y-52377619D02*
X91952380Y-51377619D01*
X91952380Y-51377619D02*
X91476190Y-51377619D01*
X90571428Y-52377619D02*
X91047618Y-52377619D01*
X91047618Y-52377619D02*
X91047618Y-51377619D01*
D12*
X95690476Y-66277619D02*
X96023809Y-65801428D01*
X96261904Y-66277619D02*
X96261904Y-65277619D01*
X96261904Y-65277619D02*
X95880952Y-65277619D01*
X95880952Y-65277619D02*
X95785714Y-65325238D01*
X95785714Y-65325238D02*
X95738095Y-65372857D01*
X95738095Y-65372857D02*
X95690476Y-65468095D01*
X95690476Y-65468095D02*
X95690476Y-65610952D01*
X95690476Y-65610952D02*
X95738095Y-65706190D01*
X95738095Y-65706190D02*
X95785714Y-65753809D01*
X95785714Y-65753809D02*
X95880952Y-65801428D01*
X95880952Y-65801428D02*
X96261904Y-65801428D01*
X95309523Y-66230000D02*
X95166666Y-66277619D01*
X95166666Y-66277619D02*
X94928571Y-66277619D01*
X94928571Y-66277619D02*
X94833333Y-66230000D01*
X94833333Y-66230000D02*
X94785714Y-66182380D01*
X94785714Y-66182380D02*
X94738095Y-66087142D01*
X94738095Y-66087142D02*
X94738095Y-65991904D01*
X94738095Y-65991904D02*
X94785714Y-65896666D01*
X94785714Y-65896666D02*
X94833333Y-65849047D01*
X94833333Y-65849047D02*
X94928571Y-65801428D01*
X94928571Y-65801428D02*
X95119047Y-65753809D01*
X95119047Y-65753809D02*
X95214285Y-65706190D01*
X95214285Y-65706190D02*
X95261904Y-65658571D01*
X95261904Y-65658571D02*
X95309523Y-65563333D01*
X95309523Y-65563333D02*
X95309523Y-65468095D01*
X95309523Y-65468095D02*
X95261904Y-65372857D01*
X95261904Y-65372857D02*
X95214285Y-65325238D01*
X95214285Y-65325238D02*
X95119047Y-65277619D01*
X95119047Y-65277619D02*
X94880952Y-65277619D01*
X94880952Y-65277619D02*
X94738095Y-65325238D01*
X111938095Y-72425238D02*
X112033333Y-72377619D01*
X112033333Y-72377619D02*
X112176190Y-72377619D01*
X112176190Y-72377619D02*
X112319047Y-72425238D01*
X112319047Y-72425238D02*
X112414285Y-72520476D01*
X112414285Y-72520476D02*
X112461904Y-72615714D01*
X112461904Y-72615714D02*
X112509523Y-72806190D01*
X112509523Y-72806190D02*
X112509523Y-72949047D01*
X112509523Y-72949047D02*
X112461904Y-73139523D01*
X112461904Y-73139523D02*
X112414285Y-73234761D01*
X112414285Y-73234761D02*
X112319047Y-73330000D01*
X112319047Y-73330000D02*
X112176190Y-73377619D01*
X112176190Y-73377619D02*
X112080952Y-73377619D01*
X112080952Y-73377619D02*
X111938095Y-73330000D01*
X111938095Y-73330000D02*
X111890476Y-73282380D01*
X111890476Y-73282380D02*
X111890476Y-72949047D01*
X111890476Y-72949047D02*
X112080952Y-72949047D01*
X111461904Y-73377619D02*
X111461904Y-72377619D01*
X111461904Y-72377619D02*
X110890476Y-73377619D01*
X110890476Y-73377619D02*
X110890476Y-72377619D01*
X110414285Y-73377619D02*
X110414285Y-72377619D01*
X110414285Y-72377619D02*
X110176190Y-72377619D01*
X110176190Y-72377619D02*
X110033333Y-72425238D01*
X110033333Y-72425238D02*
X109938095Y-72520476D01*
X109938095Y-72520476D02*
X109890476Y-72615714D01*
X109890476Y-72615714D02*
X109842857Y-72806190D01*
X109842857Y-72806190D02*
X109842857Y-72949047D01*
X109842857Y-72949047D02*
X109890476Y-73139523D01*
X109890476Y-73139523D02*
X109938095Y-73234761D01*
X109938095Y-73234761D02*
X110033333Y-73330000D01*
X110033333Y-73330000D02*
X110176190Y-73377619D01*
X110176190Y-73377619D02*
X110414285Y-73377619D01*
X95261904Y-67653809D02*
X94928571Y-67653809D01*
X94785714Y-68177619D02*
X95261904Y-68177619D01*
X95261904Y-68177619D02*
X95261904Y-67177619D01*
X95261904Y-67177619D02*
X94785714Y-67177619D01*
X97261904Y-76377619D02*
X97261904Y-75377619D01*
X97261904Y-75377619D02*
X97023809Y-75377619D01*
X97023809Y-75377619D02*
X96880952Y-75425238D01*
X96880952Y-75425238D02*
X96785714Y-75520476D01*
X96785714Y-75520476D02*
X96738095Y-75615714D01*
X96738095Y-75615714D02*
X96690476Y-75806190D01*
X96690476Y-75806190D02*
X96690476Y-75949047D01*
X96690476Y-75949047D02*
X96738095Y-76139523D01*
X96738095Y-76139523D02*
X96785714Y-76234761D01*
X96785714Y-76234761D02*
X96880952Y-76330000D01*
X96880952Y-76330000D02*
X97023809Y-76377619D01*
X97023809Y-76377619D02*
X97261904Y-76377619D01*
X95928571Y-75853809D02*
X95785714Y-75901428D01*
X95785714Y-75901428D02*
X95738095Y-75949047D01*
X95738095Y-75949047D02*
X95690476Y-76044285D01*
X95690476Y-76044285D02*
X95690476Y-76187142D01*
X95690476Y-76187142D02*
X95738095Y-76282380D01*
X95738095Y-76282380D02*
X95785714Y-76330000D01*
X95785714Y-76330000D02*
X95880952Y-76377619D01*
X95880952Y-76377619D02*
X96261904Y-76377619D01*
X96261904Y-76377619D02*
X96261904Y-75377619D01*
X96261904Y-75377619D02*
X95928571Y-75377619D01*
X95928571Y-75377619D02*
X95833333Y-75425238D01*
X95833333Y-75425238D02*
X95785714Y-75472857D01*
X95785714Y-75472857D02*
X95738095Y-75568095D01*
X95738095Y-75568095D02*
X95738095Y-75663333D01*
X95738095Y-75663333D02*
X95785714Y-75758571D01*
X95785714Y-75758571D02*
X95833333Y-75806190D01*
X95833333Y-75806190D02*
X95928571Y-75853809D01*
X95928571Y-75853809D02*
X96261904Y-75853809D01*
X95357142Y-75377619D02*
X94690476Y-75377619D01*
X94690476Y-75377619D02*
X95119047Y-76377619D01*
X97161904Y-74277619D02*
X97161904Y-73277619D01*
X97161904Y-73277619D02*
X96923809Y-73277619D01*
X96923809Y-73277619D02*
X96780952Y-73325238D01*
X96780952Y-73325238D02*
X96685714Y-73420476D01*
X96685714Y-73420476D02*
X96638095Y-73515714D01*
X96638095Y-73515714D02*
X96590476Y-73706190D01*
X96590476Y-73706190D02*
X96590476Y-73849047D01*
X96590476Y-73849047D02*
X96638095Y-74039523D01*
X96638095Y-74039523D02*
X96685714Y-74134761D01*
X96685714Y-74134761D02*
X96780952Y-74230000D01*
X96780952Y-74230000D02*
X96923809Y-74277619D01*
X96923809Y-74277619D02*
X97161904Y-74277619D01*
X95828571Y-73753809D02*
X95685714Y-73801428D01*
X95685714Y-73801428D02*
X95638095Y-73849047D01*
X95638095Y-73849047D02*
X95590476Y-73944285D01*
X95590476Y-73944285D02*
X95590476Y-74087142D01*
X95590476Y-74087142D02*
X95638095Y-74182380D01*
X95638095Y-74182380D02*
X95685714Y-74230000D01*
X95685714Y-74230000D02*
X95780952Y-74277619D01*
X95780952Y-74277619D02*
X96161904Y-74277619D01*
X96161904Y-74277619D02*
X96161904Y-73277619D01*
X96161904Y-73277619D02*
X95828571Y-73277619D01*
X95828571Y-73277619D02*
X95733333Y-73325238D01*
X95733333Y-73325238D02*
X95685714Y-73372857D01*
X95685714Y-73372857D02*
X95638095Y-73468095D01*
X95638095Y-73468095D02*
X95638095Y-73563333D01*
X95638095Y-73563333D02*
X95685714Y-73658571D01*
X95685714Y-73658571D02*
X95733333Y-73706190D01*
X95733333Y-73706190D02*
X95828571Y-73753809D01*
X95828571Y-73753809D02*
X96161904Y-73753809D01*
X94685714Y-73277619D02*
X95161904Y-73277619D01*
X95161904Y-73277619D02*
X95209523Y-73753809D01*
X95209523Y-73753809D02*
X95161904Y-73706190D01*
X95161904Y-73706190D02*
X95066666Y-73658571D01*
X95066666Y-73658571D02*
X94828571Y-73658571D01*
X94828571Y-73658571D02*
X94733333Y-73706190D01*
X94733333Y-73706190D02*
X94685714Y-73753809D01*
X94685714Y-73753809D02*
X94638095Y-73849047D01*
X94638095Y-73849047D02*
X94638095Y-74087142D01*
X94638095Y-74087142D02*
X94685714Y-74182380D01*
X94685714Y-74182380D02*
X94733333Y-74230000D01*
X94733333Y-74230000D02*
X94828571Y-74277619D01*
X94828571Y-74277619D02*
X95066666Y-74277619D01*
X95066666Y-74277619D02*
X95161904Y-74230000D01*
X95161904Y-74230000D02*
X95209523Y-74182380D01*
X97461904Y-63996666D02*
X96700000Y-63996666D01*
X97080952Y-64377619D02*
X97080952Y-63615714D01*
X95747619Y-63377619D02*
X96223809Y-63377619D01*
X96223809Y-63377619D02*
X96271428Y-63853809D01*
X96271428Y-63853809D02*
X96223809Y-63806190D01*
X96223809Y-63806190D02*
X96128571Y-63758571D01*
X96128571Y-63758571D02*
X95890476Y-63758571D01*
X95890476Y-63758571D02*
X95795238Y-63806190D01*
X95795238Y-63806190D02*
X95747619Y-63853809D01*
X95747619Y-63853809D02*
X95700000Y-63949047D01*
X95700000Y-63949047D02*
X95700000Y-64187142D01*
X95700000Y-64187142D02*
X95747619Y-64282380D01*
X95747619Y-64282380D02*
X95795238Y-64330000D01*
X95795238Y-64330000D02*
X95890476Y-64377619D01*
X95890476Y-64377619D02*
X96128571Y-64377619D01*
X96128571Y-64377619D02*
X96223809Y-64330000D01*
X96223809Y-64330000D02*
X96271428Y-64282380D01*
X95414285Y-63377619D02*
X95080952Y-64377619D01*
X95080952Y-64377619D02*
X94747619Y-63377619D01*
M02*
