%TF.GenerationSoftware,KiCad,Pcbnew,7.0.1*%
%TF.CreationDate,2024-01-29T14:24:06+02:00*%
%TF.ProjectId,Temp_meter_1.1,54656d70-5f6d-4657-9465-725f312e312e,rev?*%
%TF.SameCoordinates,Original*%
%TF.FileFunction,Copper,L2,Bot*%
%TF.FilePolarity,Positive*%
%FSLAX46Y46*%
G04 Gerber Fmt 4.6, Leading zero omitted, Abs format (unit mm)*
G04 Created by KiCad (PCBNEW 7.0.1) date 2024-01-29 14:24:06*
%MOMM*%
%LPD*%
G01*
G04 APERTURE LIST*
G04 Aperture macros list*
%AMRoundRect*
0 Rectangle with rounded corners*
0 $1 Rounding radius*
0 $2 $3 $4 $5 $6 $7 $8 $9 X,Y pos of 4 corners*
0 Add a 4 corners polygon primitive as box body*
4,1,4,$2,$3,$4,$5,$6,$7,$8,$9,$2,$3,0*
0 Add four circle primitives for the rounded corners*
1,1,$1+$1,$2,$3*
1,1,$1+$1,$4,$5*
1,1,$1+$1,$6,$7*
1,1,$1+$1,$8,$9*
0 Add four rect primitives between the rounded corners*
20,1,$1+$1,$2,$3,$4,$5,0*
20,1,$1+$1,$4,$5,$6,$7,0*
20,1,$1+$1,$6,$7,$8,$9,0*
20,1,$1+$1,$8,$9,$2,$3,0*%
G04 Aperture macros list end*
%TA.AperFunction,ComponentPad*%
%ADD10C,3.800000*%
%TD*%
%TA.AperFunction,ComponentPad*%
%ADD11R,0.850000X0.850000*%
%TD*%
%TA.AperFunction,ComponentPad*%
%ADD12O,0.850000X0.850000*%
%TD*%
%TA.AperFunction,ComponentPad*%
%ADD13RoundRect,0.250000X-0.550000X0.550000X-0.550000X-0.550000X0.550000X-0.550000X0.550000X0.550000X0*%
%TD*%
%TA.AperFunction,ComponentPad*%
%ADD14C,1.600000*%
%TD*%
%TA.AperFunction,ComponentPad*%
%ADD15C,1.400000*%
%TD*%
%TA.AperFunction,ViaPad*%
%ADD16C,0.800000*%
%TD*%
%TA.AperFunction,ViaPad*%
%ADD17C,0.600000*%
%TD*%
%TA.AperFunction,Conductor*%
%ADD18C,0.200000*%
%TD*%
G04 APERTURE END LIST*
D10*
%TO.P,H4,1*%
%TO.N,N/C*%
X117900000Y-76000000D03*
%TD*%
D11*
%TO.P,J2,1,Pin_1*%
%TO.N,GND*%
X113800000Y-73800000D03*
D12*
%TO.P,J2,2,Pin_2*%
%TO.N,+3.3V*%
X113800000Y-74800000D03*
%TO.P,J2,3,Pin_3*%
%TO.N,Switch*%
X113800000Y-75800000D03*
%TO.P,J2,4,Pin_4*%
%TO.N,Out_B*%
X113800000Y-76800000D03*
%TO.P,J2,5,Pin_5*%
%TO.N,Out_A*%
X113800000Y-77800000D03*
%TD*%
D11*
%TO.P,D1,1,K*%
%TO.N,GND*%
X89700000Y-57600000D03*
D12*
%TO.P,D1,2,A*%
%TO.N,Net-(D1-A)*%
X88700000Y-57600000D03*
%TD*%
D13*
%TO.P,J1,1,Pin_1*%
%TO.N,GND*%
X119000000Y-50200000D03*
D14*
%TO.P,J1,2,Pin_2*%
%TO.N,Net-(J1-Pin_2)*%
X119000000Y-53800000D03*
%TD*%
D13*
%TO.P,J3,1,Pin_1*%
%TO.N,RTD-*%
X118775000Y-58400000D03*
D14*
%TO.P,J3,2,Pin_2*%
%TO.N,RTD+*%
X118775000Y-62000000D03*
%TD*%
D11*
%TO.P,LCD1,1,Vss*%
%TO.N,GND*%
X93400000Y-62700000D03*
D12*
%TO.P,LCD1,2,Vdd*%
%TO.N,+5V*%
X93400000Y-63700000D03*
%TO.P,LCD1,3,V0*%
%TO.N,Net-(LCD1-V0)*%
X93400000Y-64700000D03*
%TO.P,LCD1,4,RS*%
%TO.N,RS*%
X93400000Y-65700000D03*
%TO.P,LCD1,5,R/W*%
%TO.N,R{slash}W*%
X93400000Y-66700000D03*
%TO.P,LCD1,6,E*%
%TO.N,E*%
X93400000Y-67700000D03*
%TO.P,LCD1,7,DB0*%
%TO.N,DB0*%
X93400000Y-68700000D03*
%TO.P,LCD1,8,DB1*%
%TO.N,DB1*%
X93400000Y-69700000D03*
%TO.P,LCD1,9,DB2*%
%TO.N,DB2*%
X93400000Y-70700000D03*
%TO.P,LCD1,10,DB3*%
%TO.N,DB3*%
X93400000Y-71700000D03*
%TO.P,LCD1,11,DB4*%
%TO.N,DB4*%
X93400000Y-72700000D03*
%TO.P,LCD1,12,DB5*%
%TO.N,DB5*%
X93400000Y-73700000D03*
%TO.P,LCD1,13,DB6*%
%TO.N,DB6*%
X93400000Y-74700000D03*
%TO.P,LCD1,14,DB7*%
%TO.N,DB7*%
X93400000Y-75700000D03*
%TO.P,LCD1,15,LED+*%
%TO.N,+5V*%
X93400000Y-76700000D03*
%TO.P,LCD1,16,LED-*%
%TO.N,GND*%
X93400000Y-77700000D03*
%TD*%
D15*
%TO.P,P1,S1,SHIELD*%
%TO.N,GND*%
X106300000Y-43200000D03*
X105940000Y-49150000D03*
X97680000Y-49150000D03*
X97320000Y-43200000D03*
%TD*%
D11*
%TO.P,SW1,1*%
%TO.N,GND*%
X88900000Y-51600000D03*
D12*
%TO.P,SW1,2*%
%TO.N,Net-(R8-Pad2)*%
X88900000Y-52600000D03*
%TD*%
D10*
%TO.P,H1,1*%
%TO.N,N/C*%
X117900000Y-44000000D03*
%TD*%
%TO.P,H2,1*%
%TO.N,N/C*%
X90000000Y-76000000D03*
%TD*%
D11*
%TO.P,J4,1,Pin_1*%
%TO.N,Net-(J4-Pin_1)*%
X107800000Y-77500000D03*
D12*
%TO.P,J4,2,Pin_2*%
%TO.N,GND*%
X108800000Y-77500000D03*
%TO.P,J4,3,Pin_3*%
%TO.N,Net-(J4-Pin_3)*%
X109800000Y-77500000D03*
%TD*%
D10*
%TO.P,H3,1*%
%TO.N,N/C*%
X90000000Y-44000000D03*
%TD*%
D11*
%TO.P,D2,1,K*%
%TO.N,GND*%
X89700000Y-63700000D03*
D12*
%TO.P,D2,2,A*%
%TO.N,Net-(D2-A)*%
X88700000Y-63700000D03*
%TD*%
D16*
%TO.N,GND*%
X99100000Y-48400000D03*
X102000000Y-58000000D03*
X103100000Y-72100000D03*
X97600000Y-72800000D03*
X110800000Y-51700000D03*
X108400000Y-62000000D03*
X104800000Y-72900000D03*
X103600000Y-74600000D03*
X113300000Y-66500000D03*
X99700000Y-70200000D03*
X101000000Y-58000000D03*
X100700000Y-66300000D03*
X95500000Y-51900000D03*
X109300000Y-47700000D03*
X89000000Y-71500000D03*
X105600000Y-58200000D03*
X111100000Y-64300000D03*
X100400079Y-56879976D03*
X102900000Y-64100000D03*
X92600000Y-47300000D03*
X113900000Y-70600000D03*
X110500000Y-61900000D03*
X114600000Y-55100000D03*
X93600000Y-58800000D03*
X96226500Y-61500000D03*
X108600000Y-51900000D03*
X102650000Y-76050000D03*
X106300000Y-51173500D03*
X97000000Y-50600000D03*
X115300000Y-56600000D03*
X108000000Y-67500000D03*
X111100000Y-66500000D03*
X114600000Y-52100000D03*
X112210000Y-65400000D03*
X112400000Y-70600000D03*
X101800000Y-65200000D03*
X98700000Y-71500000D03*
X100700000Y-64100000D03*
X102900000Y-66300000D03*
X104700000Y-48200000D03*
X109100000Y-67500000D03*
X96073500Y-67400000D03*
X114400000Y-62226500D03*
X109300000Y-68800000D03*
X106600000Y-58200000D03*
X113300000Y-64300000D03*
X109005046Y-55720202D03*
X104600000Y-58200000D03*
D17*
%TO.N,+1V1*%
X103500000Y-70500000D03*
X101377708Y-60222292D03*
X101700000Y-67300000D03*
X102500000Y-62804132D03*
%TD*%
D18*
%TO.N,+1V1*%
X102400000Y-69400000D02*
X102400000Y-68000000D01*
X102400000Y-68000000D02*
X101700000Y-67300000D01*
X101377708Y-61681840D02*
X102500000Y-62804132D01*
X103500000Y-70500000D02*
X102400000Y-69400000D01*
X101377708Y-60222292D02*
X101377708Y-61681840D01*
%TD*%
%TA.AperFunction,Conductor*%
%TO.N,GND*%
G36*
X118003243Y-41000669D02*
G01*
X118133379Y-41007490D01*
X118313908Y-41017628D01*
X118326309Y-41018955D01*
X118474990Y-41042504D01*
X118476245Y-41042709D01*
X118635324Y-41069738D01*
X118646606Y-41072202D01*
X118795635Y-41112134D01*
X118797761Y-41112725D01*
X118949174Y-41156347D01*
X118959260Y-41159729D01*
X119104710Y-41215562D01*
X119107599Y-41216714D01*
X119251768Y-41276430D01*
X119260594Y-41280500D01*
X119400064Y-41351565D01*
X119403748Y-41353521D01*
X119493848Y-41403316D01*
X119539548Y-41428574D01*
X119547061Y-41433081D01*
X119678754Y-41518604D01*
X119682947Y-41521452D01*
X119809147Y-41610996D01*
X119815426Y-41615757D01*
X119934862Y-41712475D01*
X119937567Y-41714665D01*
X119942158Y-41718571D01*
X120057424Y-41821579D01*
X120062478Y-41826358D01*
X120173640Y-41937520D01*
X120178419Y-41942574D01*
X120281427Y-42057840D01*
X120285333Y-42062431D01*
X120384239Y-42184570D01*
X120389002Y-42190851D01*
X120478546Y-42317051D01*
X120481409Y-42321266D01*
X120566907Y-42452921D01*
X120571430Y-42460460D01*
X120646477Y-42596250D01*
X120648433Y-42599934D01*
X120719498Y-42739404D01*
X120723575Y-42748247D01*
X120783259Y-42892337D01*
X120784462Y-42895353D01*
X120840265Y-43040727D01*
X120843655Y-43050836D01*
X120887258Y-43202185D01*
X120887879Y-43204419D01*
X120927791Y-43353370D01*
X120930264Y-43364694D01*
X120957282Y-43523715D01*
X120957507Y-43525087D01*
X120981040Y-43673666D01*
X120982372Y-43686111D01*
X120992498Y-43866421D01*
X120992523Y-43866884D01*
X120999330Y-43996757D01*
X120999500Y-44003247D01*
X120999500Y-75996753D01*
X120999330Y-76003243D01*
X120992523Y-76133114D01*
X120992498Y-76133577D01*
X120982372Y-76313887D01*
X120981040Y-76326332D01*
X120957507Y-76474911D01*
X120957282Y-76476283D01*
X120930264Y-76635304D01*
X120927791Y-76646628D01*
X120887879Y-76795579D01*
X120887258Y-76797813D01*
X120843655Y-76949162D01*
X120840265Y-76959271D01*
X120784462Y-77104645D01*
X120783259Y-77107661D01*
X120723575Y-77251751D01*
X120719498Y-77260594D01*
X120648433Y-77400064D01*
X120646477Y-77403748D01*
X120571430Y-77539538D01*
X120566897Y-77547094D01*
X120481412Y-77678728D01*
X120478546Y-77682947D01*
X120389002Y-77809147D01*
X120384239Y-77815428D01*
X120285333Y-77937567D01*
X120281427Y-77942158D01*
X120178419Y-78057424D01*
X120173640Y-78062478D01*
X120062478Y-78173640D01*
X120057424Y-78178419D01*
X119942158Y-78281427D01*
X119937567Y-78285333D01*
X119815428Y-78384239D01*
X119809147Y-78389002D01*
X119682947Y-78478546D01*
X119678728Y-78481412D01*
X119547094Y-78566897D01*
X119539538Y-78571430D01*
X119403748Y-78646477D01*
X119400064Y-78648433D01*
X119260594Y-78719498D01*
X119251751Y-78723575D01*
X119107661Y-78783259D01*
X119104645Y-78784462D01*
X118959271Y-78840265D01*
X118949162Y-78843655D01*
X118797813Y-78887258D01*
X118795579Y-78887879D01*
X118646628Y-78927791D01*
X118635304Y-78930264D01*
X118476283Y-78957282D01*
X118474911Y-78957507D01*
X118326332Y-78981040D01*
X118313887Y-78982372D01*
X118133577Y-78992498D01*
X118133114Y-78992523D01*
X118003243Y-78999330D01*
X117996753Y-78999500D01*
X90003247Y-78999500D01*
X89996757Y-78999330D01*
X89866884Y-78992523D01*
X89866421Y-78992498D01*
X89686111Y-78982372D01*
X89673666Y-78981040D01*
X89525087Y-78957507D01*
X89523715Y-78957282D01*
X89364694Y-78930264D01*
X89353370Y-78927791D01*
X89204419Y-78887879D01*
X89202185Y-78887258D01*
X89050836Y-78843655D01*
X89040727Y-78840265D01*
X88895353Y-78784462D01*
X88892337Y-78783259D01*
X88748247Y-78723575D01*
X88739404Y-78719498D01*
X88599934Y-78648433D01*
X88596250Y-78646477D01*
X88460460Y-78571430D01*
X88452921Y-78566907D01*
X88321266Y-78481409D01*
X88317051Y-78478546D01*
X88190851Y-78389002D01*
X88184570Y-78384239D01*
X88062431Y-78285333D01*
X88057840Y-78281427D01*
X87942574Y-78178419D01*
X87937520Y-78173640D01*
X87826358Y-78062478D01*
X87821579Y-78057424D01*
X87718571Y-77942158D01*
X87714665Y-77937567D01*
X87615759Y-77815428D01*
X87610996Y-77809147D01*
X87521452Y-77682947D01*
X87518604Y-77678754D01*
X87433081Y-77547061D01*
X87428568Y-77539538D01*
X87353521Y-77403748D01*
X87351565Y-77400064D01*
X87280500Y-77260594D01*
X87276430Y-77251768D01*
X87216714Y-77107599D01*
X87215562Y-77104710D01*
X87159729Y-76959260D01*
X87156347Y-76949174D01*
X87112725Y-76797761D01*
X87112134Y-76795635D01*
X87072202Y-76646606D01*
X87069738Y-76635324D01*
X87042709Y-76476245D01*
X87042491Y-76474911D01*
X87018955Y-76326309D01*
X87017628Y-76313908D01*
X87007485Y-76133285D01*
X87007476Y-76133114D01*
X87000669Y-76003243D01*
X87000584Y-75999999D01*
X87594753Y-75999999D01*
X87613719Y-76301452D01*
X87670319Y-76598163D01*
X87763658Y-76885428D01*
X87892268Y-77158739D01*
X87986052Y-77306518D01*
X88054115Y-77413768D01*
X88206450Y-77597909D01*
X88246650Y-77646503D01*
X88466839Y-77853276D01*
X88711204Y-78030816D01*
X88810110Y-78085190D01*
X88975896Y-78176332D01*
X89109080Y-78229063D01*
X89256737Y-78287525D01*
X89328386Y-78305921D01*
X89549302Y-78362642D01*
X89775302Y-78391193D01*
X89848972Y-78400500D01*
X89848973Y-78400500D01*
X90151027Y-78400500D01*
X90151028Y-78400500D01*
X90214154Y-78392525D01*
X90450698Y-78362642D01*
X90743262Y-78287525D01*
X91024104Y-78176332D01*
X91288795Y-78030816D01*
X91368553Y-77972869D01*
X91400030Y-77950000D01*
X92508628Y-77950000D01*
X92550315Y-78078304D01*
X92647536Y-78246696D01*
X92777643Y-78391193D01*
X92934952Y-78505486D01*
X93112586Y-78584572D01*
X93150000Y-78592525D01*
X93150000Y-77950000D01*
X93650000Y-77950000D01*
X93650000Y-78592525D01*
X93687413Y-78584572D01*
X93865047Y-78505486D01*
X94022356Y-78391193D01*
X94152463Y-78246696D01*
X94249684Y-78078304D01*
X94283942Y-77972869D01*
X106874500Y-77972869D01*
X106880909Y-78032484D01*
X106890211Y-78057424D01*
X106931204Y-78167331D01*
X107017454Y-78282546D01*
X107132669Y-78368796D01*
X107267517Y-78419091D01*
X107327127Y-78425500D01*
X108272872Y-78425499D01*
X108332483Y-78419091D01*
X108425198Y-78384510D01*
X108472371Y-78376752D01*
X108499598Y-78382982D01*
X108499837Y-78381863D01*
X108550000Y-78392525D01*
X108550000Y-78367294D01*
X108556346Y-78328135D01*
X108574733Y-78292983D01*
X108622583Y-78229063D01*
X108668796Y-78167331D01*
X108719091Y-78032483D01*
X108725500Y-77972873D01*
X108725499Y-77952687D01*
X108742110Y-77890689D01*
X108787497Y-77845300D01*
X108849497Y-77828686D01*
X108911498Y-77845298D01*
X108956886Y-77890686D01*
X109033387Y-78023190D01*
X109050000Y-78085190D01*
X109050000Y-78392525D01*
X109087413Y-78384572D01*
X109248950Y-78312652D01*
X109299385Y-78301932D01*
X109349817Y-78312652D01*
X109493789Y-78376752D01*
X109512429Y-78385051D01*
X109702724Y-78425500D01*
X109702726Y-78425500D01*
X109897274Y-78425500D01*
X109897276Y-78425500D01*
X110087568Y-78385052D01*
X110087569Y-78385051D01*
X110087571Y-78385051D01*
X110265299Y-78305922D01*
X110422692Y-78191569D01*
X110552870Y-78046992D01*
X110650144Y-77878508D01*
X110675653Y-77800000D01*
X112869402Y-77800000D01*
X112889738Y-77993482D01*
X112889739Y-77993485D01*
X112949855Y-78178507D01*
X113047129Y-78346992D01*
X113177308Y-78491570D01*
X113334699Y-78605921D01*
X113512431Y-78685052D01*
X113702724Y-78725500D01*
X113702726Y-78725500D01*
X113897274Y-78725500D01*
X113897276Y-78725500D01*
X114087568Y-78685052D01*
X114087569Y-78685051D01*
X114087571Y-78685051D01*
X114265299Y-78605922D01*
X114343995Y-78548745D01*
X114422691Y-78491570D01*
X114487953Y-78419090D01*
X114552870Y-78346992D01*
X114650144Y-78178508D01*
X114710262Y-77993482D01*
X114730598Y-77800000D01*
X114710262Y-77606518D01*
X114650144Y-77421492D01*
X114615795Y-77361999D01*
X114599183Y-77300000D01*
X114615795Y-77238000D01*
X114650144Y-77178508D01*
X114710262Y-76993482D01*
X114730598Y-76800000D01*
X114710262Y-76606518D01*
X114650144Y-76421492D01*
X114650143Y-76421491D01*
X114615796Y-76361999D01*
X114599183Y-76299998D01*
X114615797Y-76237998D01*
X114650144Y-76178508D01*
X114664743Y-76133577D01*
X114708145Y-75999999D01*
X115494753Y-75999999D01*
X115513719Y-76301452D01*
X115570319Y-76598163D01*
X115663658Y-76885428D01*
X115792268Y-77158739D01*
X115886052Y-77306518D01*
X115954115Y-77413768D01*
X116106450Y-77597909D01*
X116146650Y-77646503D01*
X116366839Y-77853276D01*
X116611204Y-78030816D01*
X116710110Y-78085190D01*
X116875896Y-78176332D01*
X117009080Y-78229063D01*
X117156737Y-78287525D01*
X117228386Y-78305921D01*
X117449302Y-78362642D01*
X117675302Y-78391193D01*
X117748972Y-78400500D01*
X117748973Y-78400500D01*
X118051027Y-78400500D01*
X118051028Y-78400500D01*
X118114154Y-78392525D01*
X118350698Y-78362642D01*
X118643262Y-78287525D01*
X118924104Y-78176332D01*
X119188795Y-78030816D01*
X119268553Y-77972869D01*
X119433160Y-77853276D01*
X119489893Y-77800000D01*
X119653349Y-77646504D01*
X119845885Y-77413768D01*
X120007733Y-77158736D01*
X120136341Y-76885430D01*
X120229681Y-76598160D01*
X120286280Y-76301457D01*
X120305246Y-76000000D01*
X120286280Y-75698543D01*
X120229681Y-75401840D01*
X120136341Y-75114570D01*
X120007733Y-74841264D01*
X120007732Y-74841263D01*
X120007731Y-74841260D01*
X119918084Y-74700000D01*
X119845885Y-74586232D01*
X119653349Y-74353496D01*
X119630860Y-74332377D01*
X119433160Y-74146723D01*
X119188795Y-73969183D01*
X118924102Y-73823667D01*
X118643262Y-73712474D01*
X118350700Y-73637358D01*
X118051028Y-73599500D01*
X118051027Y-73599500D01*
X117748973Y-73599500D01*
X117748972Y-73599500D01*
X117449299Y-73637358D01*
X117156737Y-73712474D01*
X116875897Y-73823667D01*
X116611204Y-73969183D01*
X116366839Y-74146723D01*
X116146650Y-74353496D01*
X115954114Y-74586233D01*
X115792268Y-74841260D01*
X115663658Y-75114571D01*
X115570319Y-75401836D01*
X115513719Y-75698547D01*
X115494753Y-75999999D01*
X114708145Y-75999999D01*
X114710262Y-75993482D01*
X114730598Y-75800000D01*
X114710262Y-75606518D01*
X114650144Y-75421492D01*
X114615796Y-75361999D01*
X114599183Y-75299998D01*
X114615797Y-75237998D01*
X114650144Y-75178508D01*
X114670918Y-75114571D01*
X114710262Y-74993482D01*
X114730598Y-74800000D01*
X114710262Y-74606518D01*
X114679902Y-74513081D01*
X114673862Y-74472108D01*
X114681652Y-74431430D01*
X114718597Y-74332375D01*
X114725000Y-74272824D01*
X114725000Y-74050000D01*
X114382559Y-74050000D01*
X114344241Y-74043931D01*
X114309674Y-74026318D01*
X114265300Y-73994078D01*
X114087568Y-73914947D01*
X113897276Y-73874500D01*
X113897274Y-73874500D01*
X113702726Y-73874500D01*
X113702724Y-73874500D01*
X113512431Y-73914947D01*
X113334699Y-73994078D01*
X113290326Y-74026318D01*
X113255759Y-74043931D01*
X113217441Y-74050000D01*
X112875000Y-74050000D01*
X112875000Y-74272824D01*
X112881402Y-74332377D01*
X112918347Y-74431431D01*
X112926137Y-74472108D01*
X112920097Y-74513081D01*
X112889738Y-74606518D01*
X112879913Y-74700000D01*
X112869402Y-74800000D01*
X112889738Y-74993482D01*
X112889739Y-74993485D01*
X112949855Y-75178507D01*
X112984203Y-75237999D01*
X113000816Y-75299998D01*
X112984204Y-75361998D01*
X112949854Y-75421493D01*
X112889739Y-75606514D01*
X112889738Y-75606518D01*
X112869402Y-75800000D01*
X112889738Y-75993482D01*
X112889739Y-75993485D01*
X112949855Y-76178507D01*
X112984203Y-76238000D01*
X113000816Y-76300000D01*
X112984203Y-76362000D01*
X112949855Y-76421492D01*
X112889739Y-76606514D01*
X112889738Y-76606518D01*
X112869402Y-76800000D01*
X112889738Y-76993482D01*
X112889739Y-76993485D01*
X112949855Y-77178507D01*
X112984203Y-77238000D01*
X113000816Y-77300000D01*
X112984203Y-77362000D01*
X112949855Y-77421492D01*
X112889739Y-77606514D01*
X112889738Y-77606518D01*
X112869402Y-77800000D01*
X110675653Y-77800000D01*
X110710262Y-77693482D01*
X110730598Y-77500000D01*
X110710262Y-77306518D01*
X110650144Y-77121492D01*
X110625327Y-77078507D01*
X110552870Y-76953007D01*
X110422691Y-76808429D01*
X110265300Y-76694078D01*
X110087568Y-76614947D01*
X109897276Y-76574500D01*
X109897274Y-76574500D01*
X109702726Y-76574500D01*
X109702724Y-76574500D01*
X109512431Y-76614947D01*
X109349820Y-76687346D01*
X109299385Y-76698066D01*
X109248951Y-76687346D01*
X109087415Y-76615427D01*
X109050000Y-76607474D01*
X109050000Y-76914810D01*
X109033387Y-76976810D01*
X108956886Y-77109314D01*
X108911499Y-77154701D01*
X108849499Y-77171314D01*
X108787499Y-77154701D01*
X108742112Y-77109314D01*
X108725499Y-77047314D01*
X108725499Y-77027130D01*
X108721882Y-76993482D01*
X108719091Y-76967517D01*
X108668796Y-76832669D01*
X108582546Y-76717454D01*
X108574733Y-76707017D01*
X108556346Y-76671865D01*
X108550000Y-76632706D01*
X108550000Y-76607473D01*
X108499837Y-76618136D01*
X108499599Y-76617017D01*
X108472358Y-76623247D01*
X108425196Y-76615488D01*
X108332485Y-76580909D01*
X108312612Y-76578772D01*
X108272873Y-76574500D01*
X108272869Y-76574500D01*
X107327130Y-76574500D01*
X107267515Y-76580909D01*
X107132669Y-76631204D01*
X107017454Y-76717454D01*
X106931204Y-76832668D01*
X106880909Y-76967516D01*
X106874500Y-77027130D01*
X106874500Y-77972869D01*
X94283942Y-77972869D01*
X94291372Y-77950000D01*
X93650000Y-77950000D01*
X93150000Y-77950000D01*
X92508628Y-77950000D01*
X91400030Y-77950000D01*
X91533160Y-77853276D01*
X91589893Y-77800000D01*
X91753349Y-77646504D01*
X91945885Y-77413768D01*
X92107733Y-77158736D01*
X92236341Y-76885430D01*
X92246892Y-76852956D01*
X92283798Y-76797407D01*
X92344143Y-76769011D01*
X92410469Y-76775981D01*
X92463592Y-76816303D01*
X92488143Y-76878309D01*
X92489738Y-76893482D01*
X92489739Y-76893485D01*
X92549855Y-77078507D01*
X92584492Y-77138500D01*
X92601105Y-77200500D01*
X92584492Y-77262500D01*
X92550315Y-77321695D01*
X92508627Y-77449999D01*
X92508628Y-77450000D01*
X92817441Y-77450000D01*
X92855759Y-77456069D01*
X92890326Y-77473682D01*
X92934699Y-77505921D01*
X93112431Y-77585052D01*
X93302724Y-77625500D01*
X93302726Y-77625500D01*
X93497274Y-77625500D01*
X93497276Y-77625500D01*
X93687568Y-77585052D01*
X93687569Y-77585051D01*
X93687571Y-77585051D01*
X93865299Y-77505922D01*
X93883133Y-77492964D01*
X93909674Y-77473682D01*
X93944241Y-77456069D01*
X93982559Y-77450000D01*
X94291372Y-77450000D01*
X94291372Y-77449999D01*
X94249685Y-77321698D01*
X94215507Y-77262501D01*
X94198894Y-77200500D01*
X94215508Y-77138499D01*
X94233313Y-77107661D01*
X94250144Y-77078508D01*
X94310262Y-76893482D01*
X94330598Y-76700000D01*
X94310262Y-76506518D01*
X94250144Y-76321492D01*
X94215795Y-76261999D01*
X94199183Y-76200000D01*
X94215795Y-76138000D01*
X94250144Y-76078508D01*
X94310262Y-75893482D01*
X94330598Y-75700000D01*
X94310262Y-75506518D01*
X94250144Y-75321492D01*
X94215795Y-75261998D01*
X94199183Y-75200000D01*
X94215795Y-75138000D01*
X94250144Y-75078508D01*
X94310262Y-74893482D01*
X94330598Y-74700000D01*
X94310262Y-74506518D01*
X94250144Y-74321492D01*
X94222046Y-74272824D01*
X94215796Y-74261999D01*
X94199183Y-74199998D01*
X94215797Y-74137998D01*
X94250144Y-74078508D01*
X94259407Y-74050000D01*
X94310262Y-73893482D01*
X94330598Y-73700000D01*
X94314832Y-73550000D01*
X112875000Y-73550000D01*
X113550000Y-73550000D01*
X113550000Y-72875000D01*
X114050000Y-72875000D01*
X114050000Y-73550000D01*
X114725000Y-73550000D01*
X114725000Y-73327176D01*
X114718597Y-73267624D01*
X114668352Y-73132910D01*
X114582188Y-73017811D01*
X114467089Y-72931647D01*
X114332375Y-72881402D01*
X114272824Y-72875000D01*
X114050000Y-72875000D01*
X113550000Y-72875000D01*
X113327176Y-72875000D01*
X113267624Y-72881402D01*
X113132910Y-72931647D01*
X113017811Y-73017811D01*
X112931647Y-73132910D01*
X112881402Y-73267624D01*
X112875000Y-73327176D01*
X112875000Y-73550000D01*
X94314832Y-73550000D01*
X94310262Y-73506518D01*
X94250144Y-73321492D01*
X94215795Y-73261999D01*
X94199183Y-73200000D01*
X94215795Y-73138000D01*
X94250144Y-73078508D01*
X94310262Y-72893482D01*
X94330598Y-72700000D01*
X94310262Y-72506518D01*
X94250144Y-72321492D01*
X94215796Y-72261999D01*
X94199183Y-72199998D01*
X94215797Y-72137998D01*
X94250144Y-72078508D01*
X94250144Y-72078507D01*
X94310262Y-71893482D01*
X94330598Y-71700000D01*
X94310262Y-71506518D01*
X94250144Y-71321492D01*
X94215795Y-71261999D01*
X94199183Y-71200000D01*
X94215795Y-71138000D01*
X94250144Y-71078508D01*
X94310262Y-70893482D01*
X94330598Y-70700000D01*
X94310262Y-70506518D01*
X94250144Y-70321492D01*
X94215796Y-70261999D01*
X94199183Y-70199998D01*
X94215797Y-70137998D01*
X94250144Y-70078508D01*
X94250144Y-70078507D01*
X94310262Y-69893482D01*
X94330598Y-69700000D01*
X94310262Y-69506518D01*
X94250144Y-69321492D01*
X94215795Y-69261999D01*
X94199183Y-69200000D01*
X94215795Y-69138000D01*
X94250144Y-69078508D01*
X94310262Y-68893482D01*
X94330598Y-68700000D01*
X94310262Y-68506518D01*
X94250144Y-68321492D01*
X94215795Y-68261999D01*
X94199183Y-68200000D01*
X94215795Y-68138000D01*
X94250144Y-68078508D01*
X94310262Y-67893482D01*
X94330598Y-67700000D01*
X94310262Y-67506518D01*
X94250144Y-67321492D01*
X94250143Y-67321491D01*
X94237735Y-67299999D01*
X100894434Y-67299999D01*
X100914631Y-67479251D01*
X100914631Y-67479253D01*
X100914632Y-67479255D01*
X100974211Y-67649522D01*
X101030979Y-67739867D01*
X101070185Y-67802264D01*
X101197735Y-67929814D01*
X101197737Y-67929815D01*
X101197738Y-67929816D01*
X101350478Y-68025789D01*
X101520745Y-68085368D01*
X101595713Y-68093814D01*
X101607665Y-68095161D01*
X101647583Y-68106661D01*
X101681463Y-68130700D01*
X101763181Y-68212418D01*
X101790061Y-68252646D01*
X101799500Y-68300099D01*
X101799500Y-69352513D01*
X101798439Y-69368699D01*
X101794317Y-69400000D01*
X101799500Y-69439360D01*
X101799500Y-69439361D01*
X101814956Y-69556762D01*
X101875463Y-69702840D01*
X101971716Y-69828281D01*
X101996768Y-69847503D01*
X102008964Y-69858199D01*
X102669298Y-70518533D01*
X102693337Y-70552412D01*
X102704837Y-70592330D01*
X102714631Y-70679250D01*
X102714631Y-70679251D01*
X102714632Y-70679255D01*
X102774211Y-70849522D01*
X102774212Y-70849523D01*
X102870185Y-71002264D01*
X102997735Y-71129814D01*
X102997737Y-71129815D01*
X102997738Y-71129816D01*
X103150478Y-71225789D01*
X103320745Y-71285368D01*
X103500000Y-71305565D01*
X103679255Y-71285368D01*
X103849522Y-71225789D01*
X104002262Y-71129816D01*
X104129816Y-71002262D01*
X104225789Y-70849522D01*
X104285368Y-70679255D01*
X104305565Y-70500000D01*
X104285368Y-70320745D01*
X104225789Y-70150478D01*
X104129816Y-69997738D01*
X104129815Y-69997737D01*
X104129814Y-69997735D01*
X104002264Y-69870185D01*
X103935574Y-69828281D01*
X103849522Y-69774211D01*
X103679255Y-69714632D01*
X103679251Y-69714631D01*
X103679250Y-69714631D01*
X103592330Y-69704837D01*
X103552412Y-69693337D01*
X103518533Y-69669298D01*
X103036819Y-69187584D01*
X103009939Y-69147356D01*
X103000500Y-69099903D01*
X103000500Y-68047487D01*
X103001561Y-68031301D01*
X103005682Y-67999999D01*
X102991659Y-67893485D01*
X102985044Y-67843238D01*
X102924536Y-67697159D01*
X102852450Y-67603214D01*
X102852448Y-67603212D01*
X102828282Y-67571718D01*
X102803233Y-67552497D01*
X102791038Y-67541802D01*
X102530700Y-67281465D01*
X102506661Y-67247585D01*
X102495161Y-67207666D01*
X102487312Y-67138000D01*
X102485368Y-67120745D01*
X102425789Y-66950478D01*
X102329816Y-66797738D01*
X102329815Y-66797737D01*
X102329814Y-66797735D01*
X102202264Y-66670185D01*
X102139867Y-66630979D01*
X102049522Y-66574211D01*
X101879255Y-66514632D01*
X101879253Y-66514631D01*
X101879251Y-66514631D01*
X101700000Y-66494434D01*
X101520748Y-66514631D01*
X101520745Y-66514631D01*
X101520745Y-66514632D01*
X101350478Y-66574211D01*
X101350476Y-66574211D01*
X101350476Y-66574212D01*
X101197735Y-66670185D01*
X101070185Y-66797735D01*
X100974212Y-66950476D01*
X100914631Y-67120748D01*
X100894434Y-67299999D01*
X94237735Y-67299999D01*
X94215796Y-67261999D01*
X94199183Y-67199998D01*
X94215797Y-67137998D01*
X94225757Y-67120748D01*
X94250144Y-67078508D01*
X94310262Y-66893482D01*
X94330598Y-66700000D01*
X94310262Y-66506518D01*
X94250144Y-66321492D01*
X94215796Y-66261999D01*
X94199183Y-66199998D01*
X94215797Y-66137998D01*
X94250144Y-66078508D01*
X94250144Y-66078507D01*
X94310262Y-65893482D01*
X94330598Y-65700000D01*
X94310262Y-65506518D01*
X94250144Y-65321492D01*
X94215796Y-65261999D01*
X94199183Y-65199998D01*
X94215797Y-65137998D01*
X94250144Y-65078508D01*
X94250144Y-65078507D01*
X94310262Y-64893482D01*
X94330598Y-64700000D01*
X94310262Y-64506518D01*
X94250144Y-64321492D01*
X94215796Y-64261999D01*
X94199183Y-64199998D01*
X94215797Y-64137998D01*
X94250144Y-64078508D01*
X94291898Y-63950000D01*
X94310262Y-63893482D01*
X94330598Y-63700000D01*
X94310262Y-63506518D01*
X94279902Y-63413081D01*
X94273862Y-63372108D01*
X94281652Y-63331430D01*
X94318597Y-63232375D01*
X94325000Y-63172824D01*
X94325000Y-62950000D01*
X93982559Y-62950000D01*
X93944241Y-62943931D01*
X93909674Y-62926318D01*
X93865300Y-62894078D01*
X93687568Y-62814947D01*
X93497276Y-62774500D01*
X93497274Y-62774500D01*
X93302726Y-62774500D01*
X93302724Y-62774500D01*
X93112431Y-62814947D01*
X92934699Y-62894078D01*
X92890326Y-62926318D01*
X92855759Y-62943931D01*
X92817441Y-62950000D01*
X92475000Y-62950000D01*
X92475000Y-63172824D01*
X92481402Y-63232377D01*
X92518347Y-63331431D01*
X92526137Y-63372108D01*
X92520097Y-63413081D01*
X92489739Y-63506514D01*
X92489738Y-63506518D01*
X92469402Y-63700000D01*
X92489738Y-63893482D01*
X92489739Y-63893485D01*
X92549855Y-64078507D01*
X92584203Y-64137999D01*
X92600816Y-64199998D01*
X92584204Y-64261998D01*
X92549854Y-64321493D01*
X92489739Y-64506514D01*
X92489738Y-64506518D01*
X92469402Y-64700000D01*
X92489738Y-64893482D01*
X92489739Y-64893485D01*
X92549855Y-65078507D01*
X92584203Y-65137999D01*
X92600816Y-65199998D01*
X92584204Y-65261998D01*
X92549854Y-65321493D01*
X92489739Y-65506514D01*
X92489738Y-65506518D01*
X92469402Y-65700000D01*
X92489738Y-65893482D01*
X92489739Y-65893485D01*
X92549855Y-66078507D01*
X92584203Y-66138000D01*
X92600816Y-66200000D01*
X92584203Y-66262000D01*
X92549855Y-66321492D01*
X92493664Y-66494434D01*
X92489738Y-66506518D01*
X92469402Y-66700000D01*
X92489738Y-66893482D01*
X92489739Y-66893485D01*
X92549855Y-67078507D01*
X92584203Y-67138000D01*
X92600816Y-67200000D01*
X92584203Y-67262000D01*
X92549855Y-67321492D01*
X92498597Y-67479251D01*
X92489738Y-67506518D01*
X92469402Y-67700000D01*
X92489738Y-67893482D01*
X92489739Y-67893485D01*
X92549855Y-68078507D01*
X92584203Y-68138000D01*
X92600816Y-68200000D01*
X92584203Y-68262000D01*
X92549855Y-68321492D01*
X92489739Y-68506514D01*
X92489738Y-68506518D01*
X92469402Y-68700000D01*
X92489738Y-68893482D01*
X92489739Y-68893485D01*
X92549855Y-69078507D01*
X92584203Y-69138000D01*
X92600816Y-69200000D01*
X92584203Y-69262000D01*
X92549855Y-69321492D01*
X92511558Y-69439361D01*
X92489738Y-69506518D01*
X92469402Y-69700000D01*
X92489738Y-69893482D01*
X92489739Y-69893485D01*
X92549855Y-70078507D01*
X92584203Y-70137999D01*
X92600816Y-70199998D01*
X92584204Y-70261998D01*
X92549854Y-70321493D01*
X92489739Y-70506514D01*
X92489738Y-70506518D01*
X92469402Y-70700000D01*
X92489738Y-70893482D01*
X92489739Y-70893485D01*
X92549855Y-71078507D01*
X92584203Y-71138000D01*
X92600816Y-71200000D01*
X92584203Y-71262000D01*
X92549855Y-71321492D01*
X92489739Y-71506514D01*
X92489738Y-71506518D01*
X92469402Y-71700000D01*
X92489738Y-71893482D01*
X92489739Y-71893485D01*
X92549855Y-72078507D01*
X92584203Y-72137999D01*
X92600816Y-72199998D01*
X92584204Y-72261998D01*
X92549854Y-72321493D01*
X92489739Y-72506514D01*
X92489738Y-72506518D01*
X92469402Y-72700000D01*
X92489738Y-72893482D01*
X92489739Y-72893485D01*
X92549855Y-73078507D01*
X92584203Y-73138000D01*
X92600816Y-73200000D01*
X92584203Y-73262000D01*
X92549855Y-73321492D01*
X92489739Y-73506514D01*
X92489738Y-73506518D01*
X92469402Y-73700000D01*
X92489738Y-73893482D01*
X92489739Y-73893485D01*
X92549855Y-74078507D01*
X92584203Y-74138000D01*
X92600816Y-74200000D01*
X92584203Y-74262000D01*
X92549855Y-74321492D01*
X92500918Y-74472108D01*
X92489738Y-74506518D01*
X92469402Y-74700000D01*
X92489738Y-74893482D01*
X92489739Y-74893485D01*
X92549855Y-75078507D01*
X92584203Y-75137999D01*
X92600816Y-75199998D01*
X92584204Y-75261998D01*
X92549855Y-75321491D01*
X92544646Y-75337526D01*
X92511598Y-75389599D01*
X92457552Y-75419311D01*
X92395877Y-75419311D01*
X92341831Y-75389599D01*
X92308784Y-75337525D01*
X92257115Y-75178507D01*
X92236341Y-75114570D01*
X92107733Y-74841264D01*
X92107732Y-74841263D01*
X92107731Y-74841260D01*
X92018084Y-74700000D01*
X91945885Y-74586232D01*
X91753349Y-74353496D01*
X91730860Y-74332377D01*
X91533160Y-74146723D01*
X91288795Y-73969183D01*
X91024102Y-73823667D01*
X90743262Y-73712474D01*
X90450700Y-73637358D01*
X90151028Y-73599500D01*
X90151027Y-73599500D01*
X89848973Y-73599500D01*
X89848972Y-73599500D01*
X89549299Y-73637358D01*
X89256737Y-73712474D01*
X88975897Y-73823667D01*
X88711204Y-73969183D01*
X88466839Y-74146723D01*
X88246650Y-74353496D01*
X88054114Y-74586233D01*
X87892268Y-74841260D01*
X87763658Y-75114571D01*
X87670319Y-75401836D01*
X87613719Y-75698547D01*
X87594753Y-75999999D01*
X87000584Y-75999999D01*
X87000500Y-75996755D01*
X87000500Y-63700000D01*
X87769402Y-63700000D01*
X87789738Y-63893482D01*
X87789739Y-63893485D01*
X87849855Y-64078507D01*
X87947129Y-64246992D01*
X88077308Y-64391570D01*
X88234699Y-64505921D01*
X88412431Y-64585052D01*
X88602724Y-64625500D01*
X88602726Y-64625500D01*
X88797274Y-64625500D01*
X88797275Y-64625500D01*
X89000320Y-64582341D01*
X89000507Y-64583220D01*
X89028947Y-64576712D01*
X89076124Y-64584470D01*
X89167624Y-64618597D01*
X89227176Y-64625000D01*
X89450000Y-64625000D01*
X89450000Y-64285190D01*
X89466613Y-64223190D01*
X89518544Y-64133239D01*
X89550144Y-64078508D01*
X89591898Y-63950000D01*
X89950000Y-63950000D01*
X89950000Y-64625000D01*
X90172824Y-64625000D01*
X90232375Y-64618597D01*
X90367089Y-64568352D01*
X90482188Y-64482188D01*
X90568352Y-64367089D01*
X90618597Y-64232375D01*
X90625000Y-64172824D01*
X90625000Y-63950000D01*
X89950000Y-63950000D01*
X89591898Y-63950000D01*
X89610262Y-63893482D01*
X89630598Y-63700000D01*
X89610262Y-63506518D01*
X89550144Y-63321492D01*
X89498694Y-63232377D01*
X89466613Y-63176810D01*
X89450000Y-63114810D01*
X89450000Y-62775000D01*
X89950000Y-62775000D01*
X89950000Y-63450000D01*
X90625000Y-63450000D01*
X90625000Y-63227176D01*
X90618597Y-63167624D01*
X90568352Y-63032910D01*
X90482188Y-62917811D01*
X90367089Y-62831647D01*
X90232375Y-62781402D01*
X90172824Y-62775000D01*
X89950000Y-62775000D01*
X89450000Y-62775000D01*
X89227176Y-62775000D01*
X89167622Y-62781402D01*
X89076124Y-62815529D01*
X89028955Y-62823288D01*
X89000505Y-62816779D01*
X89000319Y-62817658D01*
X88797276Y-62774500D01*
X88797274Y-62774500D01*
X88602726Y-62774500D01*
X88602724Y-62774500D01*
X88412431Y-62814947D01*
X88234699Y-62894078D01*
X88077308Y-63008429D01*
X87947129Y-63153007D01*
X87849855Y-63321492D01*
X87789739Y-63506514D01*
X87789738Y-63506518D01*
X87769402Y-63700000D01*
X87000500Y-63700000D01*
X87000500Y-62450000D01*
X92475000Y-62450000D01*
X93150000Y-62450000D01*
X93150000Y-61775000D01*
X93650000Y-61775000D01*
X93650000Y-62450000D01*
X94325000Y-62450000D01*
X94325000Y-62227176D01*
X94318597Y-62167624D01*
X94268352Y-62032910D01*
X94182188Y-61917811D01*
X94067089Y-61831647D01*
X93932375Y-61781402D01*
X93872824Y-61775000D01*
X93650000Y-61775000D01*
X93150000Y-61775000D01*
X92927176Y-61775000D01*
X92867624Y-61781402D01*
X92732910Y-61831647D01*
X92617811Y-61917811D01*
X92531647Y-62032910D01*
X92481402Y-62167624D01*
X92475000Y-62227176D01*
X92475000Y-62450000D01*
X87000500Y-62450000D01*
X87000500Y-60222292D01*
X100572142Y-60222292D01*
X100592339Y-60401543D01*
X100592339Y-60401545D01*
X100592340Y-60401547D01*
X100651919Y-60571814D01*
X100651920Y-60571815D01*
X100755325Y-60736384D01*
X100754020Y-60737203D01*
X100767769Y-60757780D01*
X100777208Y-60805233D01*
X100777208Y-61634353D01*
X100776147Y-61650539D01*
X100772025Y-61681840D01*
X100777208Y-61721200D01*
X100777208Y-61721201D01*
X100792664Y-61838602D01*
X100853171Y-61984680D01*
X100949424Y-62110121D01*
X100974476Y-62129343D01*
X100986672Y-62140039D01*
X101669298Y-62822665D01*
X101693337Y-62856544D01*
X101704837Y-62896462D01*
X101714631Y-62983382D01*
X101714631Y-62983383D01*
X101714632Y-62983387D01*
X101774211Y-63153654D01*
X101788761Y-63176810D01*
X101870185Y-63306396D01*
X101997735Y-63433946D01*
X101997737Y-63433947D01*
X101997738Y-63433948D01*
X102150478Y-63529921D01*
X102320745Y-63589500D01*
X102500000Y-63609697D01*
X102679255Y-63589500D01*
X102849522Y-63529921D01*
X103002262Y-63433948D01*
X103129816Y-63306394D01*
X103225789Y-63153654D01*
X103285368Y-62983387D01*
X103305565Y-62804132D01*
X103285368Y-62624877D01*
X103225789Y-62454610D01*
X103129816Y-62301870D01*
X103129815Y-62301869D01*
X103129814Y-62301867D01*
X103002264Y-62174317D01*
X102900096Y-62110121D01*
X102849522Y-62078343D01*
X102679255Y-62018764D01*
X102679251Y-62018763D01*
X102679250Y-62018763D01*
X102592330Y-62008969D01*
X102561194Y-61999999D01*
X117469531Y-61999999D01*
X117489364Y-62226689D01*
X117548261Y-62446497D01*
X117644432Y-62652735D01*
X117774953Y-62839140D01*
X117935859Y-63000046D01*
X118122264Y-63130567D01*
X118122265Y-63130567D01*
X118122266Y-63130568D01*
X118328504Y-63226739D01*
X118548308Y-63285635D01*
X118775000Y-63305468D01*
X119001692Y-63285635D01*
X119221496Y-63226739D01*
X119427734Y-63130568D01*
X119614139Y-63000047D01*
X119775047Y-62839139D01*
X119905568Y-62652734D01*
X120001739Y-62446496D01*
X120060635Y-62226692D01*
X120080468Y-62000000D01*
X120060635Y-61773308D01*
X120001739Y-61553504D01*
X119905568Y-61347266D01*
X119775047Y-61160861D01*
X119775046Y-61160859D01*
X119614140Y-60999953D01*
X119427735Y-60869432D01*
X119221497Y-60773261D01*
X119001689Y-60714364D01*
X118775000Y-60694531D01*
X118548310Y-60714364D01*
X118328502Y-60773261D01*
X118122264Y-60869432D01*
X117935859Y-60999953D01*
X117774953Y-61160859D01*
X117644432Y-61347264D01*
X117548261Y-61553502D01*
X117489364Y-61773310D01*
X117469531Y-61999999D01*
X102561194Y-61999999D01*
X102552412Y-61997469D01*
X102518533Y-61973430D01*
X102014527Y-61469424D01*
X101987647Y-61429196D01*
X101978208Y-61381743D01*
X101978208Y-60805233D01*
X101987647Y-60757780D01*
X102001395Y-60737203D01*
X102000091Y-60736384D01*
X102026389Y-60694531D01*
X102103497Y-60571814D01*
X102163076Y-60401547D01*
X102183273Y-60222292D01*
X102163076Y-60043037D01*
X102103497Y-59872770D01*
X102007524Y-59720030D01*
X102007523Y-59720029D01*
X102007522Y-59720027D01*
X101879972Y-59592477D01*
X101800771Y-59542712D01*
X101727230Y-59496503D01*
X101556963Y-59436924D01*
X101556961Y-59436923D01*
X101556959Y-59436923D01*
X101377708Y-59416726D01*
X101198456Y-59436923D01*
X101198453Y-59436923D01*
X101198453Y-59436924D01*
X101028186Y-59496503D01*
X101028184Y-59496503D01*
X101028184Y-59496504D01*
X100875443Y-59592477D01*
X100747893Y-59720027D01*
X100651920Y-59872768D01*
X100592339Y-60043040D01*
X100572142Y-60222292D01*
X87000500Y-60222292D01*
X87000500Y-59000008D01*
X117474500Y-59000008D01*
X117485000Y-59102796D01*
X117540186Y-59269334D01*
X117632288Y-59418657D01*
X117756342Y-59542711D01*
X117756344Y-59542712D01*
X117905666Y-59634814D01*
X118017016Y-59671712D01*
X118072202Y-59689999D01*
X118082702Y-59691071D01*
X118174991Y-59700500D01*
X119375008Y-59700499D01*
X119477797Y-59689999D01*
X119644334Y-59634814D01*
X119793656Y-59542712D01*
X119917712Y-59418656D01*
X120009814Y-59269334D01*
X120064999Y-59102797D01*
X120075500Y-59000009D01*
X120075499Y-57799992D01*
X120064999Y-57697203D01*
X120009814Y-57530666D01*
X119917712Y-57381344D01*
X119917711Y-57381342D01*
X119793657Y-57257288D01*
X119644334Y-57165186D01*
X119477797Y-57110000D01*
X119375009Y-57099500D01*
X118174991Y-57099500D01*
X118072203Y-57110000D01*
X117905665Y-57165186D01*
X117756342Y-57257288D01*
X117632288Y-57381342D01*
X117540186Y-57530665D01*
X117485000Y-57697202D01*
X117474500Y-57799990D01*
X117474500Y-59000008D01*
X87000500Y-59000008D01*
X87000500Y-57600000D01*
X87769402Y-57600000D01*
X87789738Y-57793482D01*
X87789739Y-57793485D01*
X87849855Y-57978507D01*
X87947129Y-58146992D01*
X88077308Y-58291570D01*
X88234699Y-58405921D01*
X88412431Y-58485052D01*
X88602724Y-58525500D01*
X88602726Y-58525500D01*
X88797274Y-58525500D01*
X88797275Y-58525500D01*
X89000320Y-58482341D01*
X89000507Y-58483220D01*
X89028947Y-58476712D01*
X89076124Y-58484470D01*
X89167624Y-58518597D01*
X89227176Y-58525000D01*
X89450000Y-58525000D01*
X89450000Y-58185190D01*
X89466613Y-58123190D01*
X89518544Y-58033239D01*
X89550144Y-57978508D01*
X89591898Y-57850000D01*
X89950000Y-57850000D01*
X89950000Y-58525000D01*
X90172824Y-58525000D01*
X90232375Y-58518597D01*
X90367089Y-58468352D01*
X90482188Y-58382188D01*
X90568352Y-58267089D01*
X90618597Y-58132375D01*
X90625000Y-58072824D01*
X90625000Y-57850000D01*
X89950000Y-57850000D01*
X89591898Y-57850000D01*
X89610262Y-57793482D01*
X89630598Y-57600000D01*
X89610262Y-57406518D01*
X89550144Y-57221492D01*
X89495691Y-57127176D01*
X89466613Y-57076810D01*
X89450000Y-57014810D01*
X89450000Y-56675000D01*
X89950000Y-56675000D01*
X89950000Y-57350000D01*
X90625000Y-57350000D01*
X90625000Y-57127176D01*
X90618597Y-57067624D01*
X90568352Y-56932910D01*
X90482188Y-56817811D01*
X90367089Y-56731647D01*
X90232375Y-56681402D01*
X90172824Y-56675000D01*
X89950000Y-56675000D01*
X89450000Y-56675000D01*
X89227176Y-56675000D01*
X89167622Y-56681402D01*
X89076124Y-56715529D01*
X89028955Y-56723288D01*
X89000505Y-56716779D01*
X89000319Y-56717658D01*
X88797276Y-56674500D01*
X88797274Y-56674500D01*
X88602726Y-56674500D01*
X88602724Y-56674500D01*
X88412431Y-56714947D01*
X88234699Y-56794078D01*
X88077308Y-56908429D01*
X87947129Y-57053007D01*
X87849855Y-57221492D01*
X87797918Y-57381342D01*
X87789738Y-57406518D01*
X87769402Y-57600000D01*
X87000500Y-57600000D01*
X87000500Y-53800000D01*
X117694531Y-53800000D01*
X117714364Y-54026689D01*
X117773261Y-54246497D01*
X117869432Y-54452735D01*
X117999953Y-54639140D01*
X118160859Y-54800046D01*
X118347264Y-54930567D01*
X118347265Y-54930567D01*
X118347266Y-54930568D01*
X118553504Y-55026739D01*
X118773308Y-55085635D01*
X119000000Y-55105468D01*
X119226692Y-55085635D01*
X119446496Y-55026739D01*
X119652734Y-54930568D01*
X119839139Y-54800047D01*
X120000047Y-54639139D01*
X120130568Y-54452734D01*
X120226739Y-54246496D01*
X120285635Y-54026692D01*
X120305468Y-53800000D01*
X120285635Y-53573308D01*
X120226739Y-53353504D01*
X120130568Y-53147266D01*
X120130376Y-53146992D01*
X120000046Y-52960859D01*
X119839140Y-52799953D01*
X119652735Y-52669432D01*
X119446497Y-52573261D01*
X119226689Y-52514364D01*
X119000000Y-52494531D01*
X118773310Y-52514364D01*
X118553502Y-52573261D01*
X118347264Y-52669432D01*
X118160859Y-52799953D01*
X117999953Y-52960859D01*
X117869432Y-53147264D01*
X117773261Y-53353502D01*
X117714364Y-53573310D01*
X117694531Y-53800000D01*
X87000500Y-53800000D01*
X87000500Y-52600000D01*
X87969402Y-52600000D01*
X87989738Y-52793482D01*
X87989739Y-52793485D01*
X88049855Y-52978507D01*
X88147129Y-53146992D01*
X88277308Y-53291570D01*
X88434699Y-53405921D01*
X88612431Y-53485052D01*
X88802724Y-53525500D01*
X88802726Y-53525500D01*
X88997274Y-53525500D01*
X88997276Y-53525500D01*
X89187568Y-53485052D01*
X89187569Y-53485051D01*
X89187571Y-53485051D01*
X89365299Y-53405922D01*
X89522692Y-53291569D01*
X89652870Y-53146992D01*
X89750144Y-52978508D01*
X89810262Y-52793482D01*
X89830598Y-52600000D01*
X89810262Y-52406518D01*
X89779902Y-52313081D01*
X89773862Y-52272108D01*
X89781652Y-52231430D01*
X89818597Y-52132375D01*
X89825000Y-52072824D01*
X89825000Y-51850000D01*
X89482559Y-51850000D01*
X89444241Y-51843931D01*
X89409674Y-51826318D01*
X89365300Y-51794078D01*
X89187568Y-51714947D01*
X88997276Y-51674500D01*
X88997274Y-51674500D01*
X88802726Y-51674500D01*
X88802724Y-51674500D01*
X88612431Y-51714947D01*
X88434699Y-51794078D01*
X88390326Y-51826318D01*
X88355759Y-51843931D01*
X88317441Y-51850000D01*
X87975000Y-51850000D01*
X87975000Y-52072824D01*
X87981402Y-52132377D01*
X88018347Y-52231431D01*
X88026137Y-52272108D01*
X88020097Y-52313081D01*
X87989738Y-52406518D01*
X87969402Y-52600000D01*
X87000500Y-52600000D01*
X87000500Y-51350000D01*
X87975000Y-51350000D01*
X88650000Y-51350000D01*
X88650000Y-50675000D01*
X89150000Y-50675000D01*
X89150000Y-51350000D01*
X89825000Y-51350000D01*
X89825000Y-51127176D01*
X89818597Y-51067624D01*
X89768352Y-50932910D01*
X89682188Y-50817811D01*
X89567089Y-50731647D01*
X89432375Y-50681402D01*
X89372824Y-50675000D01*
X89150000Y-50675000D01*
X88650000Y-50675000D01*
X88427176Y-50675000D01*
X88367624Y-50681402D01*
X88232910Y-50731647D01*
X88117811Y-50817811D01*
X88031647Y-50932910D01*
X87981402Y-51067624D01*
X87975000Y-51127176D01*
X87975000Y-51350000D01*
X87000500Y-51350000D01*
X87000500Y-50156881D01*
X97026672Y-50156881D01*
X97142816Y-50228796D01*
X97350201Y-50309137D01*
X97379713Y-50314653D01*
X97433561Y-50339054D01*
X97469991Y-50385614D01*
X97477864Y-50428271D01*
X97478280Y-50428198D01*
X97510246Y-50609490D01*
X97577421Y-50765219D01*
X97678698Y-50901258D01*
X97808614Y-51010271D01*
X97808615Y-51010271D01*
X97808617Y-51010273D01*
X97960175Y-51086388D01*
X98125201Y-51125500D01*
X98252253Y-51125500D01*
X98252256Y-51125500D01*
X98378451Y-51110750D01*
X98537820Y-51052744D01*
X98679517Y-50959549D01*
X98795902Y-50836188D01*
X98880701Y-50689312D01*
X98929342Y-50526839D01*
X98939203Y-50357529D01*
X98909753Y-50190508D01*
X98842579Y-50034781D01*
X98741302Y-49898742D01*
X98741300Y-49898740D01*
X98732647Y-49887117D01*
X98734567Y-49885687D01*
X98717009Y-49862596D01*
X98705857Y-49809037D01*
X98718839Y-49755891D01*
X98803762Y-49585345D01*
X98864621Y-49371445D01*
X98885140Y-49149999D01*
X104734859Y-49149999D01*
X104755378Y-49371445D01*
X104816237Y-49585345D01*
X104915368Y-49784424D01*
X104978308Y-49867770D01*
X105000551Y-49916280D01*
X105000345Y-49969646D01*
X104977730Y-50017983D01*
X104907302Y-50109766D01*
X104849312Y-50249764D01*
X104829533Y-50399999D01*
X104849312Y-50550235D01*
X104906921Y-50689313D01*
X104907302Y-50690233D01*
X104999549Y-50810451D01*
X105119767Y-50902698D01*
X105192705Y-50932910D01*
X105259764Y-50960687D01*
X105372279Y-50975500D01*
X105372280Y-50975500D01*
X105447720Y-50975500D01*
X105447721Y-50975500D01*
X105503978Y-50968093D01*
X105560236Y-50960687D01*
X105700233Y-50902698D01*
X105820451Y-50810451D01*
X105912698Y-50690233D01*
X105970687Y-50550236D01*
X105983883Y-50450000D01*
X117700001Y-50450000D01*
X117700001Y-50799979D01*
X117710493Y-50902695D01*
X117765642Y-51069122D01*
X117857683Y-51218345D01*
X117981654Y-51342316D01*
X118130877Y-51434357D01*
X118297303Y-51489506D01*
X118400021Y-51500000D01*
X118750000Y-51500000D01*
X118750000Y-50450000D01*
X119250000Y-50450000D01*
X119250000Y-51499999D01*
X119599979Y-51499999D01*
X119702695Y-51489506D01*
X119869122Y-51434357D01*
X120018345Y-51342316D01*
X120142316Y-51218345D01*
X120234357Y-51069122D01*
X120289506Y-50902696D01*
X120300000Y-50799979D01*
X120300000Y-50450000D01*
X119250000Y-50450000D01*
X118750000Y-50450000D01*
X117700001Y-50450000D01*
X105983883Y-50450000D01*
X105983942Y-50449552D01*
X106001120Y-50401002D01*
X106036542Y-50363618D01*
X106084096Y-50343849D01*
X106269801Y-50309135D01*
X106477180Y-50228797D01*
X106593326Y-50156880D01*
X106593326Y-50156879D01*
X106386447Y-49950000D01*
X117700000Y-49950000D01*
X118750000Y-49950000D01*
X118750000Y-48900001D01*
X118400021Y-48900001D01*
X118297304Y-48910493D01*
X118130877Y-48965642D01*
X117981654Y-49057683D01*
X117857683Y-49181654D01*
X117765642Y-49330877D01*
X117710493Y-49497303D01*
X117700000Y-49600021D01*
X117700000Y-49950000D01*
X106386447Y-49950000D01*
X105586448Y-49150001D01*
X106293553Y-49150001D01*
X106948861Y-49805308D01*
X106964632Y-49784424D01*
X107063761Y-49585347D01*
X107124621Y-49371445D01*
X107145140Y-49149999D01*
X107124621Y-48928554D01*
X107116497Y-48900000D01*
X119250000Y-48900000D01*
X119250000Y-49950000D01*
X120299999Y-49950000D01*
X120299999Y-49600021D01*
X120289506Y-49497304D01*
X120234357Y-49330877D01*
X120142316Y-49181654D01*
X120018345Y-49057683D01*
X119869122Y-48965642D01*
X119702696Y-48910493D01*
X119599979Y-48900000D01*
X119250000Y-48900000D01*
X107116497Y-48900000D01*
X107063762Y-48714654D01*
X106964630Y-48515572D01*
X106948860Y-48494690D01*
X106293553Y-49150000D01*
X106293553Y-49150001D01*
X105586448Y-49150001D01*
X104931138Y-48494691D01*
X104931137Y-48494691D01*
X104915368Y-48515574D01*
X104816237Y-48714654D01*
X104755378Y-48928554D01*
X104734859Y-49149999D01*
X98885140Y-49149999D01*
X98864621Y-48928554D01*
X98803762Y-48714654D01*
X98704630Y-48515572D01*
X98688860Y-48494690D01*
X97680000Y-49503553D01*
X97026672Y-50156879D01*
X97026672Y-50156881D01*
X87000500Y-50156881D01*
X87000500Y-49149999D01*
X96474859Y-49149999D01*
X96495378Y-49371445D01*
X96556238Y-49585347D01*
X96655367Y-49784425D01*
X96671137Y-49805308D01*
X96671138Y-49805308D01*
X97326447Y-49150001D01*
X97326447Y-49150000D01*
X96671138Y-48494691D01*
X96671137Y-48494691D01*
X96655368Y-48515574D01*
X96556237Y-48714654D01*
X96495378Y-48928554D01*
X96474859Y-49149999D01*
X87000500Y-49149999D01*
X87000500Y-48143119D01*
X97026671Y-48143119D01*
X97680000Y-48796447D01*
X97680001Y-48796447D01*
X98333327Y-48143119D01*
X105286671Y-48143119D01*
X105940000Y-48796447D01*
X105940001Y-48796447D01*
X106593327Y-48143119D01*
X106477179Y-48071202D01*
X106269801Y-47990864D01*
X106051194Y-47950000D01*
X105828806Y-47950000D01*
X105610198Y-47990864D01*
X105402821Y-48071202D01*
X105286671Y-48143119D01*
X98333327Y-48143119D01*
X98217179Y-48071202D01*
X98009801Y-47990864D01*
X97791194Y-47950000D01*
X97568806Y-47950000D01*
X97350198Y-47990864D01*
X97142821Y-48071202D01*
X97026671Y-48143119D01*
X87000500Y-48143119D01*
X87000500Y-44003245D01*
X87000585Y-43999999D01*
X87594753Y-43999999D01*
X87613719Y-44301452D01*
X87670319Y-44598163D01*
X87763658Y-44885428D01*
X87892268Y-45158739D01*
X88016968Y-45355234D01*
X88054115Y-45413768D01*
X88206450Y-45597909D01*
X88246650Y-45646503D01*
X88466839Y-45853276D01*
X88711204Y-46030816D01*
X88843550Y-46103573D01*
X88975896Y-46176332D01*
X89116316Y-46231928D01*
X89256737Y-46287525D01*
X89411141Y-46327168D01*
X89549302Y-46362642D01*
X89798314Y-46394100D01*
X89848972Y-46400500D01*
X89848973Y-46400500D01*
X90151027Y-46400500D01*
X90151028Y-46400500D01*
X90194360Y-46395025D01*
X90450698Y-46362642D01*
X90743262Y-46287525D01*
X91024104Y-46176332D01*
X91288795Y-46030816D01*
X91288795Y-46030815D01*
X91533160Y-45853276D01*
X91557079Y-45830814D01*
X91753349Y-45646504D01*
X91945885Y-45413768D01*
X92107733Y-45158736D01*
X92236341Y-44885430D01*
X92329681Y-44598160D01*
X92386280Y-44301457D01*
X92392230Y-44206881D01*
X96666672Y-44206881D01*
X96782816Y-44278795D01*
X96990198Y-44359135D01*
X97208806Y-44400000D01*
X97431194Y-44400000D01*
X97649801Y-44359135D01*
X97857180Y-44278797D01*
X97973324Y-44206881D01*
X105646672Y-44206881D01*
X105762816Y-44278795D01*
X105970198Y-44359135D01*
X106188806Y-44400000D01*
X106411194Y-44400000D01*
X106629801Y-44359135D01*
X106837180Y-44278797D01*
X106953326Y-44206880D01*
X106953326Y-44206879D01*
X106746446Y-43999999D01*
X115494753Y-43999999D01*
X115513719Y-44301452D01*
X115570319Y-44598163D01*
X115663658Y-44885428D01*
X115792268Y-45158739D01*
X115916968Y-45355234D01*
X115954115Y-45413768D01*
X116106450Y-45597909D01*
X116146650Y-45646503D01*
X116366839Y-45853276D01*
X116611204Y-46030816D01*
X116743550Y-46103573D01*
X116875896Y-46176332D01*
X117016316Y-46231928D01*
X117156737Y-46287525D01*
X117311141Y-46327168D01*
X117449302Y-46362642D01*
X117698314Y-46394100D01*
X117748972Y-46400500D01*
X117748973Y-46400500D01*
X118051027Y-46400500D01*
X118051028Y-46400500D01*
X118094360Y-46395025D01*
X118350698Y-46362642D01*
X118643262Y-46287525D01*
X118924104Y-46176332D01*
X119188795Y-46030816D01*
X119188795Y-46030815D01*
X119433160Y-45853276D01*
X119457079Y-45830814D01*
X119653349Y-45646504D01*
X119845885Y-45413768D01*
X120007733Y-45158736D01*
X120136341Y-44885430D01*
X120229681Y-44598160D01*
X120286280Y-44301457D01*
X120305246Y-44000000D01*
X120286280Y-43698543D01*
X120229681Y-43401840D01*
X120217611Y-43364694D01*
X120136341Y-43114571D01*
X120116828Y-43073104D01*
X120007733Y-42841264D01*
X120007732Y-42841263D01*
X120007731Y-42841260D01*
X119933440Y-42724197D01*
X119845885Y-42586232D01*
X119653349Y-42353496D01*
X119529228Y-42236938D01*
X119433160Y-42146723D01*
X119188795Y-41969183D01*
X118924102Y-41823667D01*
X118643262Y-41712474D01*
X118350700Y-41637358D01*
X118051028Y-41599500D01*
X118051027Y-41599500D01*
X117748973Y-41599500D01*
X117748972Y-41599500D01*
X117449299Y-41637358D01*
X117156737Y-41712474D01*
X116875897Y-41823667D01*
X116611204Y-41969183D01*
X116366839Y-42146723D01*
X116146650Y-42353496D01*
X115954114Y-42586233D01*
X115792268Y-42841260D01*
X115663658Y-43114571D01*
X115570319Y-43401836D01*
X115513719Y-43698547D01*
X115494753Y-43999999D01*
X106746446Y-43999999D01*
X106300001Y-43553553D01*
X106300000Y-43553553D01*
X105646672Y-44206879D01*
X105646672Y-44206881D01*
X97973324Y-44206881D01*
X97973326Y-44206880D01*
X97973326Y-44206879D01*
X97320001Y-43553553D01*
X97320000Y-43553553D01*
X96666672Y-44206879D01*
X96666672Y-44206881D01*
X92392230Y-44206881D01*
X92405246Y-44000000D01*
X92386280Y-43698543D01*
X92329681Y-43401840D01*
X92317611Y-43364694D01*
X92264099Y-43200000D01*
X96114859Y-43200000D01*
X96135378Y-43421445D01*
X96196238Y-43635347D01*
X96295367Y-43834425D01*
X96311137Y-43855308D01*
X96311138Y-43855308D01*
X96966447Y-43200001D01*
X97673553Y-43200001D01*
X98328861Y-43855308D01*
X98344632Y-43834424D01*
X98443761Y-43635347D01*
X98504621Y-43421445D01*
X98525140Y-43200000D01*
X105094859Y-43200000D01*
X105115378Y-43421445D01*
X105176238Y-43635347D01*
X105275367Y-43834425D01*
X105291137Y-43855308D01*
X105291138Y-43855308D01*
X105946447Y-43200001D01*
X106653553Y-43200001D01*
X107308861Y-43855308D01*
X107324632Y-43834424D01*
X107423761Y-43635347D01*
X107484621Y-43421445D01*
X107505140Y-43200000D01*
X107484621Y-42978554D01*
X107423762Y-42764654D01*
X107324630Y-42565572D01*
X107308860Y-42544690D01*
X106653553Y-43200000D01*
X106653553Y-43200001D01*
X105946447Y-43200001D01*
X105946447Y-43200000D01*
X105291138Y-42544691D01*
X105291137Y-42544691D01*
X105275368Y-42565574D01*
X105176237Y-42764654D01*
X105115378Y-42978554D01*
X105094859Y-43200000D01*
X98525140Y-43200000D01*
X98504621Y-42978554D01*
X98443762Y-42764654D01*
X98344630Y-42565572D01*
X98328860Y-42544690D01*
X97673553Y-43200000D01*
X97673553Y-43200001D01*
X96966447Y-43200001D01*
X96966447Y-43200000D01*
X96311138Y-42544691D01*
X96311137Y-42544691D01*
X96295368Y-42565574D01*
X96196237Y-42764654D01*
X96135378Y-42978554D01*
X96114859Y-43200000D01*
X92264099Y-43200000D01*
X92236341Y-43114571D01*
X92216828Y-43073104D01*
X92107733Y-42841264D01*
X92107732Y-42841263D01*
X92107731Y-42841260D01*
X92033440Y-42724197D01*
X91945885Y-42586232D01*
X91753349Y-42353496D01*
X91629228Y-42236938D01*
X91582566Y-42193119D01*
X96666671Y-42193119D01*
X97320000Y-42846447D01*
X97320001Y-42846447D01*
X97973327Y-42193119D01*
X105646671Y-42193119D01*
X106300000Y-42846447D01*
X106300001Y-42846447D01*
X106953327Y-42193119D01*
X106837179Y-42121202D01*
X106629801Y-42040864D01*
X106411194Y-42000000D01*
X106188806Y-42000000D01*
X105970198Y-42040864D01*
X105762821Y-42121202D01*
X105646671Y-42193119D01*
X97973327Y-42193119D01*
X97857179Y-42121202D01*
X97649801Y-42040864D01*
X97431194Y-42000000D01*
X97208806Y-42000000D01*
X96990198Y-42040864D01*
X96782821Y-42121202D01*
X96666671Y-42193119D01*
X91582566Y-42193119D01*
X91533160Y-42146723D01*
X91288795Y-41969183D01*
X91024102Y-41823667D01*
X90743262Y-41712474D01*
X90450700Y-41637358D01*
X90151028Y-41599500D01*
X90151027Y-41599500D01*
X89848973Y-41599500D01*
X89848972Y-41599500D01*
X89549299Y-41637358D01*
X89256737Y-41712474D01*
X88975897Y-41823667D01*
X88711204Y-41969183D01*
X88466839Y-42146723D01*
X88246650Y-42353496D01*
X88054114Y-42586233D01*
X87892268Y-42841260D01*
X87763658Y-43114571D01*
X87670319Y-43401836D01*
X87613719Y-43698547D01*
X87594753Y-43999999D01*
X87000585Y-43999999D01*
X87000670Y-43996756D01*
X87007501Y-43866421D01*
X87017628Y-43686087D01*
X87018954Y-43673694D01*
X87042513Y-43524947D01*
X87042700Y-43523809D01*
X87069739Y-43364666D01*
X87072199Y-43353402D01*
X87112150Y-43204305D01*
X87112709Y-43202293D01*
X87156351Y-43050811D01*
X87159724Y-43040753D01*
X87215583Y-42895233D01*
X87216692Y-42892452D01*
X87276439Y-42748212D01*
X87280488Y-42739429D01*
X87351569Y-42599925D01*
X87353521Y-42596250D01*
X87370476Y-42565572D01*
X87428588Y-42460426D01*
X87433065Y-42452962D01*
X87518633Y-42321199D01*
X87521434Y-42317077D01*
X87611010Y-42190832D01*
X87615733Y-42184603D01*
X87714702Y-42062386D01*
X87718532Y-42057885D01*
X87821613Y-41942537D01*
X87826323Y-41937556D01*
X87937556Y-41826323D01*
X87942537Y-41821613D01*
X88057885Y-41718532D01*
X88062386Y-41714702D01*
X88184603Y-41615733D01*
X88190832Y-41611010D01*
X88317077Y-41521434D01*
X88321199Y-41518633D01*
X88452962Y-41433065D01*
X88460426Y-41428588D01*
X88596255Y-41353517D01*
X88599934Y-41351565D01*
X88739429Y-41280488D01*
X88748212Y-41276439D01*
X88892452Y-41216692D01*
X88895233Y-41215583D01*
X89040753Y-41159724D01*
X89050811Y-41156351D01*
X89202293Y-41112709D01*
X89204305Y-41112150D01*
X89353402Y-41072199D01*
X89364666Y-41069739D01*
X89523809Y-41042700D01*
X89524947Y-41042513D01*
X89673694Y-41018954D01*
X89686087Y-41017628D01*
X89866554Y-41007493D01*
X89996756Y-41000669D01*
X90003245Y-41000500D01*
X117996755Y-41000500D01*
X118003243Y-41000669D01*
G37*
%TD.AperFunction*%
%TD*%
M02*
